<mxfile host="app.diagrams.net" modified="2023-03-30T14:25:04.617Z" agent="5.0 (Macintosh; Intel Mac OS X 10_15_7) AppleWebKit/537.36 (KHTML, like Gecko) Chrome/111.0.0.0 Safari/537.36" etag="K7qdarq3xnan70S1i0fC" version="21.0.10" type="github">
  <diagram name="Page-1" id="uQ2UA8cxJJJltQtd2WEh">
    <mxGraphModel dx="2419" dy="2033" grid="1" gridSize="23" guides="1" tooltips="1" connect="1" arrows="1" fold="1" page="1" pageScale="1" pageWidth="827" pageHeight="1169" background="#ffffff" math="0" shadow="0">
      <root>
        <mxCell id="0" />
        <mxCell id="1" parent="0" />
        <mxCell id="S-A4i8dgzAycLhjzWPdY-8" value="" style="shape=image;html=1;verticalAlign=top;verticalLabelPosition=bottom;labelBackgroundColor=#ffffff;imageAspect=0;aspect=fixed;image=https://cdn0.iconfinder.com/data/icons/game-asset-1/24/gamepad-1-128.png;fontColor=#000000;" parent="1" vertex="1">
          <mxGeometry x="-8" y="607" width="88" height="88" as="geometry" />
        </mxCell>
        <mxCell id="S-A4i8dgzAycLhjzWPdY-9" value="" style="shape=image;html=1;verticalAlign=top;verticalLabelPosition=bottom;labelBackgroundColor=#ffffff;imageAspect=0;aspect=fixed;image=https://cdn0.iconfinder.com/data/icons/game-asset-1/24/gamepad-1-128.png;fontColor=#000000;" parent="1" vertex="1">
          <mxGeometry x="637.39" y="600" width="95" height="95" as="geometry" />
        </mxCell>
        <mxCell id="S-A4i8dgzAycLhjzWPdY-11" value="" style="shape=image;verticalLabelPosition=bottom;labelBackgroundColor=default;verticalAlign=top;aspect=fixed;imageAspect=0;image=data:image/png,iVBORw0KGgoAAAANSUhEUgAAAG4AAAC8CAYAAACZrZvfAAAMQWlDQ1BJQ0MgUHJvZmlsZQAASImVVwdYU8kWnluSkEBooUsJvQkiNYCUEFoA6UUQlZAECCXGQFCxI4sKrgUVC9jQVRHFDogFRRQLi2LviwUVZV0s2JU3KaDrvvK9+b65899/zvznzLkz994BQO0ERyTKRdUByBMWiGNDAujjklPopKcABeqABlyAKYebL2JGR0cAWIbav5d31wEiba84SLX+2f9fiwaPn88FAImGOJ2Xz82D+CAAeDVXJC4AgCjlzacWiKQYVqAlhgFCvFCKM+W4WorT5XivzCY+lgVxGwBKKhyOOBMA1UuQpxdyM6GGaj/ETkKeQAiAGh1i37y8yTyI0yC2gTYiiKX6jPQfdDL/ppk+rMnhZA5j+VxkRSlQkC/K5Uz/P9Pxv0termTIhxWsKlni0FjpnGHebuZMDpdiFYj7hOmRURBrQvxBwJPZQ4xSsiShCXJ71JCbz4I5AzoQO/E4geEQG0IcLMyNjFDw6RmCYDbEcIWg0wQF7HiI9SBeyM8PilPYbBJPjlX4QhsyxCymgj/LEcv8Sn3dl+QkMBX6r7P4bIU+plqUFZ8EMQVii0JBYiTEqhA75ufEhStsxhRlsSKHbMSSWGn8FhDH8oUhAXJ9rDBDHByrsC/Lyx+aL7YpS8COVOD9BVnxofL8YG1cjix+OBfsEl/ITBjS4eePixiaC48fGCSfO/aML0yIU+h8EBUExMrH4hRRbrTCHjfj54ZIeTOIXfML4xRj8cQCuCDl+niGqCA6Xh4nXpTNCYuWx4MvAxGABQIBHUhgTQeTQTYQdPY19sE7eU8w4AAxyAR84KBghkYkyXqE8BoHisCfEPFB/vC4AFkvHxRC/uswK786gAxZb6FsRA54AnEeCAe58F4iGyUc9pYIHkNG8A/vHFi5MN5cWKX9/54fYr8zTMhEKBjJkEe62pAlMYgYSAwlBhNtcQPcF/fGI+DVH1ZnnIF7Ds3juz3hCaGL8JBwjdBNuDVJUCz+KcqxoBvqBytykf5jLnArqOmGB+A+UB0q4zq4AXDAXaEfJu4HPbtBlqWIW5oV+k/af5vBD09DYUd2IqNkXbI/2ebnkap2qm7DKtJc/5gfeazpw/lmDff87J/1Q/Z5sA3/2RJbiB3A2rGT2DnsKNYI6FgL1oR1YMekeHh1PZatriFvsbJ4cqCO4B/+hp6sNJP5TnVOvU5f5H0F/GnSdzRgTRZNFwsyswroTPhF4NPZQq7jSLqzk7MLANLvi/z19SZG9t1AdDq+c/P/AMCnZXBw8Mh3LqwFgH0ecPsf/s7ZMOCnQxmAs4e5EnGhnMOlFwJ8S6jBnaYPjIE5sIHzcQbuwBv4gyAQBqJAPEgGE2H0WXCdi8FUMBPMA6WgHCwDq8A6sBFsATvAbrAfNIKj4CQ4Ay6AS+AauANXTw94AfrBO/AZQRASQkVoiD5iglgi9ogzwkB8kSAkAolFkpE0JBMRIhJkJjIfKUcqkHXIZqQW2YccRk4i55Au5BbyAOlFXiOfUAxVQbVQI9QKHYUyUCYajsajE9BMdApahJagS9A1aA26C21AT6IX0GtoN/oCHcAApozpYKaYA8bAWFgUloJlYGJsNlaGVWI1WD3WDJ/zFawb68M+4kSchtNxB7iCQ/EEnItPwWfji/F1+A68AW/Dr+AP8H78G4FKMCTYE7wIbMI4QiZhKqGUUEnYRjhEOA33Ug/hHZFI1CFaEz3gXkwmZhNnEBcT1xP3EE8Qu4iPiAMkEkmfZE/yIUWROKQCUilpLWkXqYV0mdRD+qCkrGSi5KwUrJSiJFQqVqpU2ql0XOmy0lOlz2R1siXZixxF5pGnk5eSt5KbyRfJPeTPFA2KNcWHEk/JpsyjrKHUU05T7lLeKCsrmyl7KscoC5TnKq9R3qt8VvmB8kcVTRU7FZZKqopEZYnKdpUTKrdU3lCpVCuqPzWFWkBdQq2lnqLep35Qpak6qrJVeapzVKtUG1Qvq75UI6tZqjHVJqoVqVWqHVC7qNanTla3Umepc9Rnq1epH1a/oT6gQdMYrRGlkaexWGOnxjmNZ5okTSvNIE2eZonmFs1Tmo9oGM2cxqJxafNpW2mnaT1aRC1rLbZWtla51m6tTq1+bU1tV+1E7WnaVdrHtLt1MB0rHbZOrs5Snf0613U+6RrpMnX5uot063Uv677XG6Hnr8fXK9Pbo3dN75M+XT9IP0d/uX6j/j0D3MDOIMZgqsEGg9MGfSO0RniP4I4oG7F/xG1D1NDOMNZwhuEWww7DASNjoxAjkdFao1NGfcY6xv7G2cYrjY8b95rQTHxNBCYrTVpMntO16Ux6Ln0NvY3eb2poGmoqMd1s2mn62czaLMGs2GyP2T1zijnDPMN8pXmreb+FicVYi5kWdRa3LcmWDMssy9WW7ZbvraytkqwWWDVaPbPWs2ZbF1nXWd+1odr42UyxqbG5aku0Zdjm2K63vWSH2rnZZdlV2V20R+3d7QX26+27RhJGeo4UjqwZecNBxYHpUOhQ5/DAUccxwrHYsdHx5SiLUSmjlo9qH/XNyc0p12mr053RmqPDRhePbh792tnOmetc5XzVheoS7DLHpcnllau9K991g+tNN5rbWLcFbq1uX9093MXu9e69HhYeaR7VHjcYWoxoxmLGWU+CZ4DnHM+jnh+93L0KvPZ7/eXt4J3jvdP72RjrMfwxW8c88jHz4fhs9un2pfum+W7y7fYz9eP41fg99Df35/lv83/KtGVmM3cxXwY4BYgDDgW8Z3mxZrFOBGKBIYFlgZ1BmkEJQeuC7gebBWcG1wX3h7iFzAg5EUoIDQ9dHnqDbcTmsmvZ/WEeYbPC2sJVwuPC14U/jLCLEEc0j0XHho1dMfZupGWkMLIxCkSxo1ZE3Yu2jp4SfSSGGBMdUxXzJHZ07MzY9jha3KS4nXHv4gPil8bfSbBJkCS0JqolpibWJr5PCkyqSOoeN2rcrHEXkg2SBclNKaSUxJRtKQPjg8avGt+T6pZamnp9gvWEaRPOTTSYmDvx2CS1SZxJB9IIaUlpO9O+cKI4NZyBdHZ6dXo/l8VdzX3B8+et5PXyffgV/KcZPhkVGc8yfTJXZPZm+WVVZvUJWIJ1glfZodkbs9/nROVszxnMTcrdk6eUl5Z3WKgpzBG2TTaePG1yl8heVCrqnuI1ZdWUfnG4eFs+kj8hv6lAC/7Id0hsJL9IHhT6FlYVfpiaOPXANI1pwmkd0+2mL5r+tCi46LcZ+AzujNaZpjPnzXwwizlr82xkdvrs1jnmc0rm9MwNmbtjHmVezrzfi52KK4rfzk+a31xiVDK35NEvIb/UlaqWiktvLPBesHEhvlCwsHORy6K1i76V8crOlzuVV5Z/WcxdfP7X0b+u+XVwScaSzqXuSzcsIy4TLru+3G/5jgqNiqKKRyvGrmhYSV9ZtvLtqkmrzlW6Vm5cTVktWd29JmJN01qLtcvWflmXte5aVUDVnmrD6kXV79fz1l/e4L+hfqPRxvKNnzYJNt3cHLK5ocaqpnILcUvhlidbE7e2/8b4rXabwbbybV+3C7d374jd0VbrUVu703Dn0jq0TlLXuyt116Xdgbub6h3qN+/R2VO+F+yV7H2+L23f9f3h+1sPMA7UH7Q8WH2IdqisAWmY3tDfmNXY3ZTc1HU47HBrs3fzoSOOR7YfNT1adUz72NLjlOMlxwdbiloGTohO9J3MPPmodVLrnVPjTl1ti2nrPB1++uyZ4DOn2pntLWd9zh4953Xu8HnG+cYL7hcaOtw6Dv3u9vuhTvfOhoseF5sueV5q7hrTdfyy3+WTVwKvnLnKvnrhWuS1rusJ12/eSL3RfZN389mt3Fuvbhfe/nxn7l3C3bJ76vcq7xver/nD9o893e7dxx4EPuh4GPfwziPuoxeP8x9/6Sl5Qn1S+dTkae0z52dHe4N7Lz0f/7znhejF577SPzX+rH5p8/LgX/5/dfSP6+95JX41+HrxG/0329+6vm0diB64/y7v3ef3ZR/0P+z4yPjY/inp09PPU7+Qvqz5avu1+Vv4t7uDeYODIo6YI/sVwGBFMzIAeL0dAGoyADR4PqOMl5//ZAWRn1llCPwnLD8jyoo7APXw/z2mD/7d3ABg71Z4/IL6aqkARFMBiPcEqIvLcB06q8nOldJChOeATeyv6Xnp4N8U+Znzh7h/boFU1RX83P4L1Dd8fKcDh3UAAACKZVhJZk1NACoAAAAIAAQBGgAFAAAAAQAAAD4BGwAFAAAAAQAAAEYBKAADAAAAAQACAACHaQAEAAAAAQAAAE4AAAAAAAAAkAAAAAEAAACQAAAAAQADkoYABwAAABIAAAB4oAIABAAAAAEAAABuoAMABAAAAAEAAAC8AAAAAEFTQ0lJAAAAU2NyZWVuc2hvdKh2xj4AAAAJcEhZcwAAFiUAABYlAUlSJPAAAAHWaVRYdFhNTDpjb20uYWRvYmUueG1wAAAAAAA8eDp4bXBtZXRhIHhtbG5zOng9ImFkb2JlOm5zOm1ldGEvIiB4OnhtcHRrPSJYTVAgQ29yZSA2LjAuMCI+CiAgIDxyZGY6UkRGIHhtbG5zOnJkZj0iaHR0cDovL3d3dy53My5vcmcvMTk5OS8wMi8yMi1yZGYtc3ludGF4LW5zIyI+CiAgICAgIDxyZGY6RGVzY3JpcHRpb24gcmRmOmFib3V0PSIiCiAgICAgICAgICAgIHhtbG5zOmV4aWY9Imh0dHA6Ly9ucy5hZG9iZS5jb20vZXhpZi8xLjAvIj4KICAgICAgICAgPGV4aWY6UGl4ZWxZRGltZW5zaW9uPjE4ODwvZXhpZjpQaXhlbFlEaW1lbnNpb24+CiAgICAgICAgIDxleGlmOlBpeGVsWERpbWVuc2lvbj4xMTA8L2V4aWY6UGl4ZWxYRGltZW5zaW9uPgogICAgICAgICA8ZXhpZjpVc2VyQ29tbWVudD5TY3JlZW5zaG90PC9leGlmOlVzZXJDb21tZW50PgogICAgICA8L3JkZjpEZXNjcmlwdGlvbj4KICAgPC9yZGY6UkRGPgo8L3g6eG1wbWV0YT4Kbq6ZBgAAABxpRE9UAAAAAgAAAAAAAABeAAAAKAAAAF4AAABeAAADX910R+IAAAMrSURBVHgB7JhBTttAAEWHRQXtAhaVWJJ14QxwCRBS1fYiVVFVIfUiBSEhuAScAboOS3awKVUXbcbQKHHIZGz9/GTIs4QgxP5//J7H42Tpb28LbMURWEJccc6qASOuTG8BcYgrlEChw2bGLYK4s8u76jR/dn+H65uHQk95foa9ubFSDWZ3e7X6vdl5fJ0zwqwZF4WdP0nLCWWfdgSiyCgxR2BS3HX3oSfsntnVzkPro3a318Je7ye1jRXHLEthm/57k+Q9Ky7OtMPj2+mPjoYkgZS8Z8W9/36TDORNH4Fx8kbEHR7dZq1pcSF911n2ncELaopP5XHLfTI/+bwxcvZD4nJukeOugJFk/pFFoC3zIXGTZhvSsly02mkS+/qsGxKXWtuQ1spHo4Oa8O+LS03ZuJ4dfFxvNAh2bk4g9RGsPnH64lIHHXxYz/o033yoHFEnMG7W1ScP4urkZvw6tdYNrnNZ4gYPmPF5vfh6xBWqGHGIC4Fbpe8qYMb5WEubECfF6QubqbivP+7DVfeP72znuOnbp9Ww1XmVPcKZiYvCoji2RwL7O2/C/s7rbBxzIS5ebYu6nV78qu46RYo7+/J2Ub1Vd51490FcYZfA/3UecYgb+jwt/65y8OGEWyW3ysLmW2CNK87Y04BZ4wo1hzjE9QkMftnPw0kfi/YPZpyWpy0NcTbU2iLEaXna0hBnQ60tQpyWpy0NcTbU2iLEaXna0hBnQ60tQpyWpy0NcTbU2iLEaXna0hBnQ60tQpyWpy0NcTbU2iLEaXna0hBnQ60tQpyWpy0NcTbU2iLEaXna0hBnQ60tQpyWpy0NcTbU2iLEaXna0hBnQ60tQpyWpy0NcTbU2iLEaXna0hBnQ60tQpyWpy0NcTbU2iLEaXna0hBnQ60tQpyWpy0NcTbU2iLEaXna0hBnQ60tQpyWpy0NcTbU2iLEaXna0hBnQ60tQpyWpy0NcTbU2iLEaXna0hBnQ60tQpyWpy0NcTbU2iLEaXna0hBnQ60tQpyWpy0NcTbU2iLEaXna0hBnQ60tQpyWpy0NcTbU2iLEaXna0hBnQ60tQpyWpy1t2uL+AQAA//+odvKPAAAIxElEQVTtnAmMFEUUht+w9wUL6IrXonig64EmikeCqKgoIpqIIqKAAoZbNJ6AkMipgYAIKoIKoqwSIDF4gJhoIMRbYoyr4glyibLLXrAss7vWP0PN0VM9O0PNTHUP7yWbnq6ua/5vq/rVq572tAgjYas3V9Ma8aey8omlqmRl2o/bj9DUFTW+a6snd1TmOR4SoQG0uPuafPGXF/NXnvbWPqrY0aDMH8rBw+CUGmknMjhtCc1UwODM6K7dKoPTltBMBQzOjO7arTI4bQnNVMDgzOiu3SqD05bQTAUMzozu2q0yOG0JzVTA4Mzort0qg9OW0EwFDM6M7tqtMjhtCc1UwODM6K7dKoPTltBMBQzOjO7arTI4bQnNVOBqcBd0zjKjmgNaxWMLMNc8uoDO9p++Hwc2oYCrwIGY/I873unFO+sYe1joeAel+/0ZnK6ChsozOEPC6zbL4HQVNFSewRkSXrdZBqeroKHyDM6Q8LrNMjhdBQ2VZ3CGhNdtlsHpKmioPIMzJLxuswxOV0FD5RmcIeF1m2VwugoaKs/gDAmv2yyD01XQUHlXgZv9bi1982tjhFRXnpdNj/UvikhXJeDVESMXVNH+muaIy3f1yKMBPfPD0vGuiXtm7aemyOxh+UJPsjM9tPKpDqFJCf+cFuCyhFCvPdKe8nM8rQpUIZ7xmHL0NR3WzCpwVXXNNGJ+lTVr1HMGZ5HHbsQh2+i+hXT9JTmWEpGniz+sp43fqd8PogL3224vPfW6+r0ukbX7UxicRZlo4C46M4umDmprKRF+6m0iGj6/kuoO+d61E35RnKnAffFzI81ZXRvICyinnpAROFd9yMokmjm0nepSwtLSYqqEGh4xSy4e3546FLWxFQf3R8C3MxW4979qoGUf1weKxPIPEsicxA9pAw4aDbmxgG67ItdWrnlra2lLRaRzIwuowC3fWE/rvgxOrdd1y6ExtxXKIsaOrgbX5eRM+mOPNyAezp8fpp6iGhpbaNi8Kjp8xD9N5mZ7fKNz934xfx41Fbi5a2rp85+CsFV5ZPlUHl0NrseFOT5wu0LEXzCqmE7pGHkP2vTDYVrwXl1A254X59Cvu7zUGriJb1TTNpFP2ijhBPUSThDw1x1soYI8D7Vp3ZmVxRN2dDW47l2z6Swxyso/OxgQxG5EzCivoa2/+x/3RuYpwpFZtK4ubD2nKvvQC1VUWRtcxN1yeS7t/K+Jfv7bS0e8LYSlyGnCWTn7lEwaIN5+V1xof48NdDIBH1wNrluXLBp5ayGNfrHKNwKgR6cOGbRwdHGYNDUH/WsxuYiGAwNHZujcSqpvCHqYVnDIj8W3/4WPYVUqT4ryPTSyTyFdIQICyTZXg+t6WibNEG73lDdrxLsbg6Np1gPt6JxThU9+1DZ800BL1gc9w35X5tHgG/JpwMzwiIgV3H/VzTRS/FPEY/BunxP32S6dgu3HUz7WvK4Gd8ZJmTRnRDv6ZGsDvfJBEEwfMZ092LsgoMHk5dW+qU0mzH2o2De9AVyoWcHh3jl9ZQ39KwBKgwN0dVk2tRdT4j9VzYR7596qoIODfOeXZtG0wdHXlLK+Yz26GpycFjHdDRce45Em/7RXXNCGXp3Q3uc07DvQTGMWBqfSziUZBHAoM2ROZZhuVnDyIsDhxyleUX+vS3Mp1BeBlzrjnVpCKC3UnhXgygTAZJmrwcERWCoAwRDdQJRD2uSBbemSs7Jo7ZZDtPLToPNyf698uv2qPJ/DAccj1OzAheZRff5zr5ceXxoeFhtxcwH1vsx+TamqJ540V4PLE2uxFU/4o/Bfb2uk51YFoyJw98f1K6RHFx+gHf/6p7LQ6MruyiYa/9KBMK2OFRzG+aDZldQovExpfbvn0tCbgtO1TE/U0dXgsH5aNcn/Im5rHBJQ4fI/LdZh0i4W8UykwVSj5FjBob5RwokJvRdiqfLEXbFtNaF8vOZqcPiy5WLfC2sp2JKP6mnDt8HwFNZXWHNJGytG4LViJMKwDoPTEmpWcF+KqRdLCWmYmi8/N9LVxzi7d1Zl4B6L/MkOjbke3NtPdqCcLD+4X3Z6adKycBhSdOTBnh1CXTDVvpwVHKZeTMHSMsTa+uVxkYFs1dYPXkWPnwcny9IKHEQau+hAhHuOdITHHr4jGByOBZzVsUE9fUUQe6gIZkuDJ4sdh+//CPcqnx+e3LVc2oFbtekgrdp0SOoaOE4SXualwsuUFgu4WrFvh8ccZGBali0pbuP7R8AoRgAa98tQQxgOi/BkWtqB2yO8xXEWbzF0XSfFjAUc8mIPb97augh4sh7rERutgHb6iZGBbmtenfO0AwcxrBF9lWseKzjU99c/XpolpkPVA0a4Lg2xygl3FBFiqMm2tAS3XsQml4bEJlX3m3jAAQIeGsIuBDzN0MA0rhWJrR3cQ7Gw79iWdwegieMMOwaYjrHVg3UkQJUUZxA8zlSaq0ZcKoVxelsMzumEbPrH4GyEcXoyg3M6IZv+MTgbYZyezOCcTsimfwzORhinJzM4pxOy6R+DsxHG6ckMzumEbPrH4GyEcXoyg3M6IZv+MTgbYZyezOCcTsimfwzORhinJycU3DODSqisc/Ke3nW6mKns38CZO5TNlZXm0jP3lQSueVqE4Wz15mpaI/5UdmePdtRf/LElV4GK7Q007e19ykZswUUrhJrKJ5YqK+TExCkQbZq0BYfm7YYprvGogwrJs9YGjvV2FZgq0aVo0yWuW6kjjU1fgWPRPQwcuhBt1MkuYvSVlfqf1WenRaoS3xEjrGLHYfpp+2FxDP4uQlWLdbQhTwS41uirKua05ClgN8tFgEMXGF7yQMRTsx001KEEhwvRPBxcZ0u+AqopUrZqCw4ZeORJmVJ7xEi7s4f4rXmUoEdUcOhua25qar9S+rcW67KrVXBSKoy+WDwgmZ+P8SkQKzBZa8zgZAGMQBhcWTZ9BbCsijYl2rUQNzi7ijg9tQowuNTqnbDWGFzCpExtRQwutXonrLX/AfB7r8w93JI5AAAAAElFTkSuQmCC;fontColor=#000000;" parent="1" vertex="1">
          <mxGeometry x="664.99" y="530" width="39.79" height="68" as="geometry" />
        </mxCell>
        <mxCell id="S-A4i8dgzAycLhjzWPdY-12" value="" style="shape=image;verticalLabelPosition=bottom;labelBackgroundColor=default;verticalAlign=top;aspect=fixed;imageAspect=0;image=data:image/png,iVBORw0KGgoAAAANSUhEUgAAAG4AAAC8CAYAAACZrZvfAAAMQWlDQ1BJQ0MgUHJvZmlsZQAASImVVwdYU8kWnluSkEBooUsJvQkiNYCUEFoA6UUQlZAECCXGQFCxI4sKrgUVC9jQVRHFDogFRRQLi2LviwUVZV0s2JU3KaDrvvK9+b65899/zvznzLkz994BQO0ERyTKRdUByBMWiGNDAujjklPopKcABeqABlyAKYebL2JGR0cAWIbav5d31wEiba84SLX+2f9fiwaPn88FAImGOJ2Xz82D+CAAeDVXJC4AgCjlzacWiKQYVqAlhgFCvFCKM+W4WorT5XivzCY+lgVxGwBKKhyOOBMA1UuQpxdyM6GGaj/ETkKeQAiAGh1i37y8yTyI0yC2gTYiiKX6jPQfdDL/ppk+rMnhZA5j+VxkRSlQkC/K5Uz/P9Pxv0termTIhxWsKlni0FjpnGHebuZMDpdiFYj7hOmRURBrQvxBwJPZQ4xSsiShCXJ71JCbz4I5AzoQO/E4geEQG0IcLMyNjFDw6RmCYDbEcIWg0wQF7HiI9SBeyM8PilPYbBJPjlX4QhsyxCymgj/LEcv8Sn3dl+QkMBX6r7P4bIU+plqUFZ8EMQVii0JBYiTEqhA75ufEhStsxhRlsSKHbMSSWGn8FhDH8oUhAXJ9rDBDHByrsC/Lyx+aL7YpS8COVOD9BVnxofL8YG1cjix+OBfsEl/ITBjS4eePixiaC48fGCSfO/aML0yIU+h8EBUExMrH4hRRbrTCHjfj54ZIeTOIXfML4xRj8cQCuCDl+niGqCA6Xh4nXpTNCYuWx4MvAxGABQIBHUhgTQeTQTYQdPY19sE7eU8w4AAxyAR84KBghkYkyXqE8BoHisCfEPFB/vC4AFkvHxRC/uswK786gAxZb6FsRA54AnEeCAe58F4iGyUc9pYIHkNG8A/vHFi5MN5cWKX9/54fYr8zTMhEKBjJkEe62pAlMYgYSAwlBhNtcQPcF/fGI+DVH1ZnnIF7Ds3juz3hCaGL8JBwjdBNuDVJUCz+KcqxoBvqBytykf5jLnArqOmGB+A+UB0q4zq4AXDAXaEfJu4HPbtBlqWIW5oV+k/af5vBD09DYUd2IqNkXbI/2ebnkap2qm7DKtJc/5gfeazpw/lmDff87J/1Q/Z5sA3/2RJbiB3A2rGT2DnsKNYI6FgL1oR1YMekeHh1PZatriFvsbJ4cqCO4B/+hp6sNJP5TnVOvU5f5H0F/GnSdzRgTRZNFwsyswroTPhF4NPZQq7jSLqzk7MLANLvi/z19SZG9t1AdDq+c/P/AMCnZXBw8Mh3LqwFgH0ecPsf/s7ZMOCnQxmAs4e5EnGhnMOlFwJ8S6jBnaYPjIE5sIHzcQbuwBv4gyAQBqJAPEgGE2H0WXCdi8FUMBPMA6WgHCwDq8A6sBFsATvAbrAfNIKj4CQ4Ay6AS+AauANXTw94AfrBO/AZQRASQkVoiD5iglgi9ogzwkB8kSAkAolFkpE0JBMRIhJkJjIfKUcqkHXIZqQW2YccRk4i55Au5BbyAOlFXiOfUAxVQbVQI9QKHYUyUCYajsajE9BMdApahJagS9A1aA26C21AT6IX0GtoN/oCHcAApozpYKaYA8bAWFgUloJlYGJsNlaGVWI1WD3WDJ/zFawb68M+4kSchtNxB7iCQ/EEnItPwWfji/F1+A68AW/Dr+AP8H78G4FKMCTYE7wIbMI4QiZhKqGUUEnYRjhEOA33Ug/hHZFI1CFaEz3gXkwmZhNnEBcT1xP3EE8Qu4iPiAMkEkmfZE/yIUWROKQCUilpLWkXqYV0mdRD+qCkrGSi5KwUrJSiJFQqVqpU2ql0XOmy0lOlz2R1siXZixxF5pGnk5eSt5KbyRfJPeTPFA2KNcWHEk/JpsyjrKHUU05T7lLeKCsrmyl7KscoC5TnKq9R3qt8VvmB8kcVTRU7FZZKqopEZYnKdpUTKrdU3lCpVCuqPzWFWkBdQq2lnqLep35Qpak6qrJVeapzVKtUG1Qvq75UI6tZqjHVJqoVqVWqHVC7qNanTla3Umepc9Rnq1epH1a/oT6gQdMYrRGlkaexWGOnxjmNZ5okTSvNIE2eZonmFs1Tmo9oGM2cxqJxafNpW2mnaT1aRC1rLbZWtla51m6tTq1+bU1tV+1E7WnaVdrHtLt1MB0rHbZOrs5Snf0613U+6RrpMnX5uot063Uv677XG6Hnr8fXK9Pbo3dN75M+XT9IP0d/uX6j/j0D3MDOIMZgqsEGg9MGfSO0RniP4I4oG7F/xG1D1NDOMNZwhuEWww7DASNjoxAjkdFao1NGfcY6xv7G2cYrjY8b95rQTHxNBCYrTVpMntO16Ux6Ln0NvY3eb2poGmoqMd1s2mn62czaLMGs2GyP2T1zijnDPMN8pXmreb+FicVYi5kWdRa3LcmWDMssy9WW7ZbvraytkqwWWDVaPbPWs2ZbF1nXWd+1odr42UyxqbG5aku0Zdjm2K63vWSH2rnZZdlV2V20R+3d7QX26+27RhJGeo4UjqwZecNBxYHpUOhQ5/DAUccxwrHYsdHx5SiLUSmjlo9qH/XNyc0p12mr053RmqPDRhePbh792tnOmetc5XzVheoS7DLHpcnllau9K991g+tNN5rbWLcFbq1uX9093MXu9e69HhYeaR7VHjcYWoxoxmLGWU+CZ4DnHM+jnh+93L0KvPZ7/eXt4J3jvdP72RjrMfwxW8c88jHz4fhs9un2pfum+W7y7fYz9eP41fg99Df35/lv83/KtGVmM3cxXwY4BYgDDgW8Z3mxZrFOBGKBIYFlgZ1BmkEJQeuC7gebBWcG1wX3h7iFzAg5EUoIDQ9dHnqDbcTmsmvZ/WEeYbPC2sJVwuPC14U/jLCLEEc0j0XHho1dMfZupGWkMLIxCkSxo1ZE3Yu2jp4SfSSGGBMdUxXzJHZ07MzY9jha3KS4nXHv4gPil8bfSbBJkCS0JqolpibWJr5PCkyqSOoeN2rcrHEXkg2SBclNKaSUxJRtKQPjg8avGt+T6pZamnp9gvWEaRPOTTSYmDvx2CS1SZxJB9IIaUlpO9O+cKI4NZyBdHZ6dXo/l8VdzX3B8+et5PXyffgV/KcZPhkVGc8yfTJXZPZm+WVVZvUJWIJ1glfZodkbs9/nROVszxnMTcrdk6eUl5Z3WKgpzBG2TTaePG1yl8heVCrqnuI1ZdWUfnG4eFs+kj8hv6lAC/7Id0hsJL9IHhT6FlYVfpiaOPXANI1pwmkd0+2mL5r+tCi46LcZ+AzujNaZpjPnzXwwizlr82xkdvrs1jnmc0rm9MwNmbtjHmVezrzfi52KK4rfzk+a31xiVDK35NEvIb/UlaqWiktvLPBesHEhvlCwsHORy6K1i76V8crOlzuVV5Z/WcxdfP7X0b+u+XVwScaSzqXuSzcsIy4TLru+3G/5jgqNiqKKRyvGrmhYSV9ZtvLtqkmrzlW6Vm5cTVktWd29JmJN01qLtcvWflmXte5aVUDVnmrD6kXV79fz1l/e4L+hfqPRxvKNnzYJNt3cHLK5ocaqpnILcUvhlidbE7e2/8b4rXabwbbybV+3C7d374jd0VbrUVu703Dn0jq0TlLXuyt116Xdgbub6h3qN+/R2VO+F+yV7H2+L23f9f3h+1sPMA7UH7Q8WH2IdqisAWmY3tDfmNXY3ZTc1HU47HBrs3fzoSOOR7YfNT1adUz72NLjlOMlxwdbiloGTohO9J3MPPmodVLrnVPjTl1ti2nrPB1++uyZ4DOn2pntLWd9zh4953Xu8HnG+cYL7hcaOtw6Dv3u9vuhTvfOhoseF5sueV5q7hrTdfyy3+WTVwKvnLnKvnrhWuS1rusJ12/eSL3RfZN389mt3Fuvbhfe/nxn7l3C3bJ76vcq7xver/nD9o893e7dxx4EPuh4GPfwziPuoxeP8x9/6Sl5Qn1S+dTkae0z52dHe4N7Lz0f/7znhejF577SPzX+rH5p8/LgX/5/dfSP6+95JX41+HrxG/0329+6vm0diB64/y7v3ef3ZR/0P+z4yPjY/inp09PPU7+Qvqz5avu1+Vv4t7uDeYODIo6YI/sVwGBFMzIAeL0dAGoyADR4PqOMl5//ZAWRn1llCPwnLD8jyoo7APXw/z2mD/7d3ABg71Z4/IL6aqkARFMBiPcEqIvLcB06q8nOldJChOeATeyv6Xnp4N8U+Znzh7h/boFU1RX83P4L1Dd8fKcDh3UAAACKZVhJZk1NACoAAAAIAAQBGgAFAAAAAQAAAD4BGwAFAAAAAQAAAEYBKAADAAAAAQACAACHaQAEAAAAAQAAAE4AAAAAAAAAkAAAAAEAAACQAAAAAQADkoYABwAAABIAAAB4oAIABAAAAAEAAABuoAMABAAAAAEAAAC8AAAAAEFTQ0lJAAAAU2NyZWVuc2hvdKh2xj4AAAAJcEhZcwAAFiUAABYlAUlSJPAAAAHWaVRYdFhNTDpjb20uYWRvYmUueG1wAAAAAAA8eDp4bXBtZXRhIHhtbG5zOng9ImFkb2JlOm5zOm1ldGEvIiB4OnhtcHRrPSJYTVAgQ29yZSA2LjAuMCI+CiAgIDxyZGY6UkRGIHhtbG5zOnJkZj0iaHR0cDovL3d3dy53My5vcmcvMTk5OS8wMi8yMi1yZGYtc3ludGF4LW5zIyI+CiAgICAgIDxyZGY6RGVzY3JpcHRpb24gcmRmOmFib3V0PSIiCiAgICAgICAgICAgIHhtbG5zOmV4aWY9Imh0dHA6Ly9ucy5hZG9iZS5jb20vZXhpZi8xLjAvIj4KICAgICAgICAgPGV4aWY6UGl4ZWxZRGltZW5zaW9uPjE4ODwvZXhpZjpQaXhlbFlEaW1lbnNpb24+CiAgICAgICAgIDxleGlmOlBpeGVsWERpbWVuc2lvbj4xMTA8L2V4aWY6UGl4ZWxYRGltZW5zaW9uPgogICAgICAgICA8ZXhpZjpVc2VyQ29tbWVudD5TY3JlZW5zaG90PC9leGlmOlVzZXJDb21tZW50PgogICAgICA8L3JkZjpEZXNjcmlwdGlvbj4KICAgPC9yZGY6UkRGPgo8L3g6eG1wbWV0YT4Kbq6ZBgAAABxpRE9UAAAAAgAAAAAAAABeAAAAKAAAAF4AAABeAAADX910R+IAAAMrSURBVHgB7JhBTttAAEWHRQXtAhaVWJJ14QxwCRBS1fYiVVFVIfUiBSEhuAScAboOS3awKVUXbcbQKHHIZGz9/GTIs4QgxP5//J7H42Tpb28LbMURWEJccc6qASOuTG8BcYgrlEChw2bGLYK4s8u76jR/dn+H65uHQk95foa9ubFSDWZ3e7X6vdl5fJ0zwqwZF4WdP0nLCWWfdgSiyCgxR2BS3HX3oSfsntnVzkPro3a318Je7ye1jRXHLEthm/57k+Q9Ky7OtMPj2+mPjoYkgZS8Z8W9/36TDORNH4Fx8kbEHR7dZq1pcSF911n2ncELaopP5XHLfTI/+bwxcvZD4nJukeOugJFk/pFFoC3zIXGTZhvSsly02mkS+/qsGxKXWtuQ1spHo4Oa8O+LS03ZuJ4dfFxvNAh2bk4g9RGsPnH64lIHHXxYz/o033yoHFEnMG7W1ScP4urkZvw6tdYNrnNZ4gYPmPF5vfh6xBWqGHGIC4Fbpe8qYMb5WEubECfF6QubqbivP+7DVfeP72znuOnbp9Ww1XmVPcKZiYvCoji2RwL7O2/C/s7rbBxzIS5ebYu6nV78qu46RYo7+/J2Ub1Vd51490FcYZfA/3UecYgb+jwt/65y8OGEWyW3ysLmW2CNK87Y04BZ4wo1hzjE9QkMftnPw0kfi/YPZpyWpy0NcTbU2iLEaXna0hBnQ60tQpyWpy0NcTbU2iLEaXna0hBnQ60tQpyWpy0NcTbU2iLEaXna0hBnQ60tQpyWpy0NcTbU2iLEaXna0hBnQ60tQpyWpy0NcTbU2iLEaXna0hBnQ60tQpyWpy0NcTbU2iLEaXna0hBnQ60tQpyWpy0NcTbU2iLEaXna0hBnQ60tQpyWpy0NcTbU2iLEaXna0hBnQ60tQpyWpy0NcTbU2iLEaXna0hBnQ60tQpyWpy0NcTbU2iLEaXna0hBnQ60tQpyWpy0NcTbU2iLEaXna0hBnQ60tQpyWpy0NcTbU2iLEaXna0hBnQ60tQpyWpy0NcTbU2iLEaXna0hBnQ60tQpyWpy0NcTbU2iLEaXna0hBnQ60tQpyWpy1t2uL+AQAA//+odvKPAAAIxElEQVTtnAmMFEUUht+w9wUL6IrXonig64EmikeCqKgoIpqIIqKAAoZbNJ6AkMipgYAIKoIKoqwSIDF4gJhoIMRbYoyr4glyibLLXrAss7vWP0PN0VM9O0PNTHUP7yWbnq6ua/5vq/rVq572tAgjYas3V9Ma8aey8omlqmRl2o/bj9DUFTW+a6snd1TmOR4SoQG0uPuafPGXF/NXnvbWPqrY0aDMH8rBw+CUGmknMjhtCc1UwODM6K7dKoPTltBMBQzOjO7arTI4bQnNVMDgzOiu3SqD05bQTAUMzozu2q0yOG0JzVTA4Mzort0qg9OW0EwFDM6M7tqtMjhtCc1UwODM6K7dKoPTltBMBQzOjO7arTI4bQnNVOBqcBd0zjKjmgNaxWMLMNc8uoDO9p++Hwc2oYCrwIGY/I873unFO+sYe1joeAel+/0ZnK6ChsozOEPC6zbL4HQVNFSewRkSXrdZBqeroKHyDM6Q8LrNMjhdBQ2VZ3CGhNdtlsHpKmioPIMzJLxuswxOV0FD5RmcIeF1m2VwugoaKs/gDAmv2yyD01XQUHlXgZv9bi1982tjhFRXnpdNj/UvikhXJeDVESMXVNH+muaIy3f1yKMBPfPD0vGuiXtm7aemyOxh+UJPsjM9tPKpDqFJCf+cFuCyhFCvPdKe8nM8rQpUIZ7xmHL0NR3WzCpwVXXNNGJ+lTVr1HMGZ5HHbsQh2+i+hXT9JTmWEpGniz+sp43fqd8PogL3224vPfW6+r0ukbX7UxicRZlo4C46M4umDmprKRF+6m0iGj6/kuoO+d61E35RnKnAffFzI81ZXRvICyinnpAROFd9yMokmjm0nepSwtLSYqqEGh4xSy4e3546FLWxFQf3R8C3MxW4979qoGUf1weKxPIPEsicxA9pAw4aDbmxgG67ItdWrnlra2lLRaRzIwuowC3fWE/rvgxOrdd1y6ExtxXKIsaOrgbX5eRM+mOPNyAezp8fpp6iGhpbaNi8Kjp8xD9N5mZ7fKNz934xfx41Fbi5a2rp85+CsFV5ZPlUHl0NrseFOT5wu0LEXzCqmE7pGHkP2vTDYVrwXl1A254X59Cvu7zUGriJb1TTNpFP2ijhBPUSThDw1x1soYI8D7Vp3ZmVxRN2dDW47l2z6Swxyso/OxgQxG5EzCivoa2/+x/3RuYpwpFZtK4ubD2nKvvQC1VUWRtcxN1yeS7t/K+Jfv7bS0e8LYSlyGnCWTn7lEwaIN5+V1xof48NdDIBH1wNrluXLBp5ayGNfrHKNwKgR6cOGbRwdHGYNDUH/WsxuYiGAwNHZujcSqpvCHqYVnDIj8W3/4WPYVUqT4ryPTSyTyFdIQICyTZXg+t6WibNEG73lDdrxLsbg6Np1gPt6JxThU9+1DZ800BL1gc9w35X5tHgG/JpwMzwiIgV3H/VzTRS/FPEY/BunxP32S6dgu3HUz7WvK4Gd8ZJmTRnRDv6ZGsDvfJBEEwfMZ092LsgoMHk5dW+qU0mzH2o2De9AVyoWcHh3jl9ZQ39KwBKgwN0dVk2tRdT4j9VzYR7596qoIODfOeXZtG0wdHXlLK+Yz26GpycFjHdDRce45Em/7RXXNCGXp3Q3uc07DvQTGMWBqfSziUZBHAoM2ROZZhuVnDyIsDhxyleUX+vS3Mp1BeBlzrjnVpCKC3UnhXgygTAZJmrwcERWCoAwRDdQJRD2uSBbemSs7Jo7ZZDtPLToPNyf698uv2qPJ/DAccj1OzAheZRff5zr5ceXxoeFhtxcwH1vsx+TamqJ540V4PLE2uxFU/4o/Bfb2uk51YFoyJw98f1K6RHFx+gHf/6p7LQ6MruyiYa/9KBMK2OFRzG+aDZldQovExpfbvn0tCbgtO1TE/U0dXgsH5aNcn/Im5rHBJQ4fI/LdZh0i4W8UykwVSj5FjBob5RwokJvRdiqfLEXbFtNaF8vOZqcPiy5WLfC2sp2JKP6mnDt8HwFNZXWHNJGytG4LViJMKwDoPTEmpWcF+KqRdLCWmYmi8/N9LVxzi7d1Zl4B6L/MkOjbke3NtPdqCcLD+4X3Z6adKycBhSdOTBnh1CXTDVvpwVHKZeTMHSMsTa+uVxkYFs1dYPXkWPnwcny9IKHEQau+hAhHuOdITHHr4jGByOBZzVsUE9fUUQe6gIZkuDJ4sdh+//CPcqnx+e3LVc2oFbtekgrdp0SOoaOE4SXualwsuUFgu4WrFvh8ccZGBali0pbuP7R8AoRgAa98tQQxgOi/BkWtqB2yO8xXEWbzF0XSfFjAUc8mIPb97augh4sh7rERutgHb6iZGBbmtenfO0AwcxrBF9lWseKzjU99c/XpolpkPVA0a4Lg2xygl3FBFiqMm2tAS3XsQml4bEJlX3m3jAAQIeGsIuBDzN0MA0rhWJrR3cQ7Gw79iWdwegieMMOwaYjrHVg3UkQJUUZxA8zlSaq0ZcKoVxelsMzumEbPrH4GyEcXoyg3M6IZv+MTgbYZyezOCcTsimfwzORhinJzM4pxOy6R+DsxHG6ckMzumEbPrH4GyEcXoyg3M6IZv+MTgbYZyezOCcTsimfwzORhinJycU3DODSqisc/Ke3nW6mKns38CZO5TNlZXm0jP3lQSueVqE4Wz15mpaI/5UdmePdtRf/LElV4GK7Q007e19ykZswUUrhJrKJ5YqK+TExCkQbZq0BYfm7YYprvGogwrJs9YGjvV2FZgq0aVo0yWuW6kjjU1fgWPRPQwcuhBt1MkuYvSVlfqf1WenRaoS3xEjrGLHYfpp+2FxDP4uQlWLdbQhTwS41uirKua05ClgN8tFgEMXGF7yQMRTsx001KEEhwvRPBxcZ0u+AqopUrZqCw4ZeORJmVJ7xEi7s4f4rXmUoEdUcOhua25qar9S+rcW67KrVXBSKoy+WDwgmZ+P8SkQKzBZa8zgZAGMQBhcWTZ9BbCsijYl2rUQNzi7ijg9tQowuNTqnbDWGFzCpExtRQwutXonrLX/AfB7r8w93JI5AAAAAElFTkSuQmCC;fontColor=#000000;" parent="1" vertex="1">
          <mxGeometry x="10.209999999999994" y="542" width="39.79" height="68" as="geometry" />
        </mxCell>
        <mxCell id="S-A4i8dgzAycLhjzWPdY-13" value="" style="shape=image;verticalLabelPosition=bottom;labelBackgroundColor=default;verticalAlign=top;aspect=fixed;imageAspect=0;image=data:image/png,iVBORw0KGgoAAAANSUhEUgAAAMgAAADICAYAAACtWK6eAAAABHNCSVQICAgIfAhkiAAAAAlwSFlzAAALEwAACxMBAJqcGAAAFkJJREFUeJztnWmwHcV1gL/73sNIaAkIA1pAgLAgSCmIWQVICBMWJXGMSWwZXHEZkxiwWcRiIDFgFuPY2DJbCGJJnNiJE2QESVFUESvggAQSIJnYYTFgNiO0mi1oZXnv5cd5F11dTZ/ZemZ67jtfVZdUb+b0nDvTZ6b79Ok+DfKxLfCnwKeBA4CxwHY56zSMPHwArACWAv8O3Am8W4UiM4FXgH4rVgIuryFttTS6ges8/wgrVoouNyFtNxWpBRDjODeDnGFUySHAKOC+NEJpDeQk4HspZQwjFA4BngaeSSrQSFH5EOA5YHxKpQwjJJYBHwPeS3JyT4qK/wzdODYAC4D/S1GnYfhmJDAdtzd1N8TzeofvC9+JewD0ELCT7wsaRkZ2Bhbibq9zi7joS46LrceMwwiPXZBeTVSbfcH3xRrAJsfFUnkFDKNE5hPdZjckraAr4XndyKx5FDbmMELlHcffP5K0gqQGYhiDEjMQw1BI4+b1fd2jgKnABGSO5S1kEuenyHxLFvYFTgfGAI8Bc4CNMTIjgK8AByFxO3OAX8fINJAAzROBPmAecG9C/c4ARg/odwvx/eERwDnAwUgQ3k3ET3Q1kPijE5A+911I4F5/Cv2WIPdifYzMcOA0ZBJuJfKbsj6/ycBxwCRge2Tc+xLikXoQCUQMkh7cLrM0/uQe5GEvV+pruo0PT6njNLZ2JPwcGKrIDAP+t01mPXBYzLW+E6HzlTEyR2bQb0SEfhsT6HdthH5Xx8hMG6i7XT8tOnt4hH4bEujXznRgUYTOrWU5cBbpXurzHHV5NzQfBjIWeFSpJ6r8Dcm7gY876jhLkTnfIfOwIrOXQ6YXfSJ1SQb9LnTIPKLITFT021WR+7lDbpYic4FDZqEi00o38H1HHa6yCOkhJKE2BjIW9zxKXPkH4kNiupCuTpT8jxS5Oxwy2vqBzyq6nuCQ6c6o31yHzCZFZqai36ccMl2KzD971q/1mj9WrquVF0lmJLkNpIxBeg9wN7BnRvlT0d9iID96tePYa4qc69hvFJmVyjGXXB+wxnFsmVKf65im3wrl2KuOv/cpdbpkwH3PtXvU5GLg8wnOi2ICEtmRJRq9EPJ8Qc5RZJOWDejdAxAjapdbC+yuyExAxhztcqcrMl1IF6dd5gH0L51LP61bVqZ+Z2fQb2IG/UC6qe9FyKUtZ8RcJ/guVg/xA/Kk5doYHRvAmYgHaiPSIA5K8NsORTwkG4HnkYcb16UbBdwGvIl4334w8Lek+r2HNOJDE+h3OLCYzR6dsxPo91Gk6/b2gI5zEK9QnH7nI6tENyHjsDT6vUvy+zeH+Oft6pK2lt+gf0WCN5BjFLl+YDYyPukGpiCuT9e5q0gXnm+ESQ/yUnE954eRF1sX0mu4UTm3H/EOugjeQK5Q5GZHnD8cfTC/d+5fYlTNfrif77NEu5X/TpG5RLlW8IP0CcqxqC7TOqTrkqU+ox5ozhrXxKnWvS60TRRtIEOUYy4PiOaF0eoz6oH2DFc5/q55xbSJ1twUbSBvKcdcA+hDFJk3cuhihMHbyrGDHX/X2sSbOXTxRtYxiObifRQZc7QyBfGGuGR29PJrjCoZh/v5bmDrF+dI4AlFRnP15h6DFB2s+FPl2KHAL5Exx0rkLfFl3LH6S4j/gjSQOKCxyM56ryTUczdk8LgC+AVyE+MYhhh0P+LmjAuKbNVvHPJ7kuq3F3AgMrG5uED9uhC37VgkdKcI/ZYjwZaTIo4NRcJUbkee3zjEbby7Ut/8hDoWSp6JwocU2TTlL2KuszNbBrz1AVfFyDSAb7Olz30h8XMaxwKvt8isRqKTi9DvGra8Dw8DOxSkX2s8W5H6RU2aZin/FXOd4N28IG+kvDfiaWCbmOv8q0P2DxWZExwyP1BkRiL93naZNeiRry79ZmTQ7x9rrB/Il+JFh2zS0kf8RHAtDAQkKjfrjdiIbIyt0WDrUO1muV2R+6FDRhtI/omi67El6actcw5dvyaHky/c5PIE1wh+HqTJpehvZRebkP24nog5r4F7lr1PkXMd025gb4b6NP2y1Fdn/ZosQnbqfD/Bue3MIb77Vyo+1oM0kD19XVuxtJenif9ytPIvjnqOU2RmOGRuVWSGIX36dplV6D55l36ut7qm3y011q+dKUh8WpI2sQ74KslDjmrTxWplV2RmdJWjvseRAXncmKOdUWzpEPgA+EYCuSsHzm3K/Yz4wL6j2vRfhSwfTqvfZRn0m4+MM+qsXzvbIg3/f4huE8uRPaGTLpRqkttAklpiD+5P4VzkU5mWBhIu3VyT/gbi/sszGdgAPo4Y4VL0WflWxiFfq2WI67k/gcx2bHZALCK5m/fjA9dbSrJ1E039DkTWZnSKfi52QVzAOyCh9C+yeUCflnlIF72dXjxPcfj8ghhGWdRmkG4YtcQMxDAUzEAMQ8EMxDAUzEAMQ8EMxDAUzEAMQ8EMxDAUzEAMQ8EMxDAUzEAMQ8EMxDAUzEAMQ8EMxDAUysxR2E36zaeb5ydZC9Cb8DzD8E6e9SBH4E4/5rNsQLIhxW3ZYxRPD3AKklZiLcU/ex9lBZIy4sCsPziLgexD8jXovsoCLE1ClYwhfS7KkEofkvA0VRvKaiDXV/QjXXu8GsUyAtlso+pG7qNcBcUP0uPSphXF2IquO9i5gugtRevIpcD+nejF6kVSGhvlsh1wWtVKeKQBzOpEA7kcPbOtUQwHs/Vu/XXn6DLdvO3Mdfx9d2QzsSgW4U6N/A6SGjhuQ2OjGEYrx7TnVjTdyO7zoxCH0YvIdkKtTEW2LmoncVc96yA9y7YrJynX+kxShY3SqfNzc7bTTuxiGYY3zEAMQ8EMxDAUzEAMQ8EMxDAUqnTzZuEC3DvJr0O8EfeWp47hiX2RbLVRrtYkLANuRvKMeKVuBuKaH2nyRSRfxRXFq2J4YhqSU2RIznpOA44GHsutUQshdrF2zil/GTDehyJGKVxPfuMACXWZ7aGeLYj6ggxFsoeOYbMBdSt1jMfd7dktg057ZpBppQtJAvNqzno0GsBkYG/ced1D4V3geSQ5UX/FurTTTbo0e3HEZb1NTauBDEfimM4gXUzNYQPFF295qGO5hzqiaAAnI924jxV0jaJ4Dvm63lm1Ii30Ilms0qZWc1HUc2c08BTlxdprmWdPzln3AxSzYKoLGQhWvU4hb7meYu5P1lCT8zL+jqhyekbd1ZCobmCxRyWTFhfaje4dUDqqvIlkp/2dLHcoARcpetWtzPJ8byC7gTSAs4CXcD/buPICYhxZDV81kC8qPyw0A6kq6G0nyl86XGRZiyTJ9EmIzy0parDiKdXpVRtmoucYrxvDic7+arTRRcZdHAYZnXiPvHt8OpEeZKF9FIuA69r+1kAWn+yA9BnjcprfSmdswzPS8fd+5OsSKt241+tsX6YidUWbSV+G9M3ycH1O+dDpI/89KpK6RUoER4gz6YYRDHV7wxyBW+d1yE5+60rTxuh46mYg58Ycfx1xKT5Ugi7GICDELlYed+pHkVCKYZ50MQY5IRrIvjnld0K2cTHqRQPp0WQphRGigfhAm6k3wqKBhPGsBN7PWFYgMV3eY8xCHIM8k1N+FfCwD0WMUrgQuCZnHWOAaxFjuSm3Ri2E+AXZlEN2FRJCscGTLkaxNIDzPdbnsy4gzC+IxveR3BNRvIN8Ocw46kMXsIvH+nytK/mQuhnIo4Q9cx0aoY/FeoGl+IsLe9xTPR8SYhfLGFzMws9Xfx3WxTI6kEXA/siuJFk323gFCYx92ZNOH2IGYoTAC4irNzisi2UYCnX7gnTj1tnypBveqdsX5A7cs6mWJ93wTogGkjVcYAjw58B/5KjDMLYgRAPZO6f8NCxPuuGJEMcgPraj8T6jasSijf++hnt72qLpASYg7WoTksSzfVGda2fQvhAN5KWc8pYnfTNlOi1WKscOHSghkGbL2OUhdrHW5JS/HMuTXgVLkA3pOon7Q/yCaFie9HDZCMwh0Am/DPQBN9bNQK7DghVD5ipgBrBf1Yp44ArgyRC7WEZ9WQ8cCyysWpEc9AHfAK6GML1YRr1ZAxwFfA7Z9/kgittxP44u3HNivS3/70Nyi9wP3Ag82TxgBmIUQR/wbwOlSuYRvUl3LwnbvnWxDEPBDMQwFOrWxbI86Uap1M1AkuRJvwqZLDQs/D83IXax8u5ycSmWJ93wRIgG4itPumHkJkQDedNDHYXlyzYGFyEayK9zyv8Mi+Y1PBHiIF0bWPYpx5vBihcp5xhGKkI0EI3PYcGKRomE2MUyjGAwAzEMhR6kvx4V8TiVrbszI5D1vUMQb9PLwAdK/Tt60DEE+hx/7ybsLp+2u0uvcswYoAfJzjMu4tg4oiMhm+xKZyyMScIK5Zh2j0LGXOEJ6AIeqFqJGtCJ96gTf5N3eoAbgC9Qj83WqsqTfh/wHLBPAXVXwZPY2v1UfBMZi5RZXJyUo87fAtNz3Qk3U5B9lcq+T77LBuBAz/cmVOYRfQ+0cXMkDeBKNk/EFV20AeKXcta9huLypB89UH/VjTxrWYnsPDlY8GYgTfYH/h7xTr03UFGzuG56X9t5rcVlcJqC31WulbQcn/UGJGAUcBnwBLJJgeu3h1LWIWnOvg5sX8D9CBnvBuKi6Q6OKnd4VtCHgRyX/icaHUhuAwlxotDypBvBEKKBWJ50IxjqFqxoedKNUqmbgViedKNUQuxiGUYw1O0LYmzJaOAAYGSJ13wfiSp4GvEIdTRmIPVkMjAb2Um9Kp5H5oN+UqEOhWNdrPrxSWTir0rjAMklORfZ7LkOcXyZqOoL0lCu3a3IDfY86ZORdfdDqlakhbORtHnXV61IlfieSS+ibKTz86TfR3n3M01ZS5j3vSNn0rPS6XnSx1B9t8rFcOq7cEylkwykSafmSQ99t8iDqlagCIoeg1S17rkT86RrrtxrgcUl6NCNu0tdVRapQinaQJYAMwu+RjuDMU/6YsqJMBh00wJFd7HmIOsmyuRyLE+64Ymi3wjrkTHBl5FxQZrrjUF2TgHJjb4q5nzLk254p4xP5gZkYwjDqB2d6MUyDG+YgRiGghmIYSiYgRiGghmIYSiYgRiGghmIYSiYgRiGghmIYSiYgRiGghmIYSiYgQxetLX/xgCDwUB2Br6FbIqtpXEou6wAfkT5yWymIetlPhjQ4Tw6c4lyqWTdtKFqZiDZeKs2Bq30AVcT30i1zFufSXg/9kU2t2iXPyuhfN3agW3aoDAVuAfYoWpFYmgAlyAZvormDKK3DDq/hGvXkqqWUG4DfAJpxHsiD+1t4ClgPvArD/X/08C/deFS4C7glwVeIyrdN8D4Aq+ZhslI8qNJSDasTcieWwuRBK3eM0PFUbaBbAOcCVyEvrHCw8BfAY9kvM4ngb0yylZFA5gFnFq1IhUwHfg2cJhyzoqBc26hREMps4u1K9LwryN+15GpA+d+h2w6Hp1BJgTqqndWupGcLw+iGwfAWOBvgQWUuGtNWV+QXZHP5B4p5S4GdkHeqv0p5EYrx+am1KEIphLd3RlbtiIV0oV48T6fUu4w5OU5FcnaWyhlGMg2SN96j4zypyCJ769NIePyCPUi3qCqmUf0ToSd7DRp52LSG0eTCcgGHdMpeO+1Mh7ImcAhOev4FuEMJI387EV+r90RyG45hVK0gWyDDMjjiOs+DcFckZ3E14j3MCbpUv81BUcEFG0gn0AfUM1G+t09wBTgMeXckxlcXZBOpQe9m/sIm/dQ2w0ZmLsYj3xJCqPoBjdVOTYbuBAZaPUhxnEM4veOYmdgolftjCpoznFE8RwyD7IUaROvAecANyv1TfOqXRtFG8ieyrGoQfc64DZFZkI+dYwA0NrELUSn8dYcNIW2iaINxJUJqR9Y7Timue6G5lPHCAAtO5Zre9nK2kTRBvK24+8N3PkkNI/X6/nUMQLA1SbAnddFaxNv5tAllqIN5Cnl2A1IZqJWpgB/qcg8k1sjo2q0NvEVtn5xjkTvYmn15aboicL5yrEpSGDebcgn9BDEOLZ1nL+Ucr4gI5EJqH4kBGJdApku4HDEY7cUeLko5RycChyZ4Lzfd/y9C8lWG4ePF+py5EU3KeLYUCTi4nbkPo4DTgd2V+rT2lhp5FkHsFCRTVPSTAplXQdwDFuuH/ktYiwaOyEeuNb1Hd8sQD9tPUgIJc16kFmerhmX6iL3epCk5DGQIxTZpOUZ0oWuZ7kxI4leXLUGGKbI3eG41h951u9LDplQygJF93aGAi/mvF4f8XkRa7Fg6hHgmhzym4AvAO/7UcfJdKIXV+2Eez6nC/i049iJPpRqYV/P9fnGtdYkio3kf6ZXIt2wQilrZvrryAKmtGwCPks5OQe1r8QIx9+7cI+ZXDKGsAjpNmYxkjnAVX7ViaYsA+lDBpIXII0+Cb9C3tz3FqVUzci7yrJolmWQuRtxLryQ8Pz1SPDrmUhXqXDKjG3qR9x1+yAu3jWO85YCpwH7M/iy1WpsrFqBGOJySLp4FPg9pNH/wnHOCiQ0aSISdlKKcUA1a9JfBc5FonMnIqECQxEX7jPYZGAW7kXimJIyEoltW4s7osHFBSnPT8K7SMO/GVkgNwkZD65HBvPNAX3pVJn3ug95qGkerBHNDyknTzoUYyCtrCa90RaGhY8bhoIPA7Fd+YxQyd02kxpIL253XKcshX1VOfaK4+/N7TvTyBjlsYfj7+uTVpDUQPqRgVIUU0gWBxQ6jxK9D9d/o3vTvhvxt3XArT6UMjJzDHCA45irLW9FmkH6AuB3HcfuQdYZ3w28k6LOosjyae0DPoXs03TiQB13Ir9L86DcOCB7HjKb/NjA/1/OoAO4n0nou7E3qNbp09RhJDK5HPXiapImLCYxR1J9vE/eUvrWlQ5cMUJZS9LNq31Q9TP0UVzrTrYizSB9IQVZXomE4lDwHYYSyu+qA/8JLEl6choD6Udi86PWDNeFUNzavtdRl7UPcd0NcS3JUz0A6RvMs8j2O6F0VeqKti47C2WleAjlBZOF94CZpBigQ7YffA/wx8AbGWSrppJwhQje8lyfa6sk3xS6zWeBrAGOR7pXqcj6RpiPxMvMIXl0bgiEYiC+G3QdX1ZlsBHxMk5Clk+nJo9bbg3wVWT7x+OR1V1jCCNpzRHIjvLthGIgri5qP/ATx7HxxKcIqJJXgcVVK4FMaC9HosLnE8a0Q3CUthY5I77XpIfg5g0xR2Fu6jzoMozCqXrms2xCmO2F+r6Y6u7mTU0IjaUIXIGVXcqxEHhXOaZ1v9o34CsK16bTEPZ9zUxd32Rx1HUR1rPKMVfUMJQ3BpmpHFtekg6GB/aj+nifLOUS5TcNQya7XLJXUGyP4BjEIxSCo6A0OrlPeSf1emirkWhpbXPne5FJWhevAU/gt7vTQNZVuELHQeYbRmMu1VoxCnia6r8KScoGkq2p+YMAdI0qNyTQ3QiQUbi3Bg2lPAkcmOI33RWAzq1lNbBjCv1rRSd3sVqZjGwRug/wkYp1AVlgtRy4f6CkiXEahcxY712AXml5H0mZ9mDFehjGFoxDUkdU+eV4B5hR9A81jKxsB3wPmTsp2zjuo7w1KJUyWLpYncxYZKf045Gu5Cj8P9fmDocLgB+TYkVe3fl/ETcZTgMRupkAAAAASUVORK5CYII=;fontColor=#000000;" parent="1" vertex="1">
          <mxGeometry x="360" y="380" width="90" height="90" as="geometry" />
        </mxCell>
        <mxCell id="S-A4i8dgzAycLhjzWPdY-14" value="Raspberry Pi&lt;br style=&quot;font-size: 18px;&quot;&gt;Server" style="text;strokeColor=none;fillColor=none;html=1;fontSize=18;fontStyle=1;verticalAlign=middle;align=center;fontColor=#000000;" parent="1" vertex="1">
          <mxGeometry x="355" y="480" width="100" height="40" as="geometry" />
        </mxCell>
        <mxCell id="S-A4i8dgzAycLhjzWPdY-15" value="" style="edgeStyle=segmentEdgeStyle;endArrow=classic;html=1;curved=0;rounded=0;endSize=8;startSize=8;exitX=0.5;exitY=0;exitDx=0;exitDy=0;entryX=0;entryY=0.75;entryDx=0;entryDy=0;fontColor=#000000;labelBorderColor=#030303;strokeColor=#000000;" parent="1" source="S-A4i8dgzAycLhjzWPdY-12" target="S-A4i8dgzAycLhjzWPdY-22" edge="1">
          <mxGeometry width="50" height="50" relative="1" as="geometry">
            <mxPoint x="390" y="520" as="sourcePoint" />
            <mxPoint x="370" y="450" as="targetPoint" />
            <Array as="points">
              <mxPoint x="30" y="232" />
            </Array>
          </mxGeometry>
        </mxCell>
        <mxCell id="S-A4i8dgzAycLhjzWPdY-16" value="WIFI" style="edgeLabel;html=1;align=center;verticalAlign=middle;resizable=0;points=[];fontSize=16;horizontal=0;fontColor=#000000;labelBackgroundColor=none;" parent="S-A4i8dgzAycLhjzWPdY-15" vertex="1" connectable="0">
          <mxGeometry x="0.1392" y="1" relative="1" as="geometry">
            <mxPoint x="-32" y="130" as="offset" />
          </mxGeometry>
        </mxCell>
        <mxCell id="S-A4i8dgzAycLhjzWPdY-17" value="" style="edgeStyle=segmentEdgeStyle;endArrow=classic;html=1;curved=0;rounded=0;endSize=8;startSize=8;entryX=1;entryY=0.75;entryDx=0;entryDy=0;fontColor=#000000;strokeColor=#050505;" parent="1" source="S-A4i8dgzAycLhjzWPdY-11" target="S-A4i8dgzAycLhjzWPdY-22" edge="1">
          <mxGeometry width="50" height="50" relative="1" as="geometry">
            <mxPoint x="310" y="556" as="sourcePoint" />
            <mxPoint x="424" y="445" as="targetPoint" />
            <Array as="points">
              <mxPoint x="680" y="233" />
            </Array>
          </mxGeometry>
        </mxCell>
        <mxCell id="S-A4i8dgzAycLhjzWPdY-18" value="WIFI" style="edgeLabel;html=1;align=center;verticalAlign=middle;resizable=0;points=[];fontSize=16;horizontal=0;fontColor=#000000;labelBackgroundColor=none;" parent="S-A4i8dgzAycLhjzWPdY-17" vertex="1" connectable="0">
          <mxGeometry x="0.1392" y="1" relative="1" as="geometry">
            <mxPoint x="-14" y="93" as="offset" />
          </mxGeometry>
        </mxCell>
        <mxCell id="S-A4i8dgzAycLhjzWPdY-21" value="Development" style="text;align=center;fontStyle=1;verticalAlign=middle;spacingLeft=3;spacingRight=3;strokeColor=none;rotatable=0;points=[[0,0.5],[1,0.5]];portConstraint=eastwest;fontSize=22;fontColor=#000000;" parent="1" vertex="1">
          <mxGeometry x="-93.71000000000001" y="915" width="80" height="26" as="geometry" />
        </mxCell>
        <mxCell id="S-A4i8dgzAycLhjzWPdY-22" value="" style="image;html=1;image=img/lib/clip_art/networking/Wireless_Router_128x128.png;fontSize=18;fontColor=#000000;" parent="1" vertex="1">
          <mxGeometry x="354" y="150" width="120" height="110" as="geometry" />
        </mxCell>
        <mxCell id="S-A4i8dgzAycLhjzWPdY-25" value="Time Stamp: String&lt;br&gt;Name: String&lt;br&gt;Audio: ?" style="text;html=1;align=left;verticalAlign=middle;whiteSpace=wrap;rounded=0;fontSize=18;fontColor=#000000;" parent="1" vertex="1">
          <mxGeometry x="-188" y="557" width="180" height="50" as="geometry" />
        </mxCell>
        <mxCell id="S-A4i8dgzAycLhjzWPdY-29" value="Answering the Question" style="text;strokeColor=none;fillColor=none;html=1;fontSize=18;fontStyle=1;verticalAlign=middle;align=center;fontColor=#000000;" parent="1" vertex="1">
          <mxGeometry x="-158" y="517" width="100" height="40" as="geometry" />
        </mxCell>
        <mxCell id="S-A4i8dgzAycLhjzWPdY-30" value="Time Stamp: String&lt;br&gt;Name: String&lt;br&gt;" style="text;html=1;align=left;verticalAlign=middle;whiteSpace=wrap;rounded=0;fontSize=18;fontColor=#000000;" parent="1" vertex="1">
          <mxGeometry x="704.78" y="430" width="180" height="50" as="geometry" />
        </mxCell>
        <mxCell id="S-A4i8dgzAycLhjzWPdY-31" value="Data send once &lt;br&gt;the button click" style="text;strokeColor=none;fillColor=none;html=1;fontSize=18;fontStyle=1;verticalAlign=middle;align=center;fontColor=#000000;" parent="1" vertex="1">
          <mxGeometry x="727" y="390" width="100" height="40" as="geometry" />
        </mxCell>
        <mxCell id="S-A4i8dgzAycLhjzWPdY-33" value="" style="endArrow=classic;html=1;rounded=0;fontSize=18;exitX=0.25;exitY=0;exitDx=0;exitDy=0;entryX=0.25;entryY=1;entryDx=0;entryDy=0;fontColor=#000000;strokeColor=#030303;" parent="1" source="S-A4i8dgzAycLhjzWPdY-13" target="S-A4i8dgzAycLhjzWPdY-22" edge="1">
          <mxGeometry width="50" height="50" relative="1" as="geometry">
            <mxPoint x="550" y="400" as="sourcePoint" />
            <mxPoint x="380" y="260" as="targetPoint" />
          </mxGeometry>
        </mxCell>
        <mxCell id="eYZIWvXTAcl3QtmUV_e4-50" value="WIFI" style="edgeLabel;html=1;align=center;verticalAlign=middle;resizable=0;points=[];fontSize=19;" parent="S-A4i8dgzAycLhjzWPdY-33" vertex="1" connectable="0">
          <mxGeometry x="-0.2091" y="-2" relative="1" as="geometry">
            <mxPoint x="20" y="-13" as="offset" />
          </mxGeometry>
        </mxCell>
        <mxCell id="S-A4i8dgzAycLhjzWPdY-34" value="" style="endArrow=classic;html=1;rounded=0;fontSize=18;exitX=0.621;exitY=1.014;exitDx=0;exitDy=0;entryX=0.75;entryY=0;entryDx=0;entryDy=0;exitPerimeter=0;fontColor=#000000;strokeColor=#030303;" parent="1" source="S-A4i8dgzAycLhjzWPdY-22" target="S-A4i8dgzAycLhjzWPdY-13" edge="1">
          <mxGeometry width="50" height="50" relative="1" as="geometry">
            <mxPoint x="413" y="390" as="sourcePoint" />
            <mxPoint x="414" y="270" as="targetPoint" />
          </mxGeometry>
        </mxCell>
        <mxCell id="S-A4i8dgzAycLhjzWPdY-35" value="First person to press" style="text;strokeColor=none;fillColor=none;html=1;fontSize=18;fontStyle=1;verticalAlign=middle;align=center;fontColor=#000000;" parent="1" vertex="1">
          <mxGeometry x="170" y="270" width="100" height="40" as="geometry" />
        </mxCell>
        <mxCell id="S-A4i8dgzAycLhjzWPdY-36" value="LedStatus: Int&lt;br&gt;Buzzer: Int&lt;br&gt;DisplayString: String&lt;br&gt;(Display the word &quot;Answer&quot;)" style="text;html=1;strokeColor=none;fillColor=none;align=left;verticalAlign=middle;whiteSpace=wrap;rounded=0;fontSize=18;fontColor=#000000;" parent="1" vertex="1">
          <mxGeometry x="150" y="336" width="180" height="50" as="geometry" />
        </mxCell>
        <mxCell id="S-A4i8dgzAycLhjzWPdY-37" value="" style="endArrow=classic;html=1;rounded=0;fontSize=18;exitX=0;exitY=1;exitDx=0;exitDy=0;entryX=1;entryY=0.25;entryDx=0;entryDy=0;fontColor=#000000;strokeColor=#0D0D0D;" parent="1" source="S-A4i8dgzAycLhjzWPdY-22" target="S-A4i8dgzAycLhjzWPdY-12" edge="1">
          <mxGeometry width="50" height="50" relative="1" as="geometry">
            <mxPoint x="100" y="280" as="sourcePoint" />
            <mxPoint x="80" y="560" as="targetPoint" />
            <Array as="points">
              <mxPoint x="80" y="260" />
              <mxPoint x="80" y="400" />
              <mxPoint x="80" y="560" />
            </Array>
          </mxGeometry>
        </mxCell>
        <mxCell id="S-A4i8dgzAycLhjzWPdY-48" value="Release Stage" style="text;align=center;fontStyle=1;verticalAlign=middle;spacingLeft=3;spacingRight=3;strokeColor=none;rotatable=0;points=[[0,0.5],[1,0.5]];portConstraint=eastwest;fontSize=22;fontColor=#000000;" parent="1" vertex="1">
          <mxGeometry x="1517.9999999999998" y="-95" width="80" height="26" as="geometry" />
        </mxCell>
        <mxCell id="S-A4i8dgzAycLhjzWPdY-62" value="" style="shape=image;verticalLabelPosition=bottom;labelBackgroundColor=default;verticalAlign=top;aspect=fixed;imageAspect=0;image=data:image/png,iVBORw0KGgoAAAANSUhEUgAAAMgAAADICAYAAACtWK6eAAAABHNCSVQICAgIfAhkiAAAAAlwSFlzAAALEwAACxMBAJqcGAAAFkJJREFUeJztnWmwHcV1gL/73sNIaAkIA1pAgLAgSCmIWQVICBMWJXGMSWwZXHEZkxiwWcRiIDFgFuPY2DJbCGJJnNiJE2QESVFUESvggAQSIJnYYTFgNiO0mi1oZXnv5cd5F11dTZ/ZemZ67jtfVZdUb+b0nDvTZ6b79Ok+DfKxLfCnwKeBA4CxwHY56zSMPHwArACWAv8O3Am8W4UiM4FXgH4rVgIuryFttTS6ges8/wgrVoouNyFtNxWpBRDjODeDnGFUySHAKOC+NEJpDeQk4HspZQwjFA4BngaeSSrQSFH5EOA5YHxKpQwjJJYBHwPeS3JyT4qK/wzdODYAC4D/S1GnYfhmJDAdtzd1N8TzeofvC9+JewD0ELCT7wsaRkZ2Bhbibq9zi7joS46LrceMwwiPXZBeTVSbfcH3xRrAJsfFUnkFDKNE5hPdZjckraAr4XndyKx5FDbmMELlHcffP5K0gqQGYhiDEjMQw1BI4+b1fd2jgKnABGSO5S1kEuenyHxLFvYFTgfGAI8Bc4CNMTIjgK8AByFxO3OAX8fINJAAzROBPmAecG9C/c4ARg/odwvx/eERwDnAwUgQ3k3ET3Q1kPijE5A+911I4F5/Cv2WIPdifYzMcOA0ZBJuJfKbsj6/ycBxwCRge2Tc+xLikXoQCUQMkh7cLrM0/uQe5GEvV+pruo0PT6njNLZ2JPwcGKrIDAP+t01mPXBYzLW+E6HzlTEyR2bQb0SEfhsT6HdthH5Xx8hMG6i7XT8tOnt4hH4bEujXznRgUYTOrWU5cBbpXurzHHV5NzQfBjIWeFSpJ6r8Dcm7gY876jhLkTnfIfOwIrOXQ6YXfSJ1SQb9LnTIPKLITFT021WR+7lDbpYic4FDZqEi00o38H1HHa6yCOkhJKE2BjIW9zxKXPkH4kNiupCuTpT8jxS5Oxwy2vqBzyq6nuCQ6c6o31yHzCZFZqai36ccMl2KzD971q/1mj9WrquVF0lmJLkNpIxBeg9wN7BnRvlT0d9iID96tePYa4qc69hvFJmVyjGXXB+wxnFsmVKf65im3wrl2KuOv/cpdbpkwH3PtXvU5GLg8wnOi2ICEtmRJRq9EPJ8Qc5RZJOWDejdAxAjapdbC+yuyExAxhztcqcrMl1IF6dd5gH0L51LP61bVqZ+Z2fQb2IG/UC6qe9FyKUtZ8RcJ/guVg/xA/Kk5doYHRvAmYgHaiPSIA5K8NsORTwkG4HnkYcb16UbBdwGvIl4334w8Lek+r2HNOJDE+h3OLCYzR6dsxPo91Gk6/b2gI5zEK9QnH7nI6tENyHjsDT6vUvy+zeH+Oft6pK2lt+gf0WCN5BjFLl+YDYyPukGpiCuT9e5q0gXnm+ESQ/yUnE954eRF1sX0mu4UTm3H/EOugjeQK5Q5GZHnD8cfTC/d+5fYlTNfrif77NEu5X/TpG5RLlW8IP0CcqxqC7TOqTrkqU+ox5ozhrXxKnWvS60TRRtIEOUYy4PiOaF0eoz6oH2DFc5/q55xbSJ1twUbSBvKcdcA+hDFJk3cuhihMHbyrGDHX/X2sSbOXTxRtYxiObifRQZc7QyBfGGuGR29PJrjCoZh/v5bmDrF+dI4AlFRnP15h6DFB2s+FPl2KHAL5Exx0rkLfFl3LH6S4j/gjSQOKCxyM56ryTUczdk8LgC+AVyE+MYhhh0P+LmjAuKbNVvHPJ7kuq3F3AgMrG5uED9uhC37VgkdKcI/ZYjwZaTIo4NRcJUbkee3zjEbby7Ut/8hDoWSp6JwocU2TTlL2KuszNbBrz1AVfFyDSAb7Olz30h8XMaxwKvt8isRqKTi9DvGra8Dw8DOxSkX2s8W5H6RU2aZin/FXOd4N28IG+kvDfiaWCbmOv8q0P2DxWZExwyP1BkRiL93naZNeiRry79ZmTQ7x9rrB/Il+JFh2zS0kf8RHAtDAQkKjfrjdiIbIyt0WDrUO1muV2R+6FDRhtI/omi67El6actcw5dvyaHky/c5PIE1wh+HqTJpehvZRebkP24nog5r4F7lr1PkXMd025gb4b6NP2y1Fdn/ZosQnbqfD/Bue3MIb77Vyo+1oM0kD19XVuxtJenif9ytPIvjnqOU2RmOGRuVWSGIX36dplV6D55l36ut7qm3y011q+dKUh8WpI2sQ74KslDjmrTxWplV2RmdJWjvseRAXncmKOdUWzpEPgA+EYCuSsHzm3K/Yz4wL6j2vRfhSwfTqvfZRn0m4+MM+qsXzvbIg3/f4huE8uRPaGTLpRqkttAklpiD+5P4VzkU5mWBhIu3VyT/gbi/sszGdgAPo4Y4VL0WflWxiFfq2WI67k/gcx2bHZALCK5m/fjA9dbSrJ1E039DkTWZnSKfi52QVzAOyCh9C+yeUCflnlIF72dXjxPcfj8ghhGWdRmkG4YtcQMxDAUzEAMQ8EMxDAUzEAMQ8EMxDAUzEAMQ8EMxDAUzEAMQ8EMxDAUzEAMQ8EMxDAUzEAMQ8EMxDAUysxR2E36zaeb5ydZC9Cb8DzD8E6e9SBH4E4/5rNsQLIhxW3ZYxRPD3AKklZiLcU/ex9lBZIy4sCsPziLgexD8jXovsoCLE1ClYwhfS7KkEofkvA0VRvKaiDXV/QjXXu8GsUyAtlso+pG7qNcBcUP0uPSphXF2IquO9i5gugtRevIpcD+nejF6kVSGhvlsh1wWtVKeKQBzOpEA7kcPbOtUQwHs/Vu/XXn6DLdvO3Mdfx9d2QzsSgW4U6N/A6SGjhuQ2OjGEYrx7TnVjTdyO7zoxCH0YvIdkKtTEW2LmoncVc96yA9y7YrJynX+kxShY3SqfNzc7bTTuxiGYY3zEAMQ8EMxDAUzEAMQ8EMxDAUqnTzZuEC3DvJr0O8EfeWp47hiX2RbLVRrtYkLANuRvKMeKVuBuKaH2nyRSRfxRXFq2J4YhqSU2RIznpOA44GHsutUQshdrF2zil/GTDehyJGKVxPfuMACXWZ7aGeLYj6ggxFsoeOYbMBdSt1jMfd7dktg057ZpBppQtJAvNqzno0GsBkYG/ced1D4V3geSQ5UX/FurTTTbo0e3HEZb1NTauBDEfimM4gXUzNYQPFF295qGO5hzqiaAAnI924jxV0jaJ4Dvm63lm1Ii30Ilms0qZWc1HUc2c08BTlxdprmWdPzln3AxSzYKoLGQhWvU4hb7meYu5P1lCT8zL+jqhyekbd1ZCobmCxRyWTFhfaje4dUDqqvIlkp/2dLHcoARcpetWtzPJ8byC7gTSAs4CXcD/buPICYhxZDV81kC8qPyw0A6kq6G0nyl86XGRZiyTJ9EmIzy0parDiKdXpVRtmoucYrxvDic7+arTRRcZdHAYZnXiPvHt8OpEeZKF9FIuA69r+1kAWn+yA9BnjcprfSmdswzPS8fd+5OsSKt241+tsX6YidUWbSV+G9M3ycH1O+dDpI/89KpK6RUoER4gz6YYRDHV7wxyBW+d1yE5+60rTxuh46mYg58Ycfx1xKT5Ugi7GICDELlYed+pHkVCKYZ50MQY5IRrIvjnld0K2cTHqRQPp0WQphRGigfhAm6k3wqKBhPGsBN7PWFYgMV3eY8xCHIM8k1N+FfCwD0WMUrgQuCZnHWOAaxFjuSm3Ri2E+AXZlEN2FRJCscGTLkaxNIDzPdbnsy4gzC+IxveR3BNRvIN8Ocw46kMXsIvH+nytK/mQuhnIo4Q9cx0aoY/FeoGl+IsLe9xTPR8SYhfLGFzMws9Xfx3WxTI6kEXA/siuJFk323gFCYx92ZNOH2IGYoTAC4irNzisi2UYCnX7gnTj1tnypBveqdsX5A7cs6mWJ93wTogGkjVcYAjw58B/5KjDMLYgRAPZO6f8NCxPuuGJEMcgPraj8T6jasSijf++hnt72qLpASYg7WoTksSzfVGda2fQvhAN5KWc8pYnfTNlOi1WKscOHSghkGbL2OUhdrHW5JS/HMuTXgVLkA3pOon7Q/yCaFie9HDZCMwh0Am/DPQBN9bNQK7DghVD5ipgBrBf1Yp44ArgyRC7WEZ9WQ8cCyysWpEc9AHfAK6GML1YRr1ZAxwFfA7Z9/kgittxP44u3HNivS3/70Nyi9wP3Ag82TxgBmIUQR/wbwOlSuYRvUl3LwnbvnWxDEPBDMQwFOrWxbI86Uap1M1AkuRJvwqZLDQs/D83IXax8u5ycSmWJ93wRIgG4itPumHkJkQDedNDHYXlyzYGFyEayK9zyv8Mi+Y1PBHiIF0bWPYpx5vBihcp5xhGKkI0EI3PYcGKRomE2MUyjGAwAzEMhR6kvx4V8TiVrbszI5D1vUMQb9PLwAdK/Tt60DEE+hx/7ybsLp+2u0uvcswYoAfJzjMu4tg4oiMhm+xKZyyMScIK5Zh2j0LGXOEJ6AIeqFqJGtCJ96gTf5N3eoAbgC9Qj83WqsqTfh/wHLBPAXVXwZPY2v1UfBMZi5RZXJyUo87fAtNz3Qk3U5B9lcq+T77LBuBAz/cmVOYRfQ+0cXMkDeBKNk/EFV20AeKXcta9huLypB89UH/VjTxrWYnsPDlY8GYgTfYH/h7xTr03UFGzuG56X9t5rcVlcJqC31WulbQcn/UGJGAUcBnwBLJJgeu3h1LWIWnOvg5sX8D9CBnvBuKi6Q6OKnd4VtCHgRyX/icaHUhuAwlxotDypBvBEKKBWJ50IxjqFqxoedKNUqmbgViedKNUQuxiGUYw1O0LYmzJaOAAYGSJ13wfiSp4GvEIdTRmIPVkMjAb2Um9Kp5H5oN+UqEOhWNdrPrxSWTir0rjAMklORfZ7LkOcXyZqOoL0lCu3a3IDfY86ZORdfdDqlakhbORtHnXV61IlfieSS+ibKTz86TfR3n3M01ZS5j3vSNn0rPS6XnSx1B9t8rFcOq7cEylkwykSafmSQ99t8iDqlagCIoeg1S17rkT86RrrtxrgcUl6NCNu0tdVRapQinaQJYAMwu+RjuDMU/6YsqJMBh00wJFd7HmIOsmyuRyLE+64Ymi3wjrkTHBl5FxQZrrjUF2TgHJjb4q5nzLk254p4xP5gZkYwjDqB2d6MUyDG+YgRiGghmIYSiYgRiGghmIYSiYgRiGghmIYSiYgRiGghmIYSiYgRiGghmIYSiYgQxetLX/xgCDwUB2Br6FbIqtpXEou6wAfkT5yWymIetlPhjQ4Tw6c4lyqWTdtKFqZiDZeKs2Bq30AVcT30i1zFufSXg/9kU2t2iXPyuhfN3agW3aoDAVuAfYoWpFYmgAlyAZvormDKK3DDq/hGvXkqqWUG4DfAJpxHsiD+1t4ClgPvArD/X/08C/deFS4C7glwVeIyrdN8D4Aq+ZhslI8qNJSDasTcieWwuRBK3eM0PFUbaBbAOcCVyEvrHCw8BfAY9kvM4ngb0yylZFA5gFnFq1IhUwHfg2cJhyzoqBc26hREMps4u1K9LwryN+15GpA+d+h2w6Hp1BJgTqqndWupGcLw+iGwfAWOBvgQWUuGtNWV+QXZHP5B4p5S4GdkHeqv0p5EYrx+am1KEIphLd3RlbtiIV0oV48T6fUu4w5OU5FcnaWyhlGMg2SN96j4zypyCJ769NIePyCPUi3qCqmUf0ToSd7DRp52LSG0eTCcgGHdMpeO+1Mh7ImcAhOev4FuEMJI387EV+r90RyG45hVK0gWyDDMjjiOs+DcFckZ3E14j3MCbpUv81BUcEFG0gn0AfUM1G+t09wBTgMeXckxlcXZBOpQe9m/sIm/dQ2w0ZmLsYj3xJCqPoBjdVOTYbuBAZaPUhxnEM4veOYmdgolftjCpoznFE8RwyD7IUaROvAecANyv1TfOqXRtFG8ieyrGoQfc64DZFZkI+dYwA0NrELUSn8dYcNIW2iaINxJUJqR9Y7Timue6G5lPHCAAtO5Zre9nK2kTRBvK24+8N3PkkNI/X6/nUMQLA1SbAnddFaxNv5tAllqIN5Cnl2A1IZqJWpgB/qcg8k1sjo2q0NvEVtn5xjkTvYmn15aboicL5yrEpSGDebcgn9BDEOLZ1nL+Ucr4gI5EJqH4kBGJdApku4HDEY7cUeLko5RycChyZ4Lzfd/y9C8lWG4ePF+py5EU3KeLYUCTi4nbkPo4DTgd2V+rT2lhp5FkHsFCRTVPSTAplXQdwDFuuH/ktYiwaOyEeuNb1Hd8sQD9tPUgIJc16kFmerhmX6iL3epCk5DGQIxTZpOUZ0oWuZ7kxI4leXLUGGKbI3eG41h951u9LDplQygJF93aGAi/mvF4f8XkRa7Fg6hHgmhzym4AvAO/7UcfJdKIXV+2Eez6nC/i049iJPpRqYV/P9fnGtdYkio3kf6ZXIt2wQilrZvrryAKmtGwCPks5OQe1r8QIx9+7cI+ZXDKGsAjpNmYxkjnAVX7ViaYsA+lDBpIXII0+Cb9C3tz3FqVUzci7yrJolmWQuRtxLryQ8Pz1SPDrmUhXqXDKjG3qR9x1+yAu3jWO85YCpwH7M/iy1WpsrFqBGOJySLp4FPg9pNH/wnHOCiQ0aSISdlKKcUA1a9JfBc5FonMnIqECQxEX7jPYZGAW7kXimJIyEoltW4s7osHFBSnPT8K7SMO/GVkgNwkZD65HBvPNAX3pVJn3ug95qGkerBHNDyknTzoUYyCtrCa90RaGhY8bhoIPA7Fd+YxQyd02kxpIL253XKcshX1VOfaK4+/N7TvTyBjlsYfj7+uTVpDUQPqRgVIUU0gWBxQ6jxK9D9d/o3vTvhvxt3XArT6UMjJzDHCA45irLW9FmkH6AuB3HcfuQdYZ3w28k6LOosjyae0DPoXs03TiQB13Ir9L86DcOCB7HjKb/NjA/1/OoAO4n0nou7E3qNbp09RhJDK5HPXiapImLCYxR1J9vE/eUvrWlQ5cMUJZS9LNq31Q9TP0UVzrTrYizSB9IQVZXomE4lDwHYYSyu+qA/8JLEl6choD6Udi86PWDNeFUNzavtdRl7UPcd0NcS3JUz0A6RvMs8j2O6F0VeqKti47C2WleAjlBZOF94CZpBigQ7YffA/wx8AbGWSrppJwhQje8lyfa6sk3xS6zWeBrAGOR7pXqcj6RpiPxMvMIXl0bgiEYiC+G3QdX1ZlsBHxMk5Clk+nJo9bbg3wVWT7x+OR1V1jCCNpzRHIjvLthGIgri5qP/ATx7HxxKcIqJJXgcVVK4FMaC9HosLnE8a0Q3CUthY5I77XpIfg5g0xR2Fu6jzoMozCqXrms2xCmO2F+r6Y6u7mTU0IjaUIXIGVXcqxEHhXOaZ1v9o34CsK16bTEPZ9zUxd32Rx1HUR1rPKMVfUMJQ3BpmpHFtekg6GB/aj+nifLOUS5TcNQya7XLJXUGyP4BjEIxSCo6A0OrlPeSf1emirkWhpbXPne5FJWhevAU/gt7vTQNZVuELHQeYbRmMu1VoxCnia6r8KScoGkq2p+YMAdI0qNyTQ3QiQUbi3Bg2lPAkcmOI33RWAzq1lNbBjCv1rRSd3sVqZjGwRug/wkYp1AVlgtRy4f6CkiXEahcxY712AXml5H0mZ9mDFehjGFoxDUkdU+eV4B5hR9A81jKxsB3wPmTsp2zjuo7w1KJUyWLpYncxYZKf045Gu5Cj8P9fmDocLgB+TYkVe3fl/ETcZTgMRupkAAAAASUVORK5CYII=;fillColor=#FFFFFF;strokeColor=#F0EAE9;fontColor=#000000;" parent="1" vertex="1">
          <mxGeometry x="1705.4299999999998" y="416.5" width="90" height="90" as="geometry" />
        </mxCell>
        <mxCell id="S-A4i8dgzAycLhjzWPdY-63" value="Raspberry Pi&lt;br style=&quot;font-size: 18px;&quot;&gt;Server" style="text;strokeColor=none;fillColor=none;html=1;fontSize=18;fontStyle=1;verticalAlign=middle;align=center;fontColor=#000000;" parent="1" vertex="1">
          <mxGeometry x="1700.4299999999998" y="516.5" width="100" height="40" as="geometry" />
        </mxCell>
        <mxCell id="2" value="" style="endArrow=classic;startArrow=classic;html=1;labelBorderColor=#030303;strokeColor=#050505;fontColor=#000000;exitX=1;exitY=0.75;exitDx=0;exitDy=0;" parent="1" edge="1">
          <mxGeometry width="50" height="50" relative="1" as="geometry">
            <mxPoint x="1597.36" y="221.57999999999998" as="sourcePoint" />
            <mxPoint x="1664.36" y="222" as="targetPoint" />
          </mxGeometry>
        </mxCell>
        <mxCell id="4" value="" style="endArrow=classic;startArrow=classic;html=1;labelBorderColor=#030303;strokeColor=#050505;fontColor=#000000;entryX=0;entryY=0.75;entryDx=0;entryDy=0;exitX=1;exitY=0.75;exitDx=0;exitDy=0;" parent="1" edge="1">
          <mxGeometry width="50" height="50" relative="1" as="geometry">
            <mxPoint x="1825.36" y="221.57999999999998" as="sourcePoint" />
            <mxPoint x="1904.36" y="221.57999999999998" as="targetPoint" />
          </mxGeometry>
        </mxCell>
        <mxCell id="11" value="WIFI" style="text;strokeColor=none;fillColor=none;html=1;fontSize=50;fontStyle=1;verticalAlign=middle;align=center;labelBackgroundColor=none;fontColor=#000000;" parent="1" vertex="1">
          <mxGeometry x="-158" y="69" width="100" height="40" as="geometry" />
        </mxCell>
        <mxCell id="16" value="BLUETOOTH" style="text;strokeColor=none;fillColor=none;html=1;fontSize=50;fontStyle=1;verticalAlign=middle;align=center;labelBackgroundColor=none;fontColor=#000000;" parent="1" vertex="1">
          <mxGeometry x="-113.61" y="828" width="100" height="40" as="geometry" />
        </mxCell>
        <mxCell id="18" value="" style="shape=image;html=1;verticalAlign=top;verticalLabelPosition=bottom;labelBackgroundColor=#ffffff;imageAspect=0;aspect=fixed;image=https://cdn0.iconfinder.com/data/icons/game-asset-1/24/gamepad-1-128.png;fontColor=#000000;" parent="1" vertex="1">
          <mxGeometry x="-93.71" y="1453" width="88" height="88" as="geometry" />
        </mxCell>
        <mxCell id="22" value="&lt;font style=&quot;font-size: 18px;&quot;&gt;Bluetooth&lt;/font&gt;" style="edgeStyle=none;html=1;entryX=0;entryY=0.75;entryDx=0;entryDy=0;labelBorderColor=none;strokeColor=#2D7600;fontSize=14;fontColor=#000000;labelBackgroundColor=none;horizontal=1;fillColor=#60a917;" parent="1" source="19" target="20" edge="1">
          <mxGeometry x="0.3993" y="22" relative="1" as="geometry">
            <Array as="points">
              <mxPoint x="-49.61" y="1240" />
            </Array>
            <mxPoint as="offset" />
          </mxGeometry>
        </mxCell>
        <mxCell id="19" value="" style="shape=image;verticalLabelPosition=bottom;labelBackgroundColor=default;verticalAlign=top;aspect=fixed;imageAspect=0;image=data:image/png,iVBORw0KGgoAAAANSUhEUgAAAG4AAAC8CAYAAACZrZvfAAAMQWlDQ1BJQ0MgUHJvZmlsZQAASImVVwdYU8kWnluSkEBooUsJvQkiNYCUEFoA6UUQlZAECCXGQFCxI4sKrgUVC9jQVRHFDogFRRQLi2LviwUVZV0s2JU3KaDrvvK9+b65899/zvznzLkz994BQO0ERyTKRdUByBMWiGNDAujjklPopKcABeqABlyAKYebL2JGR0cAWIbav5d31wEiba84SLX+2f9fiwaPn88FAImGOJ2Xz82D+CAAeDVXJC4AgCjlzacWiKQYVqAlhgFCvFCKM+W4WorT5XivzCY+lgVxGwBKKhyOOBMA1UuQpxdyM6GGaj/ETkKeQAiAGh1i37y8yTyI0yC2gTYiiKX6jPQfdDL/ppk+rMnhZA5j+VxkRSlQkC/K5Uz/P9Pxv0termTIhxWsKlni0FjpnGHebuZMDpdiFYj7hOmRURBrQvxBwJPZQ4xSsiShCXJ71JCbz4I5AzoQO/E4geEQG0IcLMyNjFDw6RmCYDbEcIWg0wQF7HiI9SBeyM8PilPYbBJPjlX4QhsyxCymgj/LEcv8Sn3dl+QkMBX6r7P4bIU+plqUFZ8EMQVii0JBYiTEqhA75ufEhStsxhRlsSKHbMSSWGn8FhDH8oUhAXJ9rDBDHByrsC/Lyx+aL7YpS8COVOD9BVnxofL8YG1cjix+OBfsEl/ITBjS4eePixiaC48fGCSfO/aML0yIU+h8EBUExMrH4hRRbrTCHjfj54ZIeTOIXfML4xRj8cQCuCDl+niGqCA6Xh4nXpTNCYuWx4MvAxGABQIBHUhgTQeTQTYQdPY19sE7eU8w4AAxyAR84KBghkYkyXqE8BoHisCfEPFB/vC4AFkvHxRC/uswK786gAxZb6FsRA54AnEeCAe58F4iGyUc9pYIHkNG8A/vHFi5MN5cWKX9/54fYr8zTMhEKBjJkEe62pAlMYgYSAwlBhNtcQPcF/fGI+DVH1ZnnIF7Ds3juz3hCaGL8JBwjdBNuDVJUCz+KcqxoBvqBytykf5jLnArqOmGB+A+UB0q4zq4AXDAXaEfJu4HPbtBlqWIW5oV+k/af5vBD09DYUd2IqNkXbI/2ebnkap2qm7DKtJc/5gfeazpw/lmDff87J/1Q/Z5sA3/2RJbiB3A2rGT2DnsKNYI6FgL1oR1YMekeHh1PZatriFvsbJ4cqCO4B/+hp6sNJP5TnVOvU5f5H0F/GnSdzRgTRZNFwsyswroTPhF4NPZQq7jSLqzk7MLANLvi/z19SZG9t1AdDq+c/P/AMCnZXBw8Mh3LqwFgH0ecPsf/s7ZMOCnQxmAs4e5EnGhnMOlFwJ8S6jBnaYPjIE5sIHzcQbuwBv4gyAQBqJAPEgGE2H0WXCdi8FUMBPMA6WgHCwDq8A6sBFsATvAbrAfNIKj4CQ4Ay6AS+AauANXTw94AfrBO/AZQRASQkVoiD5iglgi9ogzwkB8kSAkAolFkpE0JBMRIhJkJjIfKUcqkHXIZqQW2YccRk4i55Au5BbyAOlFXiOfUAxVQbVQI9QKHYUyUCYajsajE9BMdApahJagS9A1aA26C21AT6IX0GtoN/oCHcAApozpYKaYA8bAWFgUloJlYGJsNlaGVWI1WD3WDJ/zFawb68M+4kSchtNxB7iCQ/EEnItPwWfji/F1+A68AW/Dr+AP8H78G4FKMCTYE7wIbMI4QiZhKqGUUEnYRjhEOA33Ug/hHZFI1CFaEz3gXkwmZhNnEBcT1xP3EE8Qu4iPiAMkEkmfZE/yIUWROKQCUilpLWkXqYV0mdRD+qCkrGSi5KwUrJSiJFQqVqpU2ql0XOmy0lOlz2R1siXZixxF5pGnk5eSt5KbyRfJPeTPFA2KNcWHEk/JpsyjrKHUU05T7lLeKCsrmyl7KscoC5TnKq9R3qt8VvmB8kcVTRU7FZZKqopEZYnKdpUTKrdU3lCpVCuqPzWFWkBdQq2lnqLep35Qpak6qrJVeapzVKtUG1Qvq75UI6tZqjHVJqoVqVWqHVC7qNanTla3Umepc9Rnq1epH1a/oT6gQdMYrRGlkaexWGOnxjmNZ5okTSvNIE2eZonmFs1Tmo9oGM2cxqJxafNpW2mnaT1aRC1rLbZWtla51m6tTq1+bU1tV+1E7WnaVdrHtLt1MB0rHbZOrs5Snf0613U+6RrpMnX5uot063Uv677XG6Hnr8fXK9Pbo3dN75M+XT9IP0d/uX6j/j0D3MDOIMZgqsEGg9MGfSO0RniP4I4oG7F/xG1D1NDOMNZwhuEWww7DASNjoxAjkdFao1NGfcY6xv7G2cYrjY8b95rQTHxNBCYrTVpMntO16Ux6Ln0NvY3eb2poGmoqMd1s2mn62czaLMGs2GyP2T1zijnDPMN8pXmreb+FicVYi5kWdRa3LcmWDMssy9WW7ZbvraytkqwWWDVaPbPWs2ZbF1nXWd+1odr42UyxqbG5aku0Zdjm2K63vWSH2rnZZdlV2V20R+3d7QX26+27RhJGeo4UjqwZecNBxYHpUOhQ5/DAUccxwrHYsdHx5SiLUSmjlo9qH/XNyc0p12mr053RmqPDRhePbh792tnOmetc5XzVheoS7DLHpcnllau9K991g+tNN5rbWLcFbq1uX9093MXu9e69HhYeaR7VHjcYWoxoxmLGWU+CZ4DnHM+jnh+93L0KvPZ7/eXt4J3jvdP72RjrMfwxW8c88jHz4fhs9un2pfum+W7y7fYz9eP41fg99Df35/lv83/KtGVmM3cxXwY4BYgDDgW8Z3mxZrFOBGKBIYFlgZ1BmkEJQeuC7gebBWcG1wX3h7iFzAg5EUoIDQ9dHnqDbcTmsmvZ/WEeYbPC2sJVwuPC14U/jLCLEEc0j0XHho1dMfZupGWkMLIxCkSxo1ZE3Yu2jp4SfSSGGBMdUxXzJHZ07MzY9jha3KS4nXHv4gPil8bfSbBJkCS0JqolpibWJr5PCkyqSOoeN2rcrHEXkg2SBclNKaSUxJRtKQPjg8avGt+T6pZamnp9gvWEaRPOTTSYmDvx2CS1SZxJB9IIaUlpO9O+cKI4NZyBdHZ6dXo/l8VdzX3B8+et5PXyffgV/KcZPhkVGc8yfTJXZPZm+WVVZvUJWIJ1glfZodkbs9/nROVszxnMTcrdk6eUl5Z3WKgpzBG2TTaePG1yl8heVCrqnuI1ZdWUfnG4eFs+kj8hv6lAC/7Id0hsJL9IHhT6FlYVfpiaOPXANI1pwmkd0+2mL5r+tCi46LcZ+AzujNaZpjPnzXwwizlr82xkdvrs1jnmc0rm9MwNmbtjHmVezrzfi52KK4rfzk+a31xiVDK35NEvIb/UlaqWiktvLPBesHEhvlCwsHORy6K1i76V8crOlzuVV5Z/WcxdfP7X0b+u+XVwScaSzqXuSzcsIy4TLru+3G/5jgqNiqKKRyvGrmhYSV9ZtvLtqkmrzlW6Vm5cTVktWd29JmJN01qLtcvWflmXte5aVUDVnmrD6kXV79fz1l/e4L+hfqPRxvKNnzYJNt3cHLK5ocaqpnILcUvhlidbE7e2/8b4rXabwbbybV+3C7d374jd0VbrUVu703Dn0jq0TlLXuyt116Xdgbub6h3qN+/R2VO+F+yV7H2+L23f9f3h+1sPMA7UH7Q8WH2IdqisAWmY3tDfmNXY3ZTc1HU47HBrs3fzoSOOR7YfNT1adUz72NLjlOMlxwdbiloGTohO9J3MPPmodVLrnVPjTl1ti2nrPB1++uyZ4DOn2pntLWd9zh4953Xu8HnG+cYL7hcaOtw6Dv3u9vuhTvfOhoseF5sueV5q7hrTdfyy3+WTVwKvnLnKvnrhWuS1rusJ12/eSL3RfZN389mt3Fuvbhfe/nxn7l3C3bJ76vcq7xver/nD9o893e7dxx4EPuh4GPfwziPuoxeP8x9/6Sl5Qn1S+dTkae0z52dHe4N7Lz0f/7znhejF577SPzX+rH5p8/LgX/5/dfSP6+95JX41+HrxG/0329+6vm0diB64/y7v3ef3ZR/0P+z4yPjY/inp09PPU7+Qvqz5avu1+Vv4t7uDeYODIo6YI/sVwGBFMzIAeL0dAGoyADR4PqOMl5//ZAWRn1llCPwnLD8jyoo7APXw/z2mD/7d3ABg71Z4/IL6aqkARFMBiPcEqIvLcB06q8nOldJChOeATeyv6Xnp4N8U+Znzh7h/boFU1RX83P4L1Dd8fKcDh3UAAACKZVhJZk1NACoAAAAIAAQBGgAFAAAAAQAAAD4BGwAFAAAAAQAAAEYBKAADAAAAAQACAACHaQAEAAAAAQAAAE4AAAAAAAAAkAAAAAEAAACQAAAAAQADkoYABwAAABIAAAB4oAIABAAAAAEAAABuoAMABAAAAAEAAAC8AAAAAEFTQ0lJAAAAU2NyZWVuc2hvdKh2xj4AAAAJcEhZcwAAFiUAABYlAUlSJPAAAAHWaVRYdFhNTDpjb20uYWRvYmUueG1wAAAAAAA8eDp4bXBtZXRhIHhtbG5zOng9ImFkb2JlOm5zOm1ldGEvIiB4OnhtcHRrPSJYTVAgQ29yZSA2LjAuMCI+CiAgIDxyZGY6UkRGIHhtbG5zOnJkZj0iaHR0cDovL3d3dy53My5vcmcvMTk5OS8wMi8yMi1yZGYtc3ludGF4LW5zIyI+CiAgICAgIDxyZGY6RGVzY3JpcHRpb24gcmRmOmFib3V0PSIiCiAgICAgICAgICAgIHhtbG5zOmV4aWY9Imh0dHA6Ly9ucy5hZG9iZS5jb20vZXhpZi8xLjAvIj4KICAgICAgICAgPGV4aWY6UGl4ZWxZRGltZW5zaW9uPjE4ODwvZXhpZjpQaXhlbFlEaW1lbnNpb24+CiAgICAgICAgIDxleGlmOlBpeGVsWERpbWVuc2lvbj4xMTA8L2V4aWY6UGl4ZWxYRGltZW5zaW9uPgogICAgICAgICA8ZXhpZjpVc2VyQ29tbWVudD5TY3JlZW5zaG90PC9leGlmOlVzZXJDb21tZW50PgogICAgICA8L3JkZjpEZXNjcmlwdGlvbj4KICAgPC9yZGY6UkRGPgo8L3g6eG1wbWV0YT4Kbq6ZBgAAABxpRE9UAAAAAgAAAAAAAABeAAAAKAAAAF4AAABeAAADX910R+IAAAMrSURBVHgB7JhBTttAAEWHRQXtAhaVWJJ14QxwCRBS1fYiVVFVIfUiBSEhuAScAboOS3awKVUXbcbQKHHIZGz9/GTIs4QgxP5//J7H42Tpb28LbMURWEJccc6qASOuTG8BcYgrlEChw2bGLYK4s8u76jR/dn+H65uHQk95foa9ubFSDWZ3e7X6vdl5fJ0zwqwZF4WdP0nLCWWfdgSiyCgxR2BS3HX3oSfsntnVzkPro3a318Je7ye1jRXHLEthm/57k+Q9Ky7OtMPj2+mPjoYkgZS8Z8W9/36TDORNH4Fx8kbEHR7dZq1pcSF911n2ncELaopP5XHLfTI/+bwxcvZD4nJukeOugJFk/pFFoC3zIXGTZhvSsly02mkS+/qsGxKXWtuQ1spHo4Oa8O+LS03ZuJ4dfFxvNAh2bk4g9RGsPnH64lIHHXxYz/o033yoHFEnMG7W1ScP4urkZvw6tdYNrnNZ4gYPmPF5vfh6xBWqGHGIC4Fbpe8qYMb5WEubECfF6QubqbivP+7DVfeP72znuOnbp9Ww1XmVPcKZiYvCoji2RwL7O2/C/s7rbBxzIS5ebYu6nV78qu46RYo7+/J2Ub1Vd51490FcYZfA/3UecYgb+jwt/65y8OGEWyW3ysLmW2CNK87Y04BZ4wo1hzjE9QkMftnPw0kfi/YPZpyWpy0NcTbU2iLEaXna0hBnQ60tQpyWpy0NcTbU2iLEaXna0hBnQ60tQpyWpy0NcTbU2iLEaXna0hBnQ60tQpyWpy0NcTbU2iLEaXna0hBnQ60tQpyWpy0NcTbU2iLEaXna0hBnQ60tQpyWpy0NcTbU2iLEaXna0hBnQ60tQpyWpy0NcTbU2iLEaXna0hBnQ60tQpyWpy0NcTbU2iLEaXna0hBnQ60tQpyWpy0NcTbU2iLEaXna0hBnQ60tQpyWpy0NcTbU2iLEaXna0hBnQ60tQpyWpy0NcTbU2iLEaXna0hBnQ60tQpyWpy0NcTbU2iLEaXna0hBnQ60tQpyWpy0NcTbU2iLEaXna0hBnQ60tQpyWpy0NcTbU2iLEaXna0hBnQ60tQpyWpy1t2uL+AQAA//+odvKPAAAIxElEQVTtnAmMFEUUht+w9wUL6IrXonig64EmikeCqKgoIpqIIqKAAoZbNJ6AkMipgYAIKoIKoqwSIDF4gJhoIMRbYoyr4glyibLLXrAss7vWP0PN0VM9O0PNTHUP7yWbnq6ua/5vq/rVq572tAgjYas3V9Ma8aey8omlqmRl2o/bj9DUFTW+a6snd1TmOR4SoQG0uPuafPGXF/NXnvbWPqrY0aDMH8rBw+CUGmknMjhtCc1UwODM6K7dKoPTltBMBQzOjO7arTI4bQnNVMDgzOiu3SqD05bQTAUMzozu2q0yOG0JzVTA4Mzort0qg9OW0EwFDM6M7tqtMjhtCc1UwODM6K7dKoPTltBMBQzOjO7arTI4bQnNVOBqcBd0zjKjmgNaxWMLMNc8uoDO9p++Hwc2oYCrwIGY/I873unFO+sYe1joeAel+/0ZnK6ChsozOEPC6zbL4HQVNFSewRkSXrdZBqeroKHyDM6Q8LrNMjhdBQ2VZ3CGhNdtlsHpKmioPIMzJLxuswxOV0FD5RmcIeF1m2VwugoaKs/gDAmv2yyD01XQUHlXgZv9bi1982tjhFRXnpdNj/UvikhXJeDVESMXVNH+muaIy3f1yKMBPfPD0vGuiXtm7aemyOxh+UJPsjM9tPKpDqFJCf+cFuCyhFCvPdKe8nM8rQpUIZ7xmHL0NR3WzCpwVXXNNGJ+lTVr1HMGZ5HHbsQh2+i+hXT9JTmWEpGniz+sp43fqd8PogL3224vPfW6+r0ukbX7UxicRZlo4C46M4umDmprKRF+6m0iGj6/kuoO+d61E35RnKnAffFzI81ZXRvICyinnpAROFd9yMokmjm0nepSwtLSYqqEGh4xSy4e3546FLWxFQf3R8C3MxW4979qoGUf1weKxPIPEsicxA9pAw4aDbmxgG67ItdWrnlra2lLRaRzIwuowC3fWE/rvgxOrdd1y6ExtxXKIsaOrgbX5eRM+mOPNyAezp8fpp6iGhpbaNi8Kjp8xD9N5mZ7fKNz934xfx41Fbi5a2rp85+CsFV5ZPlUHl0NrseFOT5wu0LEXzCqmE7pGHkP2vTDYVrwXl1A254X59Cvu7zUGriJb1TTNpFP2ijhBPUSThDw1x1soYI8D7Vp3ZmVxRN2dDW47l2z6Swxyso/OxgQxG5EzCivoa2/+x/3RuYpwpFZtK4ubD2nKvvQC1VUWRtcxN1yeS7t/K+Jfv7bS0e8LYSlyGnCWTn7lEwaIN5+V1xof48NdDIBH1wNrluXLBp5ayGNfrHKNwKgR6cOGbRwdHGYNDUH/WsxuYiGAwNHZujcSqpvCHqYVnDIj8W3/4WPYVUqT4ryPTSyTyFdIQICyTZXg+t6WibNEG73lDdrxLsbg6Np1gPt6JxThU9+1DZ800BL1gc9w35X5tHgG/JpwMzwiIgV3H/VzTRS/FPEY/BunxP32S6dgu3HUz7WvK4Gd8ZJmTRnRDv6ZGsDvfJBEEwfMZ092LsgoMHk5dW+qU0mzH2o2De9AVyoWcHh3jl9ZQ39KwBKgwN0dVk2tRdT4j9VzYR7596qoIODfOeXZtG0wdHXlLK+Yz26GpycFjHdDRce45Em/7RXXNCGXp3Q3uc07DvQTGMWBqfSziUZBHAoM2ROZZhuVnDyIsDhxyleUX+vS3Mp1BeBlzrjnVpCKC3UnhXgygTAZJmrwcERWCoAwRDdQJRD2uSBbemSs7Jo7ZZDtPLToPNyf698uv2qPJ/DAccj1OzAheZRff5zr5ceXxoeFhtxcwH1vsx+TamqJ540V4PLE2uxFU/4o/Bfb2uk51YFoyJw98f1K6RHFx+gHf/6p7LQ6MruyiYa/9KBMK2OFRzG+aDZldQovExpfbvn0tCbgtO1TE/U0dXgsH5aNcn/Im5rHBJQ4fI/LdZh0i4W8UykwVSj5FjBob5RwokJvRdiqfLEXbFtNaF8vOZqcPiy5WLfC2sp2JKP6mnDt8HwFNZXWHNJGytG4LViJMKwDoPTEmpWcF+KqRdLCWmYmi8/N9LVxzi7d1Zl4B6L/MkOjbke3NtPdqCcLD+4X3Z6adKycBhSdOTBnh1CXTDVvpwVHKZeTMHSMsTa+uVxkYFs1dYPXkWPnwcny9IKHEQau+hAhHuOdITHHr4jGByOBZzVsUE9fUUQe6gIZkuDJ4sdh+//CPcqnx+e3LVc2oFbtekgrdp0SOoaOE4SXualwsuUFgu4WrFvh8ccZGBali0pbuP7R8AoRgAa98tQQxgOi/BkWtqB2yO8xXEWbzF0XSfFjAUc8mIPb97augh4sh7rERutgHb6iZGBbmtenfO0AwcxrBF9lWseKzjU99c/XpolpkPVA0a4Lg2xygl3FBFiqMm2tAS3XsQml4bEJlX3m3jAAQIeGsIuBDzN0MA0rhWJrR3cQ7Gw79iWdwegieMMOwaYjrHVg3UkQJUUZxA8zlSaq0ZcKoVxelsMzumEbPrH4GyEcXoyg3M6IZv+MTgbYZyezOCcTsimfwzORhinJzM4pxOy6R+DsxHG6ckMzumEbPrH4GyEcXoyg3M6IZv+MTgbYZyezOCcTsimfwzORhinJycU3DODSqisc/Ke3nW6mKns38CZO5TNlZXm0jP3lQSueVqE4Wz15mpaI/5UdmePdtRf/LElV4GK7Q007e19ykZswUUrhJrKJ5YqK+TExCkQbZq0BYfm7YYprvGogwrJs9YGjvV2FZgq0aVo0yWuW6kjjU1fgWPRPQwcuhBt1MkuYvSVlfqf1WenRaoS3xEjrGLHYfpp+2FxDP4uQlWLdbQhTwS41uirKua05ClgN8tFgEMXGF7yQMRTsx001KEEhwvRPBxcZ0u+AqopUrZqCw4ZeORJmVJ7xEi7s4f4rXmUoEdUcOhua25qar9S+rcW67KrVXBSKoy+WDwgmZ+P8SkQKzBZa8zgZAGMQBhcWTZ9BbCsijYl2rUQNzi7ijg9tQowuNTqnbDWGFzCpExtRQwutXonrLX/AfB7r8w93JI5AAAAAElFTkSuQmCC;fontColor=#000000;" parent="1" vertex="1">
          <mxGeometry x="-69.61" y="1385" width="39.79" height="68" as="geometry" />
        </mxCell>
        <mxCell id="20" value="" style="shape=image;verticalLabelPosition=bottom;labelBackgroundColor=default;verticalAlign=top;aspect=fixed;imageAspect=0;image=data:image/png,iVBORw0KGgoAAAANSUhEUgAAAMgAAADICAYAAACtWK6eAAAABHNCSVQICAgIfAhkiAAAAAlwSFlzAAALEwAACxMBAJqcGAAAFkJJREFUeJztnWmwHcV1gL/73sNIaAkIA1pAgLAgSCmIWQVICBMWJXGMSWwZXHEZkxiwWcRiIDFgFuPY2DJbCGJJnNiJE2QESVFUESvggAQSIJnYYTFgNiO0mi1oZXnv5cd5F11dTZ/ZemZ67jtfVZdUb+b0nDvTZ6b79Ok+DfKxLfCnwKeBA4CxwHY56zSMPHwArACWAv8O3Am8W4UiM4FXgH4rVgIuryFttTS6ges8/wgrVoouNyFtNxWpBRDjODeDnGFUySHAKOC+NEJpDeQk4HspZQwjFA4BngaeSSrQSFH5EOA5YHxKpQwjJJYBHwPeS3JyT4qK/wzdODYAC4D/S1GnYfhmJDAdtzd1N8TzeofvC9+JewD0ELCT7wsaRkZ2Bhbibq9zi7joS46LrceMwwiPXZBeTVSbfcH3xRrAJsfFUnkFDKNE5hPdZjckraAr4XndyKx5FDbmMELlHcffP5K0gqQGYhiDEjMQw1BI4+b1fd2jgKnABGSO5S1kEuenyHxLFvYFTgfGAI8Bc4CNMTIjgK8AByFxO3OAX8fINJAAzROBPmAecG9C/c4ARg/odwvx/eERwDnAwUgQ3k3ET3Q1kPijE5A+911I4F5/Cv2WIPdifYzMcOA0ZBJuJfKbsj6/ycBxwCRge2Tc+xLikXoQCUQMkh7cLrM0/uQe5GEvV+pruo0PT6njNLZ2JPwcGKrIDAP+t01mPXBYzLW+E6HzlTEyR2bQb0SEfhsT6HdthH5Xx8hMG6i7XT8tOnt4hH4bEujXznRgUYTOrWU5cBbpXurzHHV5NzQfBjIWeFSpJ6r8Dcm7gY876jhLkTnfIfOwIrOXQ6YXfSJ1SQb9LnTIPKLITFT021WR+7lDbpYic4FDZqEi00o38H1HHa6yCOkhJKE2BjIW9zxKXPkH4kNiupCuTpT8jxS5Oxwy2vqBzyq6nuCQ6c6o31yHzCZFZqai36ccMl2KzD971q/1mj9WrquVF0lmJLkNpIxBeg9wN7BnRvlT0d9iID96tePYa4qc69hvFJmVyjGXXB+wxnFsmVKf65im3wrl2KuOv/cpdbpkwH3PtXvU5GLg8wnOi2ICEtmRJRq9EPJ8Qc5RZJOWDejdAxAjapdbC+yuyExAxhztcqcrMl1IF6dd5gH0L51LP61bVqZ+Z2fQb2IG/UC6qe9FyKUtZ8RcJ/guVg/xA/Kk5doYHRvAmYgHaiPSIA5K8NsORTwkG4HnkYcb16UbBdwGvIl4334w8Lek+r2HNOJDE+h3OLCYzR6dsxPo91Gk6/b2gI5zEK9QnH7nI6tENyHjsDT6vUvy+zeH+Oft6pK2lt+gf0WCN5BjFLl+YDYyPukGpiCuT9e5q0gXnm+ESQ/yUnE954eRF1sX0mu4UTm3H/EOugjeQK5Q5GZHnD8cfTC/d+5fYlTNfrif77NEu5X/TpG5RLlW8IP0CcqxqC7TOqTrkqU+ox5ozhrXxKnWvS60TRRtIEOUYy4PiOaF0eoz6oH2DFc5/q55xbSJ1twUbSBvKcdcA+hDFJk3cuhihMHbyrGDHX/X2sSbOXTxRtYxiObifRQZc7QyBfGGuGR29PJrjCoZh/v5bmDrF+dI4AlFRnP15h6DFB2s+FPl2KHAL5Exx0rkLfFl3LH6S4j/gjSQOKCxyM56ryTUczdk8LgC+AVyE+MYhhh0P+LmjAuKbNVvHPJ7kuq3F3AgMrG5uED9uhC37VgkdKcI/ZYjwZaTIo4NRcJUbkee3zjEbby7Ut/8hDoWSp6JwocU2TTlL2KuszNbBrz1AVfFyDSAb7Olz30h8XMaxwKvt8isRqKTi9DvGra8Dw8DOxSkX2s8W5H6RU2aZin/FXOd4N28IG+kvDfiaWCbmOv8q0P2DxWZExwyP1BkRiL93naZNeiRry79ZmTQ7x9rrB/Il+JFh2zS0kf8RHAtDAQkKjfrjdiIbIyt0WDrUO1muV2R+6FDRhtI/omi67El6actcw5dvyaHky/c5PIE1wh+HqTJpehvZRebkP24nog5r4F7lr1PkXMd025gb4b6NP2y1Fdn/ZosQnbqfD/Bue3MIb77Vyo+1oM0kD19XVuxtJenif9ytPIvjnqOU2RmOGRuVWSGIX36dplV6D55l36ut7qm3y011q+dKUh8WpI2sQ74KslDjmrTxWplV2RmdJWjvseRAXncmKOdUWzpEPgA+EYCuSsHzm3K/Yz4wL6j2vRfhSwfTqvfZRn0m4+MM+qsXzvbIg3/f4huE8uRPaGTLpRqkttAklpiD+5P4VzkU5mWBhIu3VyT/gbi/sszGdgAPo4Y4VL0WflWxiFfq2WI67k/gcx2bHZALCK5m/fjA9dbSrJ1E039DkTWZnSKfi52QVzAOyCh9C+yeUCflnlIF72dXjxPcfj8ghhGWdRmkG4YtcQMxDAUzEAMQ8EMxDAUzEAMQ8EMxDAUzEAMQ8EMxDAUzEAMQ8EMxDAUzEAMQ8EMxDAUzEAMQ8EMxDAUysxR2E36zaeb5ydZC9Cb8DzD8E6e9SBH4E4/5rNsQLIhxW3ZYxRPD3AKklZiLcU/ex9lBZIy4sCsPziLgexD8jXovsoCLE1ClYwhfS7KkEofkvA0VRvKaiDXV/QjXXu8GsUyAtlso+pG7qNcBcUP0uPSphXF2IquO9i5gugtRevIpcD+nejF6kVSGhvlsh1wWtVKeKQBzOpEA7kcPbOtUQwHs/Vu/XXn6DLdvO3Mdfx9d2QzsSgW4U6N/A6SGjhuQ2OjGEYrx7TnVjTdyO7zoxCH0YvIdkKtTEW2LmoncVc96yA9y7YrJynX+kxShY3SqfNzc7bTTuxiGYY3zEAMQ8EMxDAUzEAMQ8EMxDAUqnTzZuEC3DvJr0O8EfeWp47hiX2RbLVRrtYkLANuRvKMeKVuBuKaH2nyRSRfxRXFq2J4YhqSU2RIznpOA44GHsutUQshdrF2zil/GTDehyJGKVxPfuMACXWZ7aGeLYj6ggxFsoeOYbMBdSt1jMfd7dktg057ZpBppQtJAvNqzno0GsBkYG/ced1D4V3geSQ5UX/FurTTTbo0e3HEZb1NTauBDEfimM4gXUzNYQPFF295qGO5hzqiaAAnI924jxV0jaJ4Dvm63lm1Ii30Ilms0qZWc1HUc2c08BTlxdprmWdPzln3AxSzYKoLGQhWvU4hb7meYu5P1lCT8zL+jqhyekbd1ZCobmCxRyWTFhfaje4dUDqqvIlkp/2dLHcoARcpetWtzPJ8byC7gTSAs4CXcD/buPICYhxZDV81kC8qPyw0A6kq6G0nyl86XGRZiyTJ9EmIzy0parDiKdXpVRtmoucYrxvDic7+arTRRcZdHAYZnXiPvHt8OpEeZKF9FIuA69r+1kAWn+yA9BnjcprfSmdswzPS8fd+5OsSKt241+tsX6YidUWbSV+G9M3ycH1O+dDpI/89KpK6RUoER4gz6YYRDHV7wxyBW+d1yE5+60rTxuh46mYg58Ycfx1xKT5Ugi7GICDELlYed+pHkVCKYZ50MQY5IRrIvjnld0K2cTHqRQPp0WQphRGigfhAm6k3wqKBhPGsBN7PWFYgMV3eY8xCHIM8k1N+FfCwD0WMUrgQuCZnHWOAaxFjuSm3Ri2E+AXZlEN2FRJCscGTLkaxNIDzPdbnsy4gzC+IxveR3BNRvIN8Ocw46kMXsIvH+nytK/mQuhnIo4Q9cx0aoY/FeoGl+IsLe9xTPR8SYhfLGFzMws9Xfx3WxTI6kEXA/siuJFk323gFCYx92ZNOH2IGYoTAC4irNzisi2UYCnX7gnTj1tnypBveqdsX5A7cs6mWJ93wTogGkjVcYAjw58B/5KjDMLYgRAPZO6f8NCxPuuGJEMcgPraj8T6jasSijf++hnt72qLpASYg7WoTksSzfVGda2fQvhAN5KWc8pYnfTNlOi1WKscOHSghkGbL2OUhdrHW5JS/HMuTXgVLkA3pOon7Q/yCaFie9HDZCMwh0Am/DPQBN9bNQK7DghVD5ipgBrBf1Yp44ArgyRC7WEZ9WQ8cCyysWpEc9AHfAK6GML1YRr1ZAxwFfA7Z9/kgittxP44u3HNivS3/70Nyi9wP3Ag82TxgBmIUQR/wbwOlSuYRvUl3LwnbvnWxDEPBDMQwFOrWxbI86Uap1M1AkuRJvwqZLDQs/D83IXax8u5ycSmWJ93wRIgG4itPumHkJkQDedNDHYXlyzYGFyEayK9zyv8Mi+Y1PBHiIF0bWPYpx5vBihcp5xhGKkI0EI3PYcGKRomE2MUyjGAwAzEMhR6kvx4V8TiVrbszI5D1vUMQb9PLwAdK/Tt60DEE+hx/7ybsLp+2u0uvcswYoAfJzjMu4tg4oiMhm+xKZyyMScIK5Zh2j0LGXOEJ6AIeqFqJGtCJ96gTf5N3eoAbgC9Qj83WqsqTfh/wHLBPAXVXwZPY2v1UfBMZi5RZXJyUo87fAtNz3Qk3U5B9lcq+T77LBuBAz/cmVOYRfQ+0cXMkDeBKNk/EFV20AeKXcta9huLypB89UH/VjTxrWYnsPDlY8GYgTfYH/h7xTr03UFGzuG56X9t5rcVlcJqC31WulbQcn/UGJGAUcBnwBLJJgeu3h1LWIWnOvg5sX8D9CBnvBuKi6Q6OKnd4VtCHgRyX/icaHUhuAwlxotDypBvBEKKBWJ50IxjqFqxoedKNUqmbgViedKNUQuxiGUYw1O0LYmzJaOAAYGSJ13wfiSp4GvEIdTRmIPVkMjAb2Um9Kp5H5oN+UqEOhWNdrPrxSWTir0rjAMklORfZ7LkOcXyZqOoL0lCu3a3IDfY86ZORdfdDqlakhbORtHnXV61IlfieSS+ibKTz86TfR3n3M01ZS5j3vSNn0rPS6XnSx1B9t8rFcOq7cEylkwykSafmSQ99t8iDqlagCIoeg1S17rkT86RrrtxrgcUl6NCNu0tdVRapQinaQJYAMwu+RjuDMU/6YsqJMBh00wJFd7HmIOsmyuRyLE+64Ymi3wjrkTHBl5FxQZrrjUF2TgHJjb4q5nzLk254p4xP5gZkYwjDqB2d6MUyDG+YgRiGghmIYSiYgRiGghmIYSiYgRiGghmIYSiYgRiGghmIYSiYgRiGghmIYSiYgQxetLX/xgCDwUB2Br6FbIqtpXEou6wAfkT5yWymIetlPhjQ4Tw6c4lyqWTdtKFqZiDZeKs2Bq30AVcT30i1zFufSXg/9kU2t2iXPyuhfN3agW3aoDAVuAfYoWpFYmgAlyAZvormDKK3DDq/hGvXkqqWUG4DfAJpxHsiD+1t4ClgPvArD/X/08C/deFS4C7glwVeIyrdN8D4Aq+ZhslI8qNJSDasTcieWwuRBK3eM0PFUbaBbAOcCVyEvrHCw8BfAY9kvM4ngb0yylZFA5gFnFq1IhUwHfg2cJhyzoqBc26hREMps4u1K9LwryN+15GpA+d+h2w6Hp1BJgTqqndWupGcLw+iGwfAWOBvgQWUuGtNWV+QXZHP5B4p5S4GdkHeqv0p5EYrx+am1KEIphLd3RlbtiIV0oV48T6fUu4w5OU5FcnaWyhlGMg2SN96j4zypyCJ769NIePyCPUi3qCqmUf0ToSd7DRp52LSG0eTCcgGHdMpeO+1Mh7ImcAhOev4FuEMJI387EV+r90RyG45hVK0gWyDDMjjiOs+DcFckZ3E14j3MCbpUv81BUcEFG0gn0AfUM1G+t09wBTgMeXckxlcXZBOpQe9m/sIm/dQ2w0ZmLsYj3xJCqPoBjdVOTYbuBAZaPUhxnEM4veOYmdgolftjCpoznFE8RwyD7IUaROvAecANyv1TfOqXRtFG8ieyrGoQfc64DZFZkI+dYwA0NrELUSn8dYcNIW2iaINxJUJqR9Y7Timue6G5lPHCAAtO5Zre9nK2kTRBvK24+8N3PkkNI/X6/nUMQLA1SbAnddFaxNv5tAllqIN5Cnl2A1IZqJWpgB/qcg8k1sjo2q0NvEVtn5xjkTvYmn15aboicL5yrEpSGDebcgn9BDEOLZ1nL+Ucr4gI5EJqH4kBGJdApku4HDEY7cUeLko5RycChyZ4Lzfd/y9C8lWG4ePF+py5EU3KeLYUCTi4nbkPo4DTgd2V+rT2lhp5FkHsFCRTVPSTAplXQdwDFuuH/ktYiwaOyEeuNb1Hd8sQD9tPUgIJc16kFmerhmX6iL3epCk5DGQIxTZpOUZ0oWuZ7kxI4leXLUGGKbI3eG41h951u9LDplQygJF93aGAi/mvF4f8XkRa7Fg6hHgmhzym4AvAO/7UcfJdKIXV+2Eez6nC/i049iJPpRqYV/P9fnGtdYkio3kf6ZXIt2wQilrZvrryAKmtGwCPks5OQe1r8QIx9+7cI+ZXDKGsAjpNmYxkjnAVX7ViaYsA+lDBpIXII0+Cb9C3tz3FqVUzci7yrJolmWQuRtxLryQ8Pz1SPDrmUhXqXDKjG3qR9x1+yAu3jWO85YCpwH7M/iy1WpsrFqBGOJySLp4FPg9pNH/wnHOCiQ0aSISdlKKcUA1a9JfBc5FonMnIqECQxEX7jPYZGAW7kXimJIyEoltW4s7osHFBSnPT8K7SMO/GVkgNwkZD65HBvPNAX3pVJn3ug95qGkerBHNDyknTzoUYyCtrCa90RaGhY8bhoIPA7Fd+YxQyd02kxpIL253XKcshX1VOfaK4+/N7TvTyBjlsYfj7+uTVpDUQPqRgVIUU0gWBxQ6jxK9D9d/o3vTvhvxt3XArT6UMjJzDHCA45irLW9FmkH6AuB3HcfuQdYZ3w28k6LOosjyae0DPoXs03TiQB13Ir9L86DcOCB7HjKb/NjA/1/OoAO4n0nou7E3qNbp09RhJDK5HPXiapImLCYxR1J9vE/eUvrWlQ5cMUJZS9LNq31Q9TP0UVzrTrYizSB9IQVZXomE4lDwHYYSyu+qA/8JLEl6choD6Udi86PWDNeFUNzavtdRl7UPcd0NcS3JUz0A6RvMs8j2O6F0VeqKti47C2WleAjlBZOF94CZpBigQ7YffA/wx8AbGWSrppJwhQje8lyfa6sk3xS6zWeBrAGOR7pXqcj6RpiPxMvMIXl0bgiEYiC+G3QdX1ZlsBHxMk5Clk+nJo9bbg3wVWT7x+OR1V1jCCNpzRHIjvLthGIgri5qP/ATx7HxxKcIqJJXgcVVK4FMaC9HosLnE8a0Q3CUthY5I77XpIfg5g0xR2Fu6jzoMozCqXrms2xCmO2F+r6Y6u7mTU0IjaUIXIGVXcqxEHhXOaZ1v9o34CsK16bTEPZ9zUxd32Rx1HUR1rPKMVfUMJQ3BpmpHFtekg6GB/aj+nifLOUS5TcNQya7XLJXUGyP4BjEIxSCo6A0OrlPeSf1emirkWhpbXPne5FJWhevAU/gt7vTQNZVuELHQeYbRmMu1VoxCnia6r8KScoGkq2p+YMAdI0qNyTQ3QiQUbi3Bg2lPAkcmOI33RWAzq1lNbBjCv1rRSd3sVqZjGwRug/wkYp1AVlgtRy4f6CkiXEahcxY712AXml5H0mZ9mDFehjGFoxDUkdU+eV4B5hR9A81jKxsB3wPmTsp2zjuo7w1KJUyWLpYncxYZKf045Gu5Cj8P9fmDocLgB+TYkVe3fl/ETcZTgMRupkAAAAASUVORK5CYII=;fontColor=#000000;" parent="1" vertex="1">
          <mxGeometry x="124.39" y="1171" width="90" height="90" as="geometry" />
        </mxCell>
        <mxCell id="21" value="Raspberry Pi&lt;br style=&quot;font-size: 18px;&quot;&gt;Server" style="text;strokeColor=none;fillColor=none;html=1;fontSize=18;fontStyle=1;verticalAlign=middle;align=center;fontColor=#000000;" parent="1" vertex="1">
          <mxGeometry x="214.39" y="1131" width="100" height="40" as="geometry" />
        </mxCell>
        <mxCell id="23" value="" style="shape=image;verticalLabelPosition=bottom;labelBackgroundColor=default;verticalAlign=top;aspect=fixed;imageAspect=0;image=data:image/png,iVBORw0KGgoAAAANSUhEUgAAAG4AAAC8CAYAAACZrZvfAAAMQWlDQ1BJQ0MgUHJvZmlsZQAASImVVwdYU8kWnluSkEBooUsJvQkiNYCUEFoA6UUQlZAECCXGQFCxI4sKrgUVC9jQVRHFDogFRRQLi2LviwUVZV0s2JU3KaDrvvK9+b65899/zvznzLkz994BQO0ERyTKRdUByBMWiGNDAujjklPopKcABeqABlyAKYebL2JGR0cAWIbav5d31wEiba84SLX+2f9fiwaPn88FAImGOJ2Xz82D+CAAeDVXJC4AgCjlzacWiKQYVqAlhgFCvFCKM+W4WorT5XivzCY+lgVxGwBKKhyOOBMA1UuQpxdyM6GGaj/ETkKeQAiAGh1i37y8yTyI0yC2gTYiiKX6jPQfdDL/ppk+rMnhZA5j+VxkRSlQkC/K5Uz/P9Pxv0termTIhxWsKlni0FjpnGHebuZMDpdiFYj7hOmRURBrQvxBwJPZQ4xSsiShCXJ71JCbz4I5AzoQO/E4geEQG0IcLMyNjFDw6RmCYDbEcIWg0wQF7HiI9SBeyM8PilPYbBJPjlX4QhsyxCymgj/LEcv8Sn3dl+QkMBX6r7P4bIU+plqUFZ8EMQVii0JBYiTEqhA75ufEhStsxhRlsSKHbMSSWGn8FhDH8oUhAXJ9rDBDHByrsC/Lyx+aL7YpS8COVOD9BVnxofL8YG1cjix+OBfsEl/ITBjS4eePixiaC48fGCSfO/aML0yIU+h8EBUExMrH4hRRbrTCHjfj54ZIeTOIXfML4xRj8cQCuCDl+niGqCA6Xh4nXpTNCYuWx4MvAxGABQIBHUhgTQeTQTYQdPY19sE7eU8w4AAxyAR84KBghkYkyXqE8BoHisCfEPFB/vC4AFkvHxRC/uswK786gAxZb6FsRA54AnEeCAe58F4iGyUc9pYIHkNG8A/vHFi5MN5cWKX9/54fYr8zTMhEKBjJkEe62pAlMYgYSAwlBhNtcQPcF/fGI+DVH1ZnnIF7Ds3juz3hCaGL8JBwjdBNuDVJUCz+KcqxoBvqBytykf5jLnArqOmGB+A+UB0q4zq4AXDAXaEfJu4HPbtBlqWIW5oV+k/af5vBD09DYUd2IqNkXbI/2ebnkap2qm7DKtJc/5gfeazpw/lmDff87J/1Q/Z5sA3/2RJbiB3A2rGT2DnsKNYI6FgL1oR1YMekeHh1PZatriFvsbJ4cqCO4B/+hp6sNJP5TnVOvU5f5H0F/GnSdzRgTRZNFwsyswroTPhF4NPZQq7jSLqzk7MLANLvi/z19SZG9t1AdDq+c/P/AMCnZXBw8Mh3LqwFgH0ecPsf/s7ZMOCnQxmAs4e5EnGhnMOlFwJ8S6jBnaYPjIE5sIHzcQbuwBv4gyAQBqJAPEgGE2H0WXCdi8FUMBPMA6WgHCwDq8A6sBFsATvAbrAfNIKj4CQ4Ay6AS+AauANXTw94AfrBO/AZQRASQkVoiD5iglgi9ogzwkB8kSAkAolFkpE0JBMRIhJkJjIfKUcqkHXIZqQW2YccRk4i55Au5BbyAOlFXiOfUAxVQbVQI9QKHYUyUCYajsajE9BMdApahJagS9A1aA26C21AT6IX0GtoN/oCHcAApozpYKaYA8bAWFgUloJlYGJsNlaGVWI1WD3WDJ/zFawb68M+4kSchtNxB7iCQ/EEnItPwWfji/F1+A68AW/Dr+AP8H78G4FKMCTYE7wIbMI4QiZhKqGUUEnYRjhEOA33Ug/hHZFI1CFaEz3gXkwmZhNnEBcT1xP3EE8Qu4iPiAMkEkmfZE/yIUWROKQCUilpLWkXqYV0mdRD+qCkrGSi5KwUrJSiJFQqVqpU2ql0XOmy0lOlz2R1siXZixxF5pGnk5eSt5KbyRfJPeTPFA2KNcWHEk/JpsyjrKHUU05T7lLeKCsrmyl7KscoC5TnKq9R3qt8VvmB8kcVTRU7FZZKqopEZYnKdpUTKrdU3lCpVCuqPzWFWkBdQq2lnqLep35Qpak6qrJVeapzVKtUG1Qvq75UI6tZqjHVJqoVqVWqHVC7qNanTla3Umepc9Rnq1epH1a/oT6gQdMYrRGlkaexWGOnxjmNZ5okTSvNIE2eZonmFs1Tmo9oGM2cxqJxafNpW2mnaT1aRC1rLbZWtla51m6tTq1+bU1tV+1E7WnaVdrHtLt1MB0rHbZOrs5Snf0613U+6RrpMnX5uot063Uv677XG6Hnr8fXK9Pbo3dN75M+XT9IP0d/uX6j/j0D3MDOIMZgqsEGg9MGfSO0RniP4I4oG7F/xG1D1NDOMNZwhuEWww7DASNjoxAjkdFao1NGfcY6xv7G2cYrjY8b95rQTHxNBCYrTVpMntO16Ux6Ln0NvY3eb2poGmoqMd1s2mn62czaLMGs2GyP2T1zijnDPMN8pXmreb+FicVYi5kWdRa3LcmWDMssy9WW7ZbvraytkqwWWDVaPbPWs2ZbF1nXWd+1odr42UyxqbG5aku0Zdjm2K63vWSH2rnZZdlV2V20R+3d7QX26+27RhJGeo4UjqwZecNBxYHpUOhQ5/DAUccxwrHYsdHx5SiLUSmjlo9qH/XNyc0p12mr053RmqPDRhePbh792tnOmetc5XzVheoS7DLHpcnllau9K991g+tNN5rbWLcFbq1uX9093MXu9e69HhYeaR7VHjcYWoxoxmLGWU+CZ4DnHM+jnh+93L0KvPZ7/eXt4J3jvdP72RjrMfwxW8c88jHz4fhs9un2pfum+W7y7fYz9eP41fg99Df35/lv83/KtGVmM3cxXwY4BYgDDgW8Z3mxZrFOBGKBIYFlgZ1BmkEJQeuC7gebBWcG1wX3h7iFzAg5EUoIDQ9dHnqDbcTmsmvZ/WEeYbPC2sJVwuPC14U/jLCLEEc0j0XHho1dMfZupGWkMLIxCkSxo1ZE3Yu2jp4SfSSGGBMdUxXzJHZ07MzY9jha3KS4nXHv4gPil8bfSbBJkCS0JqolpibWJr5PCkyqSOoeN2rcrHEXkg2SBclNKaSUxJRtKQPjg8avGt+T6pZamnp9gvWEaRPOTTSYmDvx2CS1SZxJB9IIaUlpO9O+cKI4NZyBdHZ6dXo/l8VdzX3B8+et5PXyffgV/KcZPhkVGc8yfTJXZPZm+WVVZvUJWIJ1glfZodkbs9/nROVszxnMTcrdk6eUl5Z3WKgpzBG2TTaePG1yl8heVCrqnuI1ZdWUfnG4eFs+kj8hv6lAC/7Id0hsJL9IHhT6FlYVfpiaOPXANI1pwmkd0+2mL5r+tCi46LcZ+AzujNaZpjPnzXwwizlr82xkdvrs1jnmc0rm9MwNmbtjHmVezrzfi52KK4rfzk+a31xiVDK35NEvIb/UlaqWiktvLPBesHEhvlCwsHORy6K1i76V8crOlzuVV5Z/WcxdfP7X0b+u+XVwScaSzqXuSzcsIy4TLru+3G/5jgqNiqKKRyvGrmhYSV9ZtvLtqkmrzlW6Vm5cTVktWd29JmJN01qLtcvWflmXte5aVUDVnmrD6kXV79fz1l/e4L+hfqPRxvKNnzYJNt3cHLK5ocaqpnILcUvhlidbE7e2/8b4rXabwbbybV+3C7d374jd0VbrUVu703Dn0jq0TlLXuyt116Xdgbub6h3qN+/R2VO+F+yV7H2+L23f9f3h+1sPMA7UH7Q8WH2IdqisAWmY3tDfmNXY3ZTc1HU47HBrs3fzoSOOR7YfNT1adUz72NLjlOMlxwdbiloGTohO9J3MPPmodVLrnVPjTl1ti2nrPB1++uyZ4DOn2pntLWd9zh4953Xu8HnG+cYL7hcaOtw6Dv3u9vuhTvfOhoseF5sueV5q7hrTdfyy3+WTVwKvnLnKvnrhWuS1rusJ12/eSL3RfZN389mt3Fuvbhfe/nxn7l3C3bJ76vcq7xver/nD9o893e7dxx4EPuh4GPfwziPuoxeP8x9/6Sl5Qn1S+dTkae0z52dHe4N7Lz0f/7znhejF577SPzX+rH5p8/LgX/5/dfSP6+95JX41+HrxG/0329+6vm0diB64/y7v3ef3ZR/0P+z4yPjY/inp09PPU7+Qvqz5avu1+Vv4t7uDeYODIo6YI/sVwGBFMzIAeL0dAGoyADR4PqOMl5//ZAWRn1llCPwnLD8jyoo7APXw/z2mD/7d3ABg71Z4/IL6aqkARFMBiPcEqIvLcB06q8nOldJChOeATeyv6Xnp4N8U+Znzh7h/boFU1RX83P4L1Dd8fKcDh3UAAACKZVhJZk1NACoAAAAIAAQBGgAFAAAAAQAAAD4BGwAFAAAAAQAAAEYBKAADAAAAAQACAACHaQAEAAAAAQAAAE4AAAAAAAAAkAAAAAEAAACQAAAAAQADkoYABwAAABIAAAB4oAIABAAAAAEAAABuoAMABAAAAAEAAAC8AAAAAEFTQ0lJAAAAU2NyZWVuc2hvdKh2xj4AAAAJcEhZcwAAFiUAABYlAUlSJPAAAAHWaVRYdFhNTDpjb20uYWRvYmUueG1wAAAAAAA8eDp4bXBtZXRhIHhtbG5zOng9ImFkb2JlOm5zOm1ldGEvIiB4OnhtcHRrPSJYTVAgQ29yZSA2LjAuMCI+CiAgIDxyZGY6UkRGIHhtbG5zOnJkZj0iaHR0cDovL3d3dy53My5vcmcvMTk5OS8wMi8yMi1yZGYtc3ludGF4LW5zIyI+CiAgICAgIDxyZGY6RGVzY3JpcHRpb24gcmRmOmFib3V0PSIiCiAgICAgICAgICAgIHhtbG5zOmV4aWY9Imh0dHA6Ly9ucy5hZG9iZS5jb20vZXhpZi8xLjAvIj4KICAgICAgICAgPGV4aWY6UGl4ZWxZRGltZW5zaW9uPjE4ODwvZXhpZjpQaXhlbFlEaW1lbnNpb24+CiAgICAgICAgIDxleGlmOlBpeGVsWERpbWVuc2lvbj4xMTA8L2V4aWY6UGl4ZWxYRGltZW5zaW9uPgogICAgICAgICA8ZXhpZjpVc2VyQ29tbWVudD5TY3JlZW5zaG90PC9leGlmOlVzZXJDb21tZW50PgogICAgICA8L3JkZjpEZXNjcmlwdGlvbj4KICAgPC9yZGY6UkRGPgo8L3g6eG1wbWV0YT4Kbq6ZBgAAABxpRE9UAAAAAgAAAAAAAABeAAAAKAAAAF4AAABeAAADX910R+IAAAMrSURBVHgB7JhBTttAAEWHRQXtAhaVWJJ14QxwCRBS1fYiVVFVIfUiBSEhuAScAboOS3awKVUXbcbQKHHIZGz9/GTIs4QgxP5//J7H42Tpb28LbMURWEJccc6qASOuTG8BcYgrlEChw2bGLYK4s8u76jR/dn+H65uHQk95foa9ubFSDWZ3e7X6vdl5fJ0zwqwZF4WdP0nLCWWfdgSiyCgxR2BS3HX3oSfsntnVzkPro3a318Je7ye1jRXHLEthm/57k+Q9Ky7OtMPj2+mPjoYkgZS8Z8W9/36TDORNH4Fx8kbEHR7dZq1pcSF911n2ncELaopP5XHLfTI/+bwxcvZD4nJukeOugJFk/pFFoC3zIXGTZhvSsly02mkS+/qsGxKXWtuQ1spHo4Oa8O+LS03ZuJ4dfFxvNAh2bk4g9RGsPnH64lIHHXxYz/o033yoHFEnMG7W1ScP4urkZvw6tdYNrnNZ4gYPmPF5vfh6xBWqGHGIC4Fbpe8qYMb5WEubECfF6QubqbivP+7DVfeP72znuOnbp9Ww1XmVPcKZiYvCoji2RwL7O2/C/s7rbBxzIS5ebYu6nV78qu46RYo7+/J2Ub1Vd51490FcYZfA/3UecYgb+jwt/65y8OGEWyW3ysLmW2CNK87Y04BZ4wo1hzjE9QkMftnPw0kfi/YPZpyWpy0NcTbU2iLEaXna0hBnQ60tQpyWpy0NcTbU2iLEaXna0hBnQ60tQpyWpy0NcTbU2iLEaXna0hBnQ60tQpyWpy0NcTbU2iLEaXna0hBnQ60tQpyWpy0NcTbU2iLEaXna0hBnQ60tQpyWpy0NcTbU2iLEaXna0hBnQ60tQpyWpy0NcTbU2iLEaXna0hBnQ60tQpyWpy0NcTbU2iLEaXna0hBnQ60tQpyWpy0NcTbU2iLEaXna0hBnQ60tQpyWpy0NcTbU2iLEaXna0hBnQ60tQpyWpy0NcTbU2iLEaXna0hBnQ60tQpyWpy0NcTbU2iLEaXna0hBnQ60tQpyWpy0NcTbU2iLEaXna0hBnQ60tQpyWpy0NcTbU2iLEaXna0hBnQ60tQpyWpy1t2uL+AQAA//+odvKPAAAIxElEQVTtnAmMFEUUht+w9wUL6IrXonig64EmikeCqKgoIpqIIqKAAoZbNJ6AkMipgYAIKoIKoqwSIDF4gJhoIMRbYoyr4glyibLLXrAss7vWP0PN0VM9O0PNTHUP7yWbnq6ua/5vq/rVq572tAgjYas3V9Ma8aey8omlqmRl2o/bj9DUFTW+a6snd1TmOR4SoQG0uPuafPGXF/NXnvbWPqrY0aDMH8rBw+CUGmknMjhtCc1UwODM6K7dKoPTltBMBQzOjO7arTI4bQnNVMDgzOiu3SqD05bQTAUMzozu2q0yOG0JzVTA4Mzort0qg9OW0EwFDM6M7tqtMjhtCc1UwODM6K7dKoPTltBMBQzOjO7arTI4bQnNVOBqcBd0zjKjmgNaxWMLMNc8uoDO9p++Hwc2oYCrwIGY/I873unFO+sYe1joeAel+/0ZnK6ChsozOEPC6zbL4HQVNFSewRkSXrdZBqeroKHyDM6Q8LrNMjhdBQ2VZ3CGhNdtlsHpKmioPIMzJLxuswxOV0FD5RmcIeF1m2VwugoaKs/gDAmv2yyD01XQUHlXgZv9bi1982tjhFRXnpdNj/UvikhXJeDVESMXVNH+muaIy3f1yKMBPfPD0vGuiXtm7aemyOxh+UJPsjM9tPKpDqFJCf+cFuCyhFCvPdKe8nM8rQpUIZ7xmHL0NR3WzCpwVXXNNGJ+lTVr1HMGZ5HHbsQh2+i+hXT9JTmWEpGniz+sp43fqd8PogL3224vPfW6+r0ukbX7UxicRZlo4C46M4umDmprKRF+6m0iGj6/kuoO+d61E35RnKnAffFzI81ZXRvICyinnpAROFd9yMokmjm0nepSwtLSYqqEGh4xSy4e3546FLWxFQf3R8C3MxW4979qoGUf1weKxPIPEsicxA9pAw4aDbmxgG67ItdWrnlra2lLRaRzIwuowC3fWE/rvgxOrdd1y6ExtxXKIsaOrgbX5eRM+mOPNyAezp8fpp6iGhpbaNi8Kjp8xD9N5mZ7fKNz934xfx41Fbi5a2rp85+CsFV5ZPlUHl0NrseFOT5wu0LEXzCqmE7pGHkP2vTDYVrwXl1A254X59Cvu7zUGriJb1TTNpFP2ijhBPUSThDw1x1soYI8D7Vp3ZmVxRN2dDW47l2z6Swxyso/OxgQxG5EzCivoa2/+x/3RuYpwpFZtK4ubD2nKvvQC1VUWRtcxN1yeS7t/K+Jfv7bS0e8LYSlyGnCWTn7lEwaIN5+V1xof48NdDIBH1wNrluXLBp5ayGNfrHKNwKgR6cOGbRwdHGYNDUH/WsxuYiGAwNHZujcSqpvCHqYVnDIj8W3/4WPYVUqT4ryPTSyTyFdIQICyTZXg+t6WibNEG73lDdrxLsbg6Np1gPt6JxThU9+1DZ800BL1gc9w35X5tHgG/JpwMzwiIgV3H/VzTRS/FPEY/BunxP32S6dgu3HUz7WvK4Gd8ZJmTRnRDv6ZGsDvfJBEEwfMZ092LsgoMHk5dW+qU0mzH2o2De9AVyoWcHh3jl9ZQ39KwBKgwN0dVk2tRdT4j9VzYR7596qoIODfOeXZtG0wdHXlLK+Yz26GpycFjHdDRce45Em/7RXXNCGXp3Q3uc07DvQTGMWBqfSziUZBHAoM2ROZZhuVnDyIsDhxyleUX+vS3Mp1BeBlzrjnVpCKC3UnhXgygTAZJmrwcERWCoAwRDdQJRD2uSBbemSs7Jo7ZZDtPLToPNyf698uv2qPJ/DAccj1OzAheZRff5zr5ceXxoeFhtxcwH1vsx+TamqJ540V4PLE2uxFU/4o/Bfb2uk51YFoyJw98f1K6RHFx+gHf/6p7LQ6MruyiYa/9KBMK2OFRzG+aDZldQovExpfbvn0tCbgtO1TE/U0dXgsH5aNcn/Im5rHBJQ4fI/LdZh0i4W8UykwVSj5FjBob5RwokJvRdiqfLEXbFtNaF8vOZqcPiy5WLfC2sp2JKP6mnDt8HwFNZXWHNJGytG4LViJMKwDoPTEmpWcF+KqRdLCWmYmi8/N9LVxzi7d1Zl4B6L/MkOjbke3NtPdqCcLD+4X3Z6adKycBhSdOTBnh1CXTDVvpwVHKZeTMHSMsTa+uVxkYFs1dYPXkWPnwcny9IKHEQau+hAhHuOdITHHr4jGByOBZzVsUE9fUUQe6gIZkuDJ4sdh+//CPcqnx+e3LVc2oFbtekgrdp0SOoaOE4SXualwsuUFgu4WrFvh8ccZGBali0pbuP7R8AoRgAa98tQQxgOi/BkWtqB2yO8xXEWbzF0XSfFjAUc8mIPb97augh4sh7rERutgHb6iZGBbmtenfO0AwcxrBF9lWseKzjU99c/XpolpkPVA0a4Lg2xygl3FBFiqMm2tAS3XsQml4bEJlX3m3jAAQIeGsIuBDzN0MA0rhWJrR3cQ7Gw79iWdwegieMMOwaYjrHVg3UkQJUUZxA8zlSaq0ZcKoVxelsMzumEbPrH4GyEcXoyg3M6IZv+MTgbYZyezOCcTsimfwzORhinJzM4pxOy6R+DsxHG6ckMzumEbPrH4GyEcXoyg3M6IZv+MTgbYZyezOCcTsimfwzORhinJycU3DODSqisc/Ke3nW6mKns38CZO5TNlZXm0jP3lQSueVqE4Wz15mpaI/5UdmePdtRf/LElV4GK7Q007e19ykZswUUrhJrKJ5YqK+TExCkQbZq0BYfm7YYprvGogwrJs9YGjvV2FZgq0aVo0yWuW6kjjU1fgWPRPQwcuhBt1MkuYvSVlfqf1WenRaoS3xEjrGLHYfpp+2FxDP4uQlWLdbQhTwS41uirKua05ClgN8tFgEMXGF7yQMRTsx001KEEhwvRPBxcZ0u+AqopUrZqCw4ZeORJmVJ7xEi7s4f4rXmUoEdUcOhua25qar9S+rcW67KrVXBSKoy+WDwgmZ+P8SkQKzBZa8zgZAGMQBhcWTZ9BbCsijYl2rUQNzi7ijg9tQowuNTqnbDWGFzCpExtRQwutXonrLX/AfB7r8w93JI5AAAAAElFTkSuQmCC;fontColor=#000000;" parent="1" vertex="1">
          <mxGeometry x="364.6" y="1385" width="39.79" height="68" as="geometry" />
        </mxCell>
        <mxCell id="24" value="" style="shape=image;html=1;verticalAlign=top;verticalLabelPosition=bottom;labelBackgroundColor=#ffffff;imageAspect=0;aspect=fixed;image=https://cdn0.iconfinder.com/data/icons/game-asset-1/24/gamepad-1-128.png;fontColor=#000000;" parent="1" vertex="1">
          <mxGeometry x="344.39" y="1453" width="88" height="88" as="geometry" />
        </mxCell>
        <mxCell id="26" value="Bluetooth" style="edgeStyle=none;html=1;entryX=1;entryY=0.75;entryDx=0;entryDy=0;labelBorderColor=none;strokeColor=#2D7600;fontSize=14;fontColor=#000000;labelBackgroundColor=none;horizontal=0;exitX=0.5;exitY=0;exitDx=0;exitDy=0;fillColor=#60a917;" parent="1" source="23" target="20" edge="1">
          <mxGeometry x="-0.5438" y="-9" relative="1" as="geometry">
            <mxPoint x="-26.69505586592173" y="1408" as="sourcePoint" />
            <mxPoint x="162.39" y="1261.5" as="targetPoint" />
            <Array as="points">
              <mxPoint x="384.39" y="1240" />
            </Array>
            <mxPoint as="offset" />
          </mxGeometry>
        </mxCell>
        <mxCell id="27" value="" style="image;html=1;image=img/lib/clip_art/networking/Wireless_Router_128x128.png;labelBackgroundColor=#1D1B1B;fontSize=14;fontColor=#fefbfb;" parent="1" vertex="1">
          <mxGeometry x="104.89" y="987" width="129" height="115" as="geometry" />
        </mxCell>
        <mxCell id="34" value="" style="points=[];aspect=fixed;html=1;align=center;shadow=0;dashed=0;image;image=img/lib/allied_telesis/computer_and_terminals/Personal_Computer.svg;labelBackgroundColor=#1D1B1B;fontSize=14;fontColor=#fefbfb;" parent="1" vertex="1">
          <mxGeometry x="625.46" y="1426" width="84.85" height="115" as="geometry" />
        </mxCell>
        <mxCell id="35" value="&lt;span style=&quot;font-family: Helvetica; font-style: normal; font-variant-ligatures: normal; font-variant-caps: normal; font-weight: 400; letter-spacing: normal; orphans: 2; text-align: center; text-indent: 0px; text-transform: none; widows: 2; word-spacing: 0px; -webkit-text-stroke-width: 0px; text-decoration-thickness: initial; text-decoration-style: initial; text-decoration-color: initial; float: none; display: inline !important;&quot;&gt;&lt;font style=&quot;font-size: 18px;&quot;&gt;Bluetooth&lt;/font&gt;&lt;/span&gt;" style="endArrow=classic;startArrow=classic;html=1;labelBackgroundColor=none;labelBorderColor=none;strokeColor=#030303;fontSize=14;fontColor=#000000;exitX=1;exitY=0.25;exitDx=0;exitDy=0;horizontal=0;entryX=0.776;entryY=-0.001;entryDx=0;entryDy=0;entryPerimeter=0;" parent="1" source="20" target="34" edge="1">
          <mxGeometry x="0.6095" y="22" width="50" height="50" relative="1" as="geometry">
            <mxPoint x="802.89" y="1106" as="sourcePoint" />
            <mxPoint x="963.89" y="1068" as="targetPoint" />
            <mxPoint as="offset" />
            <Array as="points">
              <mxPoint x="690" y="1196" />
            </Array>
          </mxGeometry>
        </mxCell>
        <mxCell id="37" value="Gateway" style="text;html=1;strokeColor=none;fillColor=none;align=center;verticalAlign=middle;whiteSpace=wrap;rounded=0;labelBackgroundColor=none;fontSize=28;fontColor=#030303;fontStyle=1" parent="1" vertex="1">
          <mxGeometry x="124.39" y="941" width="60" height="30" as="geometry" />
        </mxCell>
        <mxCell id="39" value="Time Stamp: String&lt;br&gt;Name: String&lt;br&gt;" style="text;html=1;align=left;verticalAlign=middle;whiteSpace=wrap;rounded=0;fontSize=18;fontColor=#000000;" parent="1" vertex="1">
          <mxGeometry x="404.39" y="1311" width="180" height="50" as="geometry" />
        </mxCell>
        <mxCell id="40" value="Data send once &lt;br&gt;the button click" style="text;strokeColor=none;fillColor=none;html=1;fontSize=18;fontStyle=1;verticalAlign=middle;align=center;fontColor=#000000;" parent="1" vertex="1">
          <mxGeometry x="426.61" y="1271" width="100" height="40" as="geometry" />
        </mxCell>
        <mxCell id="41" value="First person to press" style="text;strokeColor=none;fillColor=none;html=1;fontSize=18;fontStyle=1;verticalAlign=middle;align=center;fontColor=#000000;" parent="1" vertex="1">
          <mxGeometry x="-229.61" y="1155" width="100" height="40" as="geometry" />
        </mxCell>
        <mxCell id="42" value="LedStatus: Int&lt;br&gt;Buzzer: Int&lt;br&gt;DisplayString: String&lt;br&gt;(Display the word &quot;Answer&quot;)" style="text;html=1;strokeColor=none;fillColor=none;align=left;verticalAlign=middle;whiteSpace=wrap;rounded=0;fontSize=18;fontColor=#000000;" parent="1" vertex="1">
          <mxGeometry x="-249.61" y="1221" width="180" height="50" as="geometry" />
        </mxCell>
        <mxCell id="43" value="" style="endArrow=classic;html=1;labelBackgroundColor=none;labelBorderColor=none;strokeColor=#001DBC;fontSize=28;fontColor=#030303;entryX=0.25;entryY=0;entryDx=0;entryDy=0;exitX=0.081;exitY=0.012;exitDx=0;exitDy=0;exitPerimeter=0;fillColor=#0050ef;" parent="1" source="20" target="19" edge="1">
          <mxGeometry width="50" height="50" relative="1" as="geometry">
            <mxPoint x="54.89" y="1241" as="sourcePoint" />
            <mxPoint x="104.89" y="1191" as="targetPoint" />
            <Array as="points">
              <mxPoint x="-59.61" y="1171" />
            </Array>
          </mxGeometry>
        </mxCell>
        <mxCell id="44" value="Time Stamp: String&lt;br&gt;Name: String&lt;br&gt;Audio: ?" style="text;html=1;align=left;verticalAlign=middle;whiteSpace=wrap;rounded=0;fontSize=18;fontColor=#000000;" parent="1" vertex="1">
          <mxGeometry x="-13.61" y="1311" width="180" height="50" as="geometry" />
        </mxCell>
        <mxCell id="45" value="Answering the Question" style="text;strokeColor=none;fillColor=none;html=1;fontSize=18;fontStyle=1;verticalAlign=middle;align=center;fontColor=#000000;" parent="1" vertex="1">
          <mxGeometry x="16.39" y="1271" width="100" height="40" as="geometry" />
        </mxCell>
        <mxCell id="46" value="" style="endArrow=classic;startArrow=classic;html=1;labelBackgroundColor=none;labelBorderColor=none;strokeColor=#030303;fontSize=28;fontColor=#000000;entryX=0.5;entryY=1;entryDx=0;entryDy=0;exitX=0.5;exitY=0;exitDx=0;exitDy=0;" parent="1" source="20" target="27" edge="1">
          <mxGeometry width="50" height="50" relative="1" as="geometry">
            <mxPoint x="695.39" y="1175" as="sourcePoint" />
            <mxPoint x="745.39" y="1125" as="targetPoint" />
          </mxGeometry>
        </mxCell>
        <mxCell id="IEhQcg_SlXG8phQVfDvT-49" value="Development" style="text;align=center;fontStyle=1;verticalAlign=middle;spacingLeft=3;spacingRight=3;strokeColor=none;rotatable=0;points=[[0,0.5],[1,0.5]];portConstraint=eastwest;fontSize=22;fontColor=#000000;" parent="1" vertex="1">
          <mxGeometry x="126" y="186" width="80" height="26" as="geometry" />
        </mxCell>
        <mxCell id="xJBp1CFN6KRlQ41Q0iZb-46" value="" style="endArrow=classic;startArrow=classic;html=1;rounded=0;" parent="1" edge="1">
          <mxGeometry width="50" height="50" relative="1" as="geometry">
            <mxPoint x="1757.4299999999998" y="408.5" as="sourcePoint" />
            <mxPoint x="1757.4299999999998" y="293.5" as="targetPoint" />
          </mxGeometry>
        </mxCell>
        <mxCell id="xJBp1CFN6KRlQ41Q0iZb-53" value="" style="shape=image;verticalLabelPosition=bottom;labelBackgroundColor=default;verticalAlign=top;aspect=fixed;imageAspect=0;image=data:image/png,iVBORw0KGgoAAAANSUhEUgAAANMAAADACAYAAACeRVbsAAAAAXNSR0IArs4c6QAAAARnQU1BAACxjwv8YQUAAAAJcEhZcwAADsMAAA7DAcdvqGQAABoFSURBVHhe7Z17bBXXncd/Nn5gTDCx49ikBJN2nTQhBlqt1BAtZNWEUCoiKnY3IoGQVVarNEWbVSiBJBvtH91tHqgh2qjZqIqENhQIaruVWFxR4hBtQhS2lboFDG0J2oCBBBvHDjYY4wf2nu+ZOffOHc+9vo+5M3Pt70cae86878z5zu9xzswUjSqEEJIzxfZ/QkiOpGWZhoaGpL+/X/8nZDJRWloqJSUlMm3aNHtKclKKqaurSw8AG62oqNDjhEwWjCFB/Z8xY4bU1NTYc8biKSZsoL29XYaHh/XK2AghkxXjkZ07d07/r6ur87RUY8SEFU+dOqVFlEqFhEw2oI3e3l49eAlqTAICFgnuHIVESCJw9Yyn1tHRYU+NkyAmKA7+4c0332xPIYS4gZggLJNPMCSI6cqVK1JfX2+XCCFeGAsF4+MkQUywSszYETI+SJebxIQhQUyYCdURQlIDnWCAN2eIiQkTKSRC0gfWCc1HhgTLRAjJHoqJEJ+gmAjxCYqJEJ+gmAjxCYqJEJ+IdXRFahz9jW655RY9I1909FyTd4/226XoUDdzitRVTZGmOWX2FEJSc/bsWamqqoo9VRGImFrPDMrOg336fyEAUb245nr9n5BkuMWUdzfv3dZ+eWbnFwUjJADriWOOogUl0SWvYoKAXm1O7AxYKFxQgtr5YZ8WFiHpkFc3D0KCZTLc11Qh982fGsm4BKIpUv9blDXapURkwLG+pFw+QtwE6ua5hfTUihmRDfARH92ohjWLpyccIywUIemQNzE5hQRgkQqFNYsr7THLYhVSvEfCI7B2Jtz1CwX3sTJuIukQmJgImehQTIT4RN6yeYiZnGnxbd+7wbMR9EhbuC7UgoaxxwS37rF//9wuiU6cIIFCiJPAekCkI6b9R4dlS/OAXQqHrWumjhEUxUTSIXJiwrB1bTiZvjWvX5F1i8tk2fwSe4oFxUTSIfDuRIRMFmiZQrBM7T2j0nFxxC6RoPCKj3OBbp6DMMS0YcdVOXKG7VZhsGDOFF/rGt28EEHmkkIKD5z7fGaPKSZCfIJuXoBuHu6KG3ZetUui9l0qC5Xrobur66ugwDhIVTbjgOumLLdfHE1ofvFqCskWxkwOwhaTnxeWeJPPc04xOaCYggeZzP1H8/9t5GXzS6W+qihQMTFmIoGy/eCgvKNuoB1oHsjTcKRtRO8naGiZaJkCBfFLnbIYj6rzni/eUkKCqDatKKdlmozgok/EAW7dZIGWKQKWCXfS7QfzH0eEAeKWV9ZUSP1MK9U2kS0TxRQRMZmLP5GAVcI53vm9aZNCTHTzCPEJiokQn6CbFxE3D+lijFtXQ10YuzXfq2zGgbMctXV1mvrMtTFuHnolmHKydXPZ71G1T5xLunmTkG/NL5X7laARS6CSYcB4srIZd5e9lnWXzbi77LWsu2zG3WWvZTEsaChWN6tSPW7AzQvTx1vXWTbj7rLXshhwLpc1Jd4gg4CWKQKWieQPWiZCChCKiRCfoJgI8QmKiRCfoJgI8QmKiYQOMrpoa7v3hT55+PUretDtUT12w1GBQDGRUMHbmsyzR0hbv7q2ItZv7/s7+rXICgWKiYQGhAR2rp+mBYT2HzS+ot0PvRcwoGdIoQiKYipw4AqhsmF4SlVOuEpojEZFfXnvgJ6OhsuogePq6BlJ2WAPcW1VlgqCiuJvcEMxFSjm8Qa4QqhsYGFDsa6cuKPj7o4+a+gfhx4A+uWXEaqQeH4LxzkesFQQ1VsF8LwXxVRgQEQIziEk9EGDi2TcJO0qzZmiK5/TVcJ89IeDqLBe2IE9Eg7mONMBXb4K4eWdFFMBgUoIMYADz1Wm/YAdnnbFsruUqCBAWLMwBQVhoENquuD4QdRdPYqpQEBFgkVCxisd98gLuEwQlRFUmIE9LFMmYPmwLep4UEwFAIQEF82vHs8QFFwnxC1h3e3bezL7CgiSFVGHYoo4uBtDSLBGfgjJYGIqWLuggYXEu+0yAefBz9+fDyimiLNl74B+wM79zJUfLFSVs66qOHBBYb+ZWBrEisDETlGFYoowqEQI1tNNNGQKLMSmB8r1fg4H6O4h/slExOghkW2cGCQUU4RBJYdVyie422Mffr+3D24Z4jEkOdB4jN/iTCBAxGZ+KiA4CM9pmbEdrIdB33BCivvcUEwRBRUEVmlZU37FBPCSe+zLL+uEY0cKH0JAbITGY1R6TDPigYiRVYSIvQSlY0W7oflR+4ZipmE75n3l2G5U2s8opoiyv3VY340zaY/JFlRsxDF+NIxCGBARMo9oLDY9MvAfZYgAvcJR8U3bF6ZBDBhgxTAf48BqcFbHZgsU5wNtbJju3C6EuSHkdD/FFFFQeYJ8w879al+4y+cC1oelQX86r8wbRPuKmgfhIrECELdBDJiOdD3Eslm5gBCMs9+eaRrwip2wXQgTA44hLAtFMUUUVIi6mcFdHivDllslNBYJAkmGqfiwgrhhGDAdlhjz3A262G463Y+w/ix1zsL4nAygmCKIcbdQwYLGWcEzARYhnQoPIDYkPdLtvIptI2GRDrBcWD7b35ELFFMEwRtP3XfnfIMKnot4cQPIJL7Dt3zTaWuCMEC6x4bfEfS5M1BMEQRdbYJIPLipVy5StvEGLEEmlRguLPaFG8d4ZNNgfdiHZEqmUEzENzKxbOkuixtLOoJzghtRrvFfNlBMEaS+St21M6xAftB+MfvOpLBqmVgDYwHHs8CZdj0CmVpJvwj1XeP40Uh5holXT+yw3zWO+AOpY6SMgwSPvGOf2cROaN9BA60znZ0KxELIuo33G/WTwjv6MzoXzt+R7jnPhkh9ORDgDoVL57wPO8vmsqYqZ7tuskoTtphQgdBwibaWoMh1n6bSI5uWTmVFTwY8/YtU+HhksiwECqEa8QUpptDdPFRok0kyg7OM8fHKZtxd9lrWWY4qOEaAihAU6Epk9psNWBeVNJ10Nyo7XDcvcXglQNCdKJ2XqmBd7N+rYTcIGDNFFPj8XhUrX8C1zDXOQA8GiASWJBmmu5GzwmMa1jFvVoKFRNl0DYJI0V3I6uvnLSicK1hG/Aa/LE+mhO7mAZyI/UetOxr8bhyQ2yVLVXbeT8dbFxYJQW2qdGsUvs+UbkzhF6jIfrhAuJbvqGv5a3X8OM+mcuP6mrcoGVcQyyI2hAAhFnS4Ndfq12p5dE1C466xYBAXzovZLq6lSXq4lzUE6eZFImZynlBksvIJ9oMLAtAfzMvdi4KYcF7wnoanVcVD5cknOB8Y0k0epAO2B2uHrCTOOR6jcMc9sEL4/cncMnMOnMsgNoOosF3dUKyunxGi17WcVGIyLoGfF3I8cJFw18cF8dpvVL4ciAqJioOe1fkEldrrC4r5BL8rneyfSYxkK4IgxRR6zIS7S5BCAriDmXexQVhRBRcdlSmfT8EaKx2kkKyb2ZBOLIwHEhtw3xAvRZ1QxYQLmWvQmy0QFIaOHBoq8w2OD+4NKlI+RI+7tjsZEATYbyaJArhwUb7pGaKbzTvcr4NineFpdnepH5Xfv23Nu/eFK7LnvDW1/Z0rsXXiQ3y+F1G/SLAY31KD3y+OxLbg/phkQJDoWCeDvocmFoIIo0xBpMbb/3RN/mCPa64Oyr42e9zBebuy3aEC3ZWNZiiSOcEkxPIGXFIE2RCUH0BIVpyUn7cepUOmHgmWj/qNL/Jimo7kz+CIfHA8fiIHj16Tg8o7K0s4+mtyWT/pXCQP/lWFPPk38eFrVXqBggauDjJiCMZzuUNjXZ0hU5UznR4F+QBxEF9CGQKX1Yn/hvq/70+mZf2a/OaPozJYXCzLb7YnaUak+zL+j8q2n1gu3vJ/Uy7eyWi7Bumi46cHyrXLB/cs0zhKu3U7rPVg5YJO+rjhSyjDYLoSzZeUqE4pVw/n/+qQHPxUTVYu3LyEVxaMStcArFWRNDZOkSeVeze9b1Re+88BORjPjBY0EBRcPjTk4u4OC2Neo+W2Vqh8mIYUNAarTadYrxuWRTKYnuDp3gxMxtHETlGlAGImZZluL5Iy5eq9e3RULv92RA6oqcu/WiyXtSUylMljGypl3zPT5LlvT5WVyr17Dk1mI6Pymz9E29fOFFQqCAKNzuY1WrBWsMZwA/Ef4oEVMhYgCiIywMWEy5ruuxrwO9A+FHWiLyZVF8r+fIosV0e6r3VA9ikXD8HSknn2/KQUyawa607W9nmCCZswaNdvhfW6K/T2RuMu3uyDimdeh4V5EFHU7urmTbKwmqmAa5pJGj1Moi+mi6PSXlwm9zWKDH56TbZ1qUr01Slyhz07xqdX5XGkwn9yVbr1hGtyssOySI03hpOxChrdc7tAKh7EDdGjv57VG2KsmwrrCsKO79KlANw8UCR3KLduurJSuI99p8nDXfnSFPn29ep/1zX5hzf75bW3BuSFs6o8tVjumx9tX3uyAtHjHXv6WSjlpkI85ru8iAejkCjJhAIRk2KecvWgoaopsrjBmpRIqaxcVyobbymSy10jsufTUZleUywvPDJV7iicXznpgDWFqwqXFP+RrYSAohTjpUt0q9nCCu33H1g/Ver1hDL57kZnWYlnvSo/N01WztITRCrLZPlD02TPM5heKT9/vEK+UUurVAjA7YOlQiMyXNVChPdsQnwi1EcwkM3BEJZfbHWpGfvoQVCPYJg7MC6AsZ8miZ+q7LS1XDd1+YKrPSufj2BQTCGKiQTPhH6eaTIR5Iv4iTf5bDagZQrQMgH8XvM4NwkOPPKB7CCyh34RKTcPbg8+6hX0w2mG7yuXC98lClJMZOIQKTcPJjcsIYFXlP/sFhIh2UInnhCfoJgI8QmKiRCfoJgI8Ym8icmdueu4WDiPj7eeSXzGpmlOYXW4JOEQmJgOtBZOy39rW+KXHNy/hRAv8iamG1UFdN7Rj6q7/c6DCc+ZRw60L+EY0UZmYPsSSZe8NdoCd8MtwF0eQosibvcOvLTmerp5xJPAekAYcKff9WGfXSosYJXQ+4EQLwLvAXHf/ApZszi4z0n6Aaznw39RSSGRjMi7ZTJcUPEIdvTu0X7lTo3/qcYwaJpTKvMbyujWkbQI3M0jZKISqY6uhEwkKCZCfIJiIsQnKCZCfCJlAqK9vV36+/35wBYhhUpFRYXU11tva3SSUTYPQrJnSxE+t6BIVTbjwFnmuly3ENZNtmxpaake3DA1TohPMDVOSJ6gmAjxCYqJEJ+gmAjxCYqJEJ+gmAjxCYqJEJ8IT0zHT8viZ0/I68ftsiFheqe8rsZR1sOuTr1InF5p3mrmn5Rm92xF93snZdN7iY/OGzBvzP4JyZLQxNTdMSSrm8pl9xGnApR49ousri2Xe+ahOCBtTdVy8MXbrOHhWmsxm+73OuSDhbPs+Y2yQs9W29h6zv7iukj1NxtlyzetRjU3n7WLNNxoFwjJkdDEpCvyghJZ1D4Qq/jHdqmxZXjEvURuUn+7W/vlUGu3ZXkcAklK5znZ9Gy37O7sk5Uxi3ZajlkzHVYO03rldHupzIUAYQ3T2T4hKQhJTHZFnlcuDZ3D8hkmqQr9hFTL+huVNaovV2OWVbGszizZLP3ykcuNw/x17eeVOGwXr3a2PLO0WBYtNdaqWlk5CBPuoJLKWtvCvThX7hS1HyVaUa7e4iOVcnDDbL1PQrIlHDF19soH2vrUyj1NQ3JalZuVe/eGcuNgjUSJKZEZMndsp13NnQ8rcawtlZdbLKXB4i1pst06uIkQpt5fpTwE19FwvE/NG5bthytkj8t9JCQbwhHThWE5ZFufm5RIPvgpYp9qZS0ghhFpqHPFOLBa7RVy97h13uG6KbyFaYGYrWHBXFlX3ycvJUlQEJIJoYhJJx8WWDW+uq5UDkmFPKOTBBCDlXxAps2Kb9SwQ1ktlxt2bJeJf9Swv8RhXQbkCTUNWbqYlaqdIUvExFGWS2iSD3c+XC0NLd12XFVY4Bz4m41EXGliTDeJiZ0x2FlYPdhZV+9saap9KNR2vLKvx3Z5Z2sjBR7BAH19faOffPKJXSLRp2d07yunRlvtUrZ0Hfh49MfH7EIqLpwdfXrnBbvg5sLoj58ZeyytOz8e3ZtslSR4H48/v9Vvzpw5M9rT02OXRkdDy+aRXLESKMh6Wnd72yrYljehfQ1ZTm0tHO1yysp8pCzbypYR2b3DrHsito7TM9DTlGtuuczWNsa3iJbL3dZib9u0ETosz5h9KOLNFc5jVWFAfaUOA6IMxVSoHO+T3TruTMxU7lmqYtDWXst9bh/Qix5r6VPxoXKDj3fH2+WU23y3cnFXS7m8oTOcWLfYildVhV+JxIw9He10OsasG1Ci7RB55DZZ70zmSK2s31Ai252igdg71f4XYBtqP3YTiLUd1z42VIoc7lXz4zHvsV3n48e6rDRp7BslKKYCBZVyESqYV6YS3Gja8Drl/XZ7/rxqWXIYTQl2zKIbxeN3fGMVjh0ZkNXLnDFqr3x0WFXoIxCtaRx3UTtbtqAJo/2iFdsgW7p0liU6k1XV24nvQ0x74NZ+WfKI2h9+i7ZA6phby2Wd3dgeE2DEoZgKFM+sp6qEb7eYpIvVhve2bgg3wpghKzbAAg3J9gTXDaACxzOhiVgu5UNLK6VtR4rkgYMEAcT2g+2YrGyxbFbHoi2P6b2ScDw2ykV9Sf2mQuipQjEVGMjgIY54wlibhEyl03IoMdUOyG4lI8s6oHeIte7KltLYXf9Qi7JUyNI5rNSdC8rjcRTcNmNZdKO4LUSDY7uLnz0vbcus/cdjH8sKaWHFLBT2USovx/pVWgKNCxDtj1ZWdvFPh9XvSCbyaBHNF6ogzbrD8veltlL2ONPiuHhb++SQXVytYgVUFgSzb9c1unz5yQySEn1yj+7tQfJB5F+oojM8aDfS5v82eaM+sRuRbog13YVU4Npmd5R13gkJkhIXpWEDhRQkEROT5fNvRjBqT7nz4cSA1xkrxHs4xLNAEGMsJRxLwyamhJFVmtggNkqSKCB5I1piQrq3NlW3IYhGYv78yvaZ9uMVVoCMNhdYKNM3L56GTUwJx7NUhPhH9BIQdoDqDUSjYijbBYw934Q07MIZar24hQIx18+dEiYkD8TE5PX618BB20hrX6zCd793OrE/liMb5CSeBYpbKLh4T8RSva6UMCE+MDw8bI9ZJFimoaEhndULDTv1qlOi2o2rTPD7k/UCjycfyqXBpImPiKxGqjdJSpiQXIFe8FJ/Qyw1Ds6dO6fTfCbVRwjxpre3V38l5tZbb7WnuCwTRNTV1WWXCCHJ6OnpGWN0EsQEk1VSUkJBEZICWCV8bsn9zaYEMSEJgQWwMAVFyFiQU4B7N3v2bHtKnAQxAQjKuHsUFCFxoAfkFWpqamTatGn21DgJCQgnyFRAgUj/wfWDyLw2QMhExmS44dZBA3V1dUl1kFRMBmwMG8IGMU7IZAICMobEmQb3YlwxEULSY0zMRAjJDoqJEJ+gmAjxCYqJEJ+gmAjxCYqJEJ+gmAjxCYqJEJ+gmAjxCYqJEJ+gmAjxCYqJEJ+gmAjxCYqJEJ+gmAjxCT7PFDBtez6Wtf+jTnlJubzxL3yx/kSCYvKTrk5p3t8rvzwxLCcHrUnV15XI/XfNkIeW1Ep1ifV9pSdaMQefv7TFdPKsPLH9ihwbFlmxcrZsvqsSU0mBQTfPF0bk/EefyNofdcvLrXEhge5Lw7K7pVu++1/JX07TffaqFhJo/iSAN+p2fSrP/5P1ltvnP7hkTyS5QjH5wODxM/L03iFpQ6GyVDY/Ntv6sMCLX5EDT1bLU39WJGV6SW+qby6XRlwJNaz4cgAvrRkZlcERa3RwmI6JX1BMOXNRmn+FDwaAYnlq3VxZ0WjctBIpm1Urq/7uVtmxqsae5kHjHNn2QyU+NdDFK1wYM+XKyTPy4LZ+OY/xuTNk3+OzZLqe4Y1nzHTitCz/jwG5rEb//m9vk3W3YaLNpS5p2XtR3vrjsLTBFSwpkq/PniqPPjhbvn69fS+E27b1srw/UiL/vGGWzD3RIW/996C83ydSVlYsK+6pkfXfrNbW8djP1P5/b62WQLE6nh8yIZILtEw50n12wBKSYpGySKmElBQlEggJqBArTsc52fTS5/IDFYdpIQHllv3v6X75xx+dkuYO21eLuW3X5O03z8pjv7KEBAbVjF+2dMrz/JRO3qGYcuSzz+0KrWioyUpKSeiTll/0ySFsvrJMtmz8ihWHbaySVfAER4bl1f2d4sh1KEbl5CWRe5bcIPvgNm6cLkvtK3zotz3aFb3zQTV9Q6UssibLIvN9YFqlnKGYcsVpSUp8PJ2dX0jLOWt00d01sqimxCrU1MuqrxXp0cET/fKxHovTeHet/OvyGpmOQ6mZJStut6ZLzzVh3i6/UEw5UlMbP4VtHT66UheG5ZA9eqgFnxC1UtkY1n5oh7kjI3Ip0TTJDZW26DTFokImEhA81TlSUz3FHlOV/swVl9uVZ5QlvC5Vzp0ECsWUI2VNlbLKnMUTl+QdkxTIleumSKM9uvSBm+12K9fA7kiRgmLKlbJaWXW3OY0j8vKbp6X55CU7uzYig190y6FfnJSVP3N+6ToNZlfIX061Rlve65BD569aBRWkDZ7vlOZdWWzTUGzFXOB32pqq4+wP1KZOSCimnCmWhuX1suV2u4L2DcnL2z6Te3V3nZNy75ZO2fS7kVjqO22Kb5DVf40PXiv6BmXTa212zPR/cu9r6LY0IuXZJjxqKuWu663RwRM9ci+O8wefxb5yT7KDYvKD4utk0bovy561lbJ6dpE0OHIADVUlsnpptfx8lf3ZeBPjOM+8Wt4k1Z0Jg7J5c2XHxpmyfq4SrHObtaWyflWdbPuO3atCWZrYeg6ro/Han8yUVY9Wyeq6+OyGuaVykz1OsoM9IAjxCVomQnyCYiLEJygmQnyCYiLEF0T+H+8XO4YoPV57AAAAAElFTkSuQmCC;" parent="1" vertex="1">
          <mxGeometry x="1898.4199999999998" y="632.5" width="148.36" height="135" as="geometry" />
        </mxCell>
        <mxCell id="xJBp1CFN6KRlQ41Q0iZb-54" value="" style="shape=image;verticalLabelPosition=bottom;labelBackgroundColor=default;verticalAlign=top;aspect=fixed;imageAspect=0;image=data:image/png,iVBORw0KGgoAAAANSUhEUgAAAOQAAADFCAYAAABEp14eAAAAAXNSR0IArs4c6QAAAARnQU1BAACxjwv8YQUAAAAJcEhZcwAADsMAAA7DAcdvqGQAABLOSURBVHhe7Z17iB3lGca/bXYbN+5u0sSYrG6Iq41VkmJVxCh4ibe2GrHWUtEWtEgFaaFQWigo9oKFQkHoH6UQEA21hhZtLEaL1ltMiRVvFWPdGJtkm8VkGzfRJGaD2W36PDPftzs7OefsmXPb98x5fjA71zMze8785n2/b76ZaTsGnBDCBJ/xfSGEASSkEIaQkEIYoqZlyKNHj0adEK3CnDlz/FBtqEpIynfgwAF3+PBhNzo66qcK0Vp0dHS4zs5O19PTU7WgFQtJCYeGhqId4U6w47AQrQSDEoMR+yMjI27BggVRVykVCcmouGfPnqo3LkSeoJT0YmxszPX19UWRMyuZhQyRkRusdf4sRLMTIiX7S5Ys8VPLJ3Mt6/DwcBQVJaMQx8OoSD8YJZlJZiWTkNxAe3u70lQhShCkZKTMSiYhma4qMgoxPazgZNpKZ7KQSUjWJlVSUBWi1QiXQrKSSUgar0sbQpRP1uvzZQtJGYUQ5VNJNpkpQgoh6ouEFMIQElIIQ0hIIQwhIYUwhIQUwhASUghDSEhRPw7unOxEWUhIUT/W9U92r//MTxSlkJBCGEJCCmEICSmEISSkEIaQkJZR7WTLUfZDrnj71Y4dO1x/f79uUq4VFG73i5PiHRxEtwPTNsbjge7TnOtC1700Hj/l8rh/5u1x3ypr2vwAOP+n6FqrppVPoAuP8ygXCdloKN97D8XysV8NFLR3FQS9zKacElJCmqSWEhaDUbQXYjJ6WpFTQkpIc/CC+Os/9yMloFAkSk19etrdH6ewUSrr01qmuNPBz1OAmRZTQkpIM1CgF79TXCBKc+ZtiGhIORnZssB1c70foKxZKuL2Ilpe/mC8rZlAQkrIGSekp4WiYpCQkY/9WjCdnGGbMyGDhJSQMwqFYFQsRCMOyKiMiohY8GSAFJgpbCOlkJCZhdR1yFpBEQvJSAnuxDmvEQcjpeN2bkG5k+lqklChpEbeppGQteAJlAPT6SJTxdUvxGW4RsNtX89tY5+S5UdKyegpKc0iIauFMqYrbpieMUqFC/hZYbkwlEU/KKNWtRgsO/KkwP1JIinNojJkpVCYQrWoFCCLiJSO6yKsmClVK9vFSyHoV9JSp5CE/Hw9I7jKkKrUaRiUMZ2mlitjiH6FKl+ykLWippCULGsyva0HElKVOg2DB1con7FfjowUkUJEd9BXKSMJZcJy78inFMmIWE8ZRUUoQlZDSFt5oJeSsZyIGKWkTEd9IwHKwuuVUQqLn4jpLNdzCB37hQgRk104WRQi7He9ZVSEVMpqDlbKbFjlR1JQmkou2gfB31tbWM4QsUtJ2QgkpFJWUxSTkaLwAGVNbCUHafR5fG411l+oaRwl3YAIW00NrZgRJGS9YJkuLSPF4bXBSkVME1JURsO0mCxfbsS8csqWwgwSsh6wfJYuL7JMSBFr1YY1CUWMxEREZD+ghgBNh4SsNTz405dDmJ42ojYzajrHshq6JJKyaZCQtYYRKpmOMpVsZGVGKF8mt5neJ2EW1bLWC0YkpqnlttphRQwvcbDPVJP9Q0hxoxuW+1OXQxJlxVIwUnM9MyWjall12aPpoDBZWu0wLeVzdHiAlyvmTCEhddmjaaCIrPzJ2mqH0ZMCswb3RaSiXI/IDRJyJqBQFDFd+RNg5GNqyrJfsRQ1iqxrYzFVYZMbJGSjoTyMjGkoHSuAeDMzL49E9zNinH2Os+M1TAqahGKqFjU3SMhGwnsn0+kpo2AQLnkNMQ2F5TXMIGh6WUmZCyRkIwk1pQFWdBRq+jYdIZqmK0nS0VM0HRKykVCgIBGbu1Vb6xjVXKIj5d6LKUwjIRsNBWI5sVbyUOpark/MKBLSKqys0d0aLYeEtEby+iQvaaxDebHY5RGROySkNdLXJ9kQgIJKypZAQlqi1GWLrWv9gMgzEtISbHkT4CWM6xNlSDY8V5ky90hIK7DsyC7Aa43JcdESSEgrRC1xEq1vWGZk4/EA5+vSRu6RkJYIF/kLUWqeyA0S0hJRkzhERvYDHKaMpdq5itwgIa0RXpATtVWFiGxIXm0TO9E0SEiLhPKkRGw5JKQQhpCQQhhCQgphCAkphCEkpBCGkJBCGEJCCmEICSmEISSkEIZo07s9CsDbnnSHfvUkn0HL+zvTj8EsB7ZaKvb0duPoZTvVEJ5lwxuBhT0oJNv4NpGYetlOpfBOfD7LRjLahSfMDYiUOc9cJCTh092EfcIr2nP8JAWlrNGd+YmX37C8wtuedHf+zEMByXsPTi2P8k4Y3p5mHKWslfDBRj8AWD7hy2wkow34clp2FDD53pIcFy0kZPLHTf7owg48USZraHOcskrI5I/Ls7GwSbp2NadSSkghDCEhhTCEhBTCEBJSCENISDEVVpbwpT9PXF765T+BieVX1Wf5FkNCiklCE0JehN+9Me5zvNhLfqYsj+Fo+dNqt3wLopY6a9r8AGALnXKehcoDKGpTGT7LrzCxninj4estNV6Hz/ISTtbnuhZ7D2WxljHFlu+9bOqbuwJFl0c0ZoOMUqRbVPEB0sYbmutuj0qoREimWjy7W6aYFKVIfhc82MO1Psp9S4HrftUsTwlDowx+loKVokWEVMoqYkK70UBX4mDnvCBbID2edflDiXHOS89vUSRkJfDM3AxdFhjVirUX5ftG0uvjeDXLJwVkSpx1f3OKUtZKUta8wrJxoVvReGNwoQb3xZZneZOSpcm6fBKlrKLloHTJt22Ft28Vu/ul4PKIfMXkipbHfC5Hplu+BVGEVIRsDhQhhRCNRkIKYQgJKYQhJKQQhpCQQhhCQiYvVicfeCVssXWtHwA5bkggIZMPT4ruQNBlD1OwRQ9/k2RLoBw/+0jXIfmD85agNNGPHq5Rhq+o1HjieuaUcX02psLPptvYkmIth4yhuz0qJX3RWdiliRpvqGFApbBMwrNusjwpbMEyI3+jnLekUoRMwxSW5RVV8NiARYcmrcRRyiqEIZSyCtHkSEghDCEhhTCEhBTCEBJSCENISCEMISGFMISEFMIQElIIQ0hIIQwhIYUwhIQUwhASUghDSEghDCEhhTBEze6HHBkZ8UNCtBY9PT0FnZjRG5S5cS4jRKuxePFie0IKIaaiJwYI0eRISCEMISGFMISEFMIQElIIQ0hIIQwhIYUwhIQUwhASUghDSEghDCEhhTCEhGwIe5xbd5Nze/2oe9m5NW3ODfjRifnJ5TiMZdZgfOARDKObgl9H6J7CuGh6JGRDWOzcXD9IBp73A56BBzD/R84txHK3PIZ+mLbZuTsxftatmI4uyd4dznX/AfOPocNyQ6l1lsPAL53bDPGFGSRkw/izc9EtoxDgTfRWfJ0jMdvfcO6CiyAZoiAj3WZExZfugWQXT0bAiWjqGYGQc/vjYQreHYYhWfhMiKqcFiJo2AancRtbeieX43bDZyNRsdw6LMdIfVyEFvVAQjaKeV5ARr6ldzg3/zzn9uGgpyCO0RE9SjYPYl38WwiG5W9k9EPXh+H0HTz7IHEQ9k18hhGU63oJ86KouRsDiK5Mf7ns6RCehG2cdXe8Xm6Dn6WggxCSn70RkXcQkjMKH8Rnr/LLiLojIRvJPkQcRseLkZoGXoU0jI5kOyLWfM6jCBCWkjKifhyGA5g2iB5lojyBbVjXCsie5iN0QWjKGW0D+zKUWC+3ffBbseDrsZ6rICDlXYGTw5Rti3oiIRsFI+JHiDpzr/ATwOD38MdHx0i8+xC5MMjI1OeX28uyoU9HJ0gIu5DL+UiYhJHYIeItTAjNCLoFfcqZ3EZEIiKz3MrlJ+QVjUJCNpIhHOAhGi6AZAfRD+OULIgX0sowHMqKgahCJ0yDMHN9+XQZBGSZkFGOqWuUZnI+oh+nPUsJKSk/B6KUF6kqOR3SrscyXC5MS0ZW0RDa9AgPgzwFKU7Hz8JoKZoWPcKj6UG5jhHqY5QLJWNLIiFNgfSVZTjVaLYsElIIQ0hIIQyRWUg9DFmI+lG2kKwt6uzs9GNCiOkYHR3NfEUiU4TkyrkRIcT0MJvMGsQyCTlnzhx34MABPyaEKAZfPsUAVtcISdvb29ujC55CiMIwMlLIRYsW+Snlkzll5Zt+GCX1+jkhjocyMmDxFXXMKLOSSUgSpKSQklKISQ4fPhw1LyV0pBLKbsuaJpwJxsbGolSWZwOms1lzZiGaGXrAik7KyD7brWZpu5qmYiFJcmfCsBCtBAMQAxL7xd6knIWqhBRC1JbMZUghRP2QkEIYQkIKYQgJKYQhJKQQhpCQQhhCQgphCAkphCEkpBCGkJBCGEJCCmEICSmEISSkEIaQkEIYQrdfWWXv485t/I0f+axz5zzt3DI/2nLsdm7Drc4d8aNLH3Hugl4/ki/yI+TOB5x77WE/4pm11LmFdzl30YUY9tOahWEIuamIkOOHnNvyR+d2PYWDdF88rW2+c13XOrfiZudO7Yqn5YaUkPPvd+6Kc/1IvshPynoEB2ma8UHn9vwEkYavLa4xjGCPrnLuSfTryQk/cO4bSRlxcD5zk3PbcPIJMpJjGD6IaW8+6yeUQaP+h6pBNFz9Ak42X/Pj+SV/ZcjoAMaPdyMO4s9fGU/b96RztX66yP98v9H5xebvO/fJpxiAoWc/5NwN+F/5/34Vw0sRIdvjxcpipv4HUZT8VurMQpq3/Go/sse5EECZ7r16n3PrvxxHh0evd+5ppLsTwQbRNJoe0kWSmvYapAjp5BH0Oe+ZTfH4OFb0d0Tlx7g8usd/6Ny7iUjGzz6Kbb/9DtIw7gOi3U4/bzpGsY1hrgsp6XKkbcuRkodHuJyI4Qt+7NxXQhSBtP/8NbaP/y/a99S+VPo/hKi6/nfxOBn6k1+Or1H3MOXmtA2MvqX2Bd1fOQ3fxRaeaDzh8+ajd23Jr5Dj+HHf+H08PPtS/xpvTNt0m3ODz8XzIyAoU72XcFCWG0Xbi5XRsK6N34X/r0xGnTHI/A6mbfPbi6ZjeCsOyCOchgMylI2mg69EJ7MQCc+erpwI4d9HGXMskcpH+3IvDnYMV/o/LERkZnl8HPLuime73Xx/OhjD9zox7R9xfy5z7VL7grLvySwPYt1D/oRA/uNT756Qq7cG+RMynO0ZAXfhQIhSOxzAZBgHxYc8KyOanPNEnOpd+Yv4ABvDmfh9L810fOlXzl2C1JiEFPmaS7B+HET7sH4Kc7VPJb/IiIVpO3CATwH7dRHm35Ch9nTc9zsSNYzP+4gTuqchRcRy/I+s/MD6oxQe/28Pp+M72Y9exf8D1nsSZUZZdg86irSf3zNJTPsvl8VyvVh+un054zqO4FyAogXHuZ5hrhOfP4Wfbx3yGyEj8IMuvRtlSR8N9g/G/RNwgC3z0z6HgzA6wMCRKh/8HNY/DvH/5gV526dcn6bWPf8O505FvwOpddYaYKbdxTh60A9gvR04sF+53Z+gkC6W81qWcv6HhVfF/ZF/YTmIw/V2XXj8NIfl+tmfZl/m4TeYh2VYNNgO8fejz6yh42bIGi3RMuS3Uuf8b2MEB+4gUsN/x7OygbN8iEi1oM33q2Hxirh/9I+I5vGgu8JHsXQN5H4I9RrKbZ8wYtWI8D8sPS/uH3oZaaxPTU+9C9+9n7bTR8weLMeTzbT7Ahn7fBbD9He7T1dPhqgtRn4jZD8i0EJGPpxxt/k07kT/ROkj+MF3+CizF/M+5DAOiu7kxWYcGAOYzrLmW0ilijGOqEFxeUYP6++AHFd6UUJ3XUqYSpiIJNivt+5ExodoFt6fOxYio2d4W9zvuQcpIra/+jGfJhYg6//QiWgYrWsTTnaUD2nlYhQDFvD7w7QBL2mvj5rl7MsyRFPKewTl/l2IkLzU0Yd1thj5TlnPgpTkEH7kIfSX4CzcxQMaB9HrvsZv433xwdiJM3xUlsPBFQ76d7EMy6LbcJClmd0d948+jGWwnueQ1i25EuvBZ49i+Dmf7oXu1VpEKqx7Jcp+THOP4SB/FyngX/z6B0LZ0dPlTy4HWKOM+RtuOj5lrfh/wPyTKRtOVqP4LjtWxpVmUUTz0xzmL8FypJx9mYXvvZcC4gQ6hl4Hfqsl0ZyWIj9ChnJYMjVchB81kguRJDqTz8dZ/yEcPOdOLscWLgtxkF+Ds3+0Diy/8n4clL5cyQOF1/tO8gdXYB4O3NNw0EXrwbx5tBkH3jV+/bzskqRttu/HvYq/+S6s+9pwzdHvI5mFbXd/07kvXBqP92GY12Gj/UA3G8O9FAbD4buq9H8gvZAwsMBHwjMQ5cJ10K6rsT4/XM6+kJC2kkWtl64StWW1Smg6xzLx6hqku80Ar7M+eS8GEClX4qTQF0+eYADfxxZ8L2o6J2aM6DIO02Y/nme2+rI6a8GnyIhUeQNSXcqYcySkVVrul0GZfZjXLpHGLvFpdzG6K3v3YjOglFUIQyhCCmEICSmEISSkEIaQkEIYQkIKYQbn/g8mg0CMQPqdNQAAAABJRU5ErkJggg==;" parent="1" vertex="1">
          <mxGeometry x="1449.2199999999998" y="158" width="148.14" height="128" as="geometry" />
        </mxCell>
        <mxCell id="xJBp1CFN6KRlQ41Q0iZb-55" value="" style="shape=image;verticalLabelPosition=bottom;labelBackgroundColor=default;verticalAlign=top;aspect=fixed;imageAspect=0;image=data:image/png,iVBORw0KGgoAAAANSUhEUgAAAOQAAADFCAYAAABEp14eAAAAAXNSR0IArs4c6QAAAARnQU1BAACxjwv8YQUAAAAJcEhZcwAADsMAAA7DAcdvqGQAABLOSURBVHhe7Z17iB3lGca/bXYbN+5u0sSYrG6Iq41VkmJVxCh4ibe2GrHWUtEWtEgFaaFQWigo9oKFQkHoH6UQEA21hhZtLEaL1ltMiRVvFWPdGJtkm8VkGzfRJGaD2W36PDPftzs7OefsmXPb98x5fjA71zMze8785n2/b76ZaTsGnBDCBJ/xfSGEASSkEIaQkEIYoqZlyKNHj0adEK3CnDlz/FBtqEpIynfgwAF3+PBhNzo66qcK0Vp0dHS4zs5O19PTU7WgFQtJCYeGhqId4U6w47AQrQSDEoMR+yMjI27BggVRVykVCcmouGfPnqo3LkSeoJT0YmxszPX19UWRMyuZhQyRkRusdf4sRLMTIiX7S5Ys8VPLJ3Mt6/DwcBQVJaMQx8OoSD8YJZlJZiWTkNxAe3u70lQhShCkZKTMSiYhma4qMgoxPazgZNpKZ7KQSUjWJlVSUBWi1QiXQrKSSUgar0sbQpRP1uvzZQtJGYUQ5VNJNpkpQgoh6ouEFMIQElIIQ0hIIQwhIYUwhIQUwhASUghDSEhRPw7unOxEWUhIUT/W9U92r//MTxSlkJBCGEJCCmEICSmEISSkEIaQkJZR7WTLUfZDrnj71Y4dO1x/f79uUq4VFG73i5PiHRxEtwPTNsbjge7TnOtC1700Hj/l8rh/5u1x3ypr2vwAOP+n6FqrppVPoAuP8ygXCdloKN97D8XysV8NFLR3FQS9zKacElJCmqSWEhaDUbQXYjJ6WpFTQkpIc/CC+Os/9yMloFAkSk19etrdH6ewUSrr01qmuNPBz1OAmRZTQkpIM1CgF79TXCBKc+ZtiGhIORnZssB1c70foKxZKuL2Ilpe/mC8rZlAQkrIGSekp4WiYpCQkY/9WjCdnGGbMyGDhJSQMwqFYFQsRCMOyKiMiohY8GSAFJgpbCOlkJCZhdR1yFpBEQvJSAnuxDmvEQcjpeN2bkG5k+lqklChpEbeppGQteAJlAPT6SJTxdUvxGW4RsNtX89tY5+S5UdKyegpKc0iIauFMqYrbpieMUqFC/hZYbkwlEU/KKNWtRgsO/KkwP1JIinNojJkpVCYQrWoFCCLiJSO6yKsmClVK9vFSyHoV9JSp5CE/Hw9I7jKkKrUaRiUMZ2mlitjiH6FKl+ykLWippCULGsyva0HElKVOg2DB1con7FfjowUkUJEd9BXKSMJZcJy78inFMmIWE8ZRUUoQlZDSFt5oJeSsZyIGKWkTEd9IwHKwuuVUQqLn4jpLNdzCB37hQgRk104WRQi7He9ZVSEVMpqDlbKbFjlR1JQmkou2gfB31tbWM4QsUtJ2QgkpFJWUxSTkaLwAGVNbCUHafR5fG411l+oaRwl3YAIW00NrZgRJGS9YJkuLSPF4bXBSkVME1JURsO0mCxfbsS8csqWwgwSsh6wfJYuL7JMSBFr1YY1CUWMxEREZD+ghgBNh4SsNTz405dDmJ42ojYzajrHshq6JJKyaZCQtYYRKpmOMpVsZGVGKF8mt5neJ2EW1bLWC0YkpqnlttphRQwvcbDPVJP9Q0hxoxuW+1OXQxJlxVIwUnM9MyWjall12aPpoDBZWu0wLeVzdHiAlyvmTCEhddmjaaCIrPzJ2mqH0ZMCswb3RaSiXI/IDRJyJqBQFDFd+RNg5GNqyrJfsRQ1iqxrYzFVYZMbJGSjoTyMjGkoHSuAeDMzL49E9zNinH2Os+M1TAqahGKqFjU3SMhGwnsn0+kpo2AQLnkNMQ2F5TXMIGh6WUmZCyRkIwk1pQFWdBRq+jYdIZqmK0nS0VM0HRKykVCgIBGbu1Vb6xjVXKIj5d6LKUwjIRsNBWI5sVbyUOpark/MKBLSKqys0d0aLYeEtEby+iQvaaxDebHY5RGROySkNdLXJ9kQgIJKypZAQlqi1GWLrWv9gMgzEtISbHkT4CWM6xNlSDY8V5ky90hIK7DsyC7Aa43JcdESSEgrRC1xEq1vWGZk4/EA5+vSRu6RkJYIF/kLUWqeyA0S0hJRkzhERvYDHKaMpdq5itwgIa0RXpATtVWFiGxIXm0TO9E0SEiLhPKkRGw5JKQQhpCQQhhCQgphCAkphCEkpBCGkJBCGEJCCmEICSmEISSkEIZo07s9CsDbnnSHfvUkn0HL+zvTj8EsB7ZaKvb0duPoZTvVEJ5lwxuBhT0oJNv4NpGYetlOpfBOfD7LRjLahSfMDYiUOc9cJCTh092EfcIr2nP8JAWlrNGd+YmX37C8wtuedHf+zEMByXsPTi2P8k4Y3p5mHKWslfDBRj8AWD7hy2wkow34clp2FDD53pIcFy0kZPLHTf7owg48USZraHOcskrI5I/Ls7GwSbp2NadSSkghDCEhhTCEhBTCEBJSCENISDEVVpbwpT9PXF765T+BieVX1Wf5FkNCiklCE0JehN+9Me5zvNhLfqYsj+Fo+dNqt3wLopY6a9r8AGALnXKehcoDKGpTGT7LrzCxninj4estNV6Hz/ISTtbnuhZ7D2WxljHFlu+9bOqbuwJFl0c0ZoOMUqRbVPEB0sYbmutuj0qoREimWjy7W6aYFKVIfhc82MO1Psp9S4HrftUsTwlDowx+loKVokWEVMoqYkK70UBX4mDnvCBbID2edflDiXHOS89vUSRkJfDM3AxdFhjVirUX5ftG0uvjeDXLJwVkSpx1f3OKUtZKUta8wrJxoVvReGNwoQb3xZZneZOSpcm6fBKlrKLloHTJt22Ft28Vu/ul4PKIfMXkipbHfC5Hplu+BVGEVIRsDhQhhRCNRkIKYQgJKYQhJKQQhpCQQhhCQiYvVicfeCVssXWtHwA5bkggIZMPT4ruQNBlD1OwRQ9/k2RLoBw/+0jXIfmD85agNNGPHq5Rhq+o1HjieuaUcX02psLPptvYkmIth4yhuz0qJX3RWdiliRpvqGFApbBMwrNusjwpbMEyI3+jnLekUoRMwxSW5RVV8NiARYcmrcRRyiqEIZSyCtHkSEghDCEhhTCEhBTCEBJSCENISCEMISGFMISEFMIQElIIQ0hIIQwhIYUwhIQUwhASUghDSEghDCEhhTBEze6HHBkZ8UNCtBY9PT0FnZjRG5S5cS4jRKuxePFie0IKIaaiJwYI0eRISCEMISGFMISEFMIQElIIQ0hIIQwhIYUwhIQUwhASUghDSEghDCEhhTCEhGwIe5xbd5Nze/2oe9m5NW3ODfjRifnJ5TiMZdZgfOARDKObgl9H6J7CuGh6JGRDWOzcXD9IBp73A56BBzD/R84txHK3PIZ+mLbZuTsxftatmI4uyd4dznX/AfOPocNyQ6l1lsPAL53bDPGFGSRkw/izc9EtoxDgTfRWfJ0jMdvfcO6CiyAZoiAj3WZExZfugWQXT0bAiWjqGYGQc/vjYQreHYYhWfhMiKqcFiJo2AancRtbeieX43bDZyNRsdw6LMdIfVyEFvVAQjaKeV5ARr6ldzg3/zzn9uGgpyCO0RE9SjYPYl38WwiG5W9k9EPXh+H0HTz7IHEQ9k18hhGU63oJ86KouRsDiK5Mf7ns6RCehG2cdXe8Xm6Dn6WggxCSn70RkXcQkjMKH8Rnr/LLiLojIRvJPkQcRseLkZoGXoU0jI5kOyLWfM6jCBCWkjKifhyGA5g2iB5lojyBbVjXCsie5iN0QWjKGW0D+zKUWC+3ffBbseDrsZ6rICDlXYGTw5Rti3oiIRsFI+JHiDpzr/ATwOD38MdHx0i8+xC5MMjI1OeX28uyoU9HJ0gIu5DL+UiYhJHYIeItTAjNCLoFfcqZ3EZEIiKz3MrlJ+QVjUJCNpIhHOAhGi6AZAfRD+OULIgX0sowHMqKgahCJ0yDMHN9+XQZBGSZkFGOqWuUZnI+oh+nPUsJKSk/B6KUF6kqOR3SrscyXC5MS0ZW0RDa9AgPgzwFKU7Hz8JoKZoWPcKj6UG5jhHqY5QLJWNLIiFNgfSVZTjVaLYsElIIQ0hIIQyRWUg9DFmI+lG2kKwt6uzs9GNCiOkYHR3NfEUiU4TkyrkRIcT0MJvMGsQyCTlnzhx34MABPyaEKAZfPsUAVtcISdvb29ujC55CiMIwMlLIRYsW+Snlkzll5Zt+GCX1+jkhjocyMmDxFXXMKLOSSUgSpKSQklKISQ4fPhw1LyV0pBLKbsuaJpwJxsbGolSWZwOms1lzZiGaGXrAik7KyD7brWZpu5qmYiFJcmfCsBCtBAMQAxL7xd6knIWqhBRC1JbMZUghRP2QkEIYQkIKYQgJKYQhJKQQhpCQQhhCQgphCAkphCEkpBCGkJBCGEJCCmEICSmEISSkEIaQkEIYQrdfWWXv485t/I0f+axz5zzt3DI/2nLsdm7Drc4d8aNLH3Hugl4/ki/yI+TOB5x77WE/4pm11LmFdzl30YUY9tOahWEIuamIkOOHnNvyR+d2PYWDdF88rW2+c13XOrfiZudO7Yqn5YaUkPPvd+6Kc/1IvshPynoEB2ma8UHn9vwEkYavLa4xjGCPrnLuSfTryQk/cO4bSRlxcD5zk3PbcPIJMpJjGD6IaW8+6yeUQaP+h6pBNFz9Ak42X/Pj+SV/ZcjoAMaPdyMO4s9fGU/b96RztX66yP98v9H5xebvO/fJpxiAoWc/5NwN+F/5/34Vw0sRIdvjxcpipv4HUZT8VurMQpq3/Go/sse5EECZ7r16n3PrvxxHh0evd+5ppLsTwQbRNJoe0kWSmvYapAjp5BH0Oe+ZTfH4OFb0d0Tlx7g8usd/6Ny7iUjGzz6Kbb/9DtIw7gOi3U4/bzpGsY1hrgsp6XKkbcuRkodHuJyI4Qt+7NxXQhSBtP/8NbaP/y/a99S+VPo/hKi6/nfxOBn6k1+Or1H3MOXmtA2MvqX2Bd1fOQ3fxRaeaDzh8+ajd23Jr5Dj+HHf+H08PPtS/xpvTNt0m3ODz8XzIyAoU72XcFCWG0Xbi5XRsK6N34X/r0xGnTHI/A6mbfPbi6ZjeCsOyCOchgMylI2mg69EJ7MQCc+erpwI4d9HGXMskcpH+3IvDnYMV/o/LERkZnl8HPLuime73Xx/OhjD9zox7R9xfy5z7VL7grLvySwPYt1D/oRA/uNT756Qq7cG+RMynO0ZAXfhQIhSOxzAZBgHxYc8KyOanPNEnOpd+Yv4ABvDmfh9L810fOlXzl2C1JiEFPmaS7B+HET7sH4Kc7VPJb/IiIVpO3CATwH7dRHm35Ch9nTc9zsSNYzP+4gTuqchRcRy/I+s/MD6oxQe/28Pp+M72Y9exf8D1nsSZUZZdg86irSf3zNJTPsvl8VyvVh+un054zqO4FyAogXHuZ5hrhOfP4Wfbx3yGyEj8IMuvRtlSR8N9g/G/RNwgC3z0z6HgzA6wMCRKh/8HNY/DvH/5gV526dcn6bWPf8O505FvwOpddYaYKbdxTh60A9gvR04sF+53Z+gkC6W81qWcv6HhVfF/ZF/YTmIw/V2XXj8NIfl+tmfZl/m4TeYh2VYNNgO8fejz6yh42bIGi3RMuS3Uuf8b2MEB+4gUsN/x7OygbN8iEi1oM33q2Hxirh/9I+I5vGgu8JHsXQN5H4I9RrKbZ8wYtWI8D8sPS/uH3oZaaxPTU+9C9+9n7bTR8weLMeTzbT7Ahn7fBbD9He7T1dPhqgtRn4jZD8i0EJGPpxxt/k07kT/ROkj+MF3+CizF/M+5DAOiu7kxWYcGAOYzrLmW0ilijGOqEFxeUYP6++AHFd6UUJ3XUqYSpiIJNivt+5ExodoFt6fOxYio2d4W9zvuQcpIra/+jGfJhYg6//QiWgYrWsTTnaUD2nlYhQDFvD7w7QBL2mvj5rl7MsyRFPKewTl/l2IkLzU0Yd1thj5TlnPgpTkEH7kIfSX4CzcxQMaB9HrvsZv433xwdiJM3xUlsPBFQ76d7EMy6LbcJClmd0d948+jGWwnueQ1i25EuvBZ49i+Dmf7oXu1VpEKqx7Jcp+THOP4SB/FyngX/z6B0LZ0dPlTy4HWKOM+RtuOj5lrfh/wPyTKRtOVqP4LjtWxpVmUUTz0xzmL8FypJx9mYXvvZcC4gQ6hl4Hfqsl0ZyWIj9ChnJYMjVchB81kguRJDqTz8dZ/yEcPOdOLscWLgtxkF+Ds3+0Diy/8n4clL5cyQOF1/tO8gdXYB4O3NNw0EXrwbx5tBkH3jV+/bzskqRttu/HvYq/+S6s+9pwzdHvI5mFbXd/07kvXBqP92GY12Gj/UA3G8O9FAbD4buq9H8gvZAwsMBHwjMQ5cJ10K6rsT4/XM6+kJC2kkWtl64StWW1Smg6xzLx6hqku80Ar7M+eS8GEClX4qTQF0+eYADfxxZ8L2o6J2aM6DIO02Y/nme2+rI6a8GnyIhUeQNSXcqYcySkVVrul0GZfZjXLpHGLvFpdzG6K3v3YjOglFUIQyhCCmEICSmEISSkEIaQkEIYQkIKYQbn/g8mg0CMQPqdNQAAAABJRU5ErkJggg==;" parent="1" vertex="1">
          <mxGeometry x="1676.3599999999997" y="150" width="148.14" height="128" as="geometry" />
        </mxCell>
        <mxCell id="xJBp1CFN6KRlQ41Q0iZb-56" value="" style="shape=image;verticalLabelPosition=bottom;labelBackgroundColor=default;verticalAlign=top;aspect=fixed;imageAspect=0;image=data:image/png,iVBORw0KGgoAAAANSUhEUgAAAOQAAADFCAYAAABEp14eAAAAAXNSR0IArs4c6QAAAARnQU1BAACxjwv8YQUAAAAJcEhZcwAADsMAAA7DAcdvqGQAABLOSURBVHhe7Z17iB3lGca/bXYbN+5u0sSYrG6Iq41VkmJVxCh4ibe2GrHWUtEWtEgFaaFQWigo9oKFQkHoH6UQEA21hhZtLEaL1ltMiRVvFWPdGJtkm8VkGzfRJGaD2W36PDPftzs7OefsmXPb98x5fjA71zMze8785n2/b76ZaTsGnBDCBJ/xfSGEASSkEIaQkEIYoqZlyKNHj0adEK3CnDlz/FBtqEpIynfgwAF3+PBhNzo66qcK0Vp0dHS4zs5O19PTU7WgFQtJCYeGhqId4U6w47AQrQSDEoMR+yMjI27BggVRVykVCcmouGfPnqo3LkSeoJT0YmxszPX19UWRMyuZhQyRkRusdf4sRLMTIiX7S5Ys8VPLJ3Mt6/DwcBQVJaMQx8OoSD8YJZlJZiWTkNxAe3u70lQhShCkZKTMSiYhma4qMgoxPazgZNpKZ7KQSUjWJlVSUBWi1QiXQrKSSUgar0sbQpRP1uvzZQtJGYUQ5VNJNpkpQgoh6ouEFMIQElIIQ0hIIQwhIYUwhIQUwhASUghDSEhRPw7unOxEWUhIUT/W9U92r//MTxSlkJBCGEJCCmEICSmEISSkEIaQkJZR7WTLUfZDrnj71Y4dO1x/f79uUq4VFG73i5PiHRxEtwPTNsbjge7TnOtC1700Hj/l8rh/5u1x3ypr2vwAOP+n6FqrppVPoAuP8ygXCdloKN97D8XysV8NFLR3FQS9zKacElJCmqSWEhaDUbQXYjJ6WpFTQkpIc/CC+Os/9yMloFAkSk19etrdH6ewUSrr01qmuNPBz1OAmRZTQkpIM1CgF79TXCBKc+ZtiGhIORnZssB1c70foKxZKuL2Ilpe/mC8rZlAQkrIGSekp4WiYpCQkY/9WjCdnGGbMyGDhJSQMwqFYFQsRCMOyKiMiohY8GSAFJgpbCOlkJCZhdR1yFpBEQvJSAnuxDmvEQcjpeN2bkG5k+lqklChpEbeppGQteAJlAPT6SJTxdUvxGW4RsNtX89tY5+S5UdKyegpKc0iIauFMqYrbpieMUqFC/hZYbkwlEU/KKNWtRgsO/KkwP1JIinNojJkpVCYQrWoFCCLiJSO6yKsmClVK9vFSyHoV9JSp5CE/Hw9I7jKkKrUaRiUMZ2mlitjiH6FKl+ykLWippCULGsyva0HElKVOg2DB1con7FfjowUkUJEd9BXKSMJZcJy78inFMmIWE8ZRUUoQlZDSFt5oJeSsZyIGKWkTEd9IwHKwuuVUQqLn4jpLNdzCB37hQgRk104WRQi7He9ZVSEVMpqDlbKbFjlR1JQmkou2gfB31tbWM4QsUtJ2QgkpFJWUxSTkaLwAGVNbCUHafR5fG411l+oaRwl3YAIW00NrZgRJGS9YJkuLSPF4bXBSkVME1JURsO0mCxfbsS8csqWwgwSsh6wfJYuL7JMSBFr1YY1CUWMxEREZD+ghgBNh4SsNTz405dDmJ42ojYzajrHshq6JJKyaZCQtYYRKpmOMpVsZGVGKF8mt5neJ2EW1bLWC0YkpqnlttphRQwvcbDPVJP9Q0hxoxuW+1OXQxJlxVIwUnM9MyWjall12aPpoDBZWu0wLeVzdHiAlyvmTCEhddmjaaCIrPzJ2mqH0ZMCswb3RaSiXI/IDRJyJqBQFDFd+RNg5GNqyrJfsRQ1iqxrYzFVYZMbJGSjoTyMjGkoHSuAeDMzL49E9zNinH2Os+M1TAqahGKqFjU3SMhGwnsn0+kpo2AQLnkNMQ2F5TXMIGh6WUmZCyRkIwk1pQFWdBRq+jYdIZqmK0nS0VM0HRKykVCgIBGbu1Vb6xjVXKIj5d6LKUwjIRsNBWI5sVbyUOpark/MKBLSKqys0d0aLYeEtEby+iQvaaxDebHY5RGROySkNdLXJ9kQgIJKypZAQlqi1GWLrWv9gMgzEtISbHkT4CWM6xNlSDY8V5ky90hIK7DsyC7Aa43JcdESSEgrRC1xEq1vWGZk4/EA5+vSRu6RkJYIF/kLUWqeyA0S0hJRkzhERvYDHKaMpdq5itwgIa0RXpATtVWFiGxIXm0TO9E0SEiLhPKkRGw5JKQQhpCQQhhCQgphCAkphCEkpBCGkJBCGEJCCmEICSmEISSkEIZo07s9CsDbnnSHfvUkn0HL+zvTj8EsB7ZaKvb0duPoZTvVEJ5lwxuBhT0oJNv4NpGYetlOpfBOfD7LRjLahSfMDYiUOc9cJCTh092EfcIr2nP8JAWlrNGd+YmX37C8wtuedHf+zEMByXsPTi2P8k4Y3p5mHKWslfDBRj8AWD7hy2wkow34clp2FDD53pIcFy0kZPLHTf7owg48USZraHOcskrI5I/Ls7GwSbp2NadSSkghDCEhhTCEhBTCEBJSCENISDEVVpbwpT9PXF765T+BieVX1Wf5FkNCiklCE0JehN+9Me5zvNhLfqYsj+Fo+dNqt3wLopY6a9r8AGALnXKehcoDKGpTGT7LrzCxninj4estNV6Hz/ISTtbnuhZ7D2WxljHFlu+9bOqbuwJFl0c0ZoOMUqRbVPEB0sYbmutuj0qoREimWjy7W6aYFKVIfhc82MO1Psp9S4HrftUsTwlDowx+loKVokWEVMoqYkK70UBX4mDnvCBbID2edflDiXHOS89vUSRkJfDM3AxdFhjVirUX5ftG0uvjeDXLJwVkSpx1f3OKUtZKUta8wrJxoVvReGNwoQb3xZZneZOSpcm6fBKlrKLloHTJt22Ft28Vu/ul4PKIfMXkipbHfC5Hplu+BVGEVIRsDhQhhRCNRkIKYQgJKYQhJKQQhpCQQhhCQiYvVicfeCVssXWtHwA5bkggIZMPT4ruQNBlD1OwRQ9/k2RLoBw/+0jXIfmD85agNNGPHq5Rhq+o1HjieuaUcX02psLPptvYkmIth4yhuz0qJX3RWdiliRpvqGFApbBMwrNusjwpbMEyI3+jnLekUoRMwxSW5RVV8NiARYcmrcRRyiqEIZSyCtHkSEghDCEhhTCEhBTCEBJSCENISCEMISGFMISEFMIQElIIQ0hIIQwhIYUwhIQUwhASUghDSEghDCEhhTBEze6HHBkZ8UNCtBY9PT0FnZjRG5S5cS4jRKuxePFie0IKIaaiJwYI0eRISCEMISGFMISEFMIQElIIQ0hIIQwhIYUwhIQUwhASUghDSEghDCEhhTCEhGwIe5xbd5Nze/2oe9m5NW3ODfjRifnJ5TiMZdZgfOARDKObgl9H6J7CuGh6JGRDWOzcXD9IBp73A56BBzD/R84txHK3PIZ+mLbZuTsxftatmI4uyd4dznX/AfOPocNyQ6l1lsPAL53bDPGFGSRkw/izc9EtoxDgTfRWfJ0jMdvfcO6CiyAZoiAj3WZExZfugWQXT0bAiWjqGYGQc/vjYQreHYYhWfhMiKqcFiJo2AancRtbeieX43bDZyNRsdw6LMdIfVyEFvVAQjaKeV5ARr6ldzg3/zzn9uGgpyCO0RE9SjYPYl38WwiG5W9k9EPXh+H0HTz7IHEQ9k18hhGU63oJ86KouRsDiK5Mf7ns6RCehG2cdXe8Xm6Dn6WggxCSn70RkXcQkjMKH8Rnr/LLiLojIRvJPkQcRseLkZoGXoU0jI5kOyLWfM6jCBCWkjKifhyGA5g2iB5lojyBbVjXCsie5iN0QWjKGW0D+zKUWC+3ffBbseDrsZ6rICDlXYGTw5Rti3oiIRsFI+JHiDpzr/ATwOD38MdHx0i8+xC5MMjI1OeX28uyoU9HJ0gIu5DL+UiYhJHYIeItTAjNCLoFfcqZ3EZEIiKz3MrlJ+QVjUJCNpIhHOAhGi6AZAfRD+OULIgX0sowHMqKgahCJ0yDMHN9+XQZBGSZkFGOqWuUZnI+oh+nPUsJKSk/B6KUF6kqOR3SrscyXC5MS0ZW0RDa9AgPgzwFKU7Hz8JoKZoWPcKj6UG5jhHqY5QLJWNLIiFNgfSVZTjVaLYsElIIQ0hIIQyRWUg9DFmI+lG2kKwt6uzs9GNCiOkYHR3NfEUiU4TkyrkRIcT0MJvMGsQyCTlnzhx34MABPyaEKAZfPsUAVtcISdvb29ujC55CiMIwMlLIRYsW+Snlkzll5Zt+GCX1+jkhjocyMmDxFXXMKLOSSUgSpKSQklKISQ4fPhw1LyV0pBLKbsuaJpwJxsbGolSWZwOms1lzZiGaGXrAik7KyD7brWZpu5qmYiFJcmfCsBCtBAMQAxL7xd6knIWqhBRC1JbMZUghRP2QkEIYQkIKYQgJKYQhJKQQhpCQQhhCQgphCAkphCEkpBCGkJBCGEJCCmEICSmEISSkEIaQkEIYQrdfWWXv485t/I0f+axz5zzt3DI/2nLsdm7Drc4d8aNLH3Hugl4/ki/yI+TOB5x77WE/4pm11LmFdzl30YUY9tOahWEIuamIkOOHnNvyR+d2PYWDdF88rW2+c13XOrfiZudO7Yqn5YaUkPPvd+6Kc/1IvshPynoEB2ma8UHn9vwEkYavLa4xjGCPrnLuSfTryQk/cO4bSRlxcD5zk3PbcPIJMpJjGD6IaW8+6yeUQaP+h6pBNFz9Ak42X/Pj+SV/ZcjoAMaPdyMO4s9fGU/b96RztX66yP98v9H5xebvO/fJpxiAoWc/5NwN+F/5/34Vw0sRIdvjxcpipv4HUZT8VurMQpq3/Go/sse5EECZ7r16n3PrvxxHh0evd+5ppLsTwQbRNJoe0kWSmvYapAjp5BH0Oe+ZTfH4OFb0d0Tlx7g8usd/6Ny7iUjGzz6Kbb/9DtIw7gOi3U4/bzpGsY1hrgsp6XKkbcuRkodHuJyI4Qt+7NxXQhSBtP/8NbaP/y/a99S+VPo/hKi6/nfxOBn6k1+Or1H3MOXmtA2MvqX2Bd1fOQ3fxRaeaDzh8+ajd23Jr5Dj+HHf+H08PPtS/xpvTNt0m3ODz8XzIyAoU72XcFCWG0Xbi5XRsK6N34X/r0xGnTHI/A6mbfPbi6ZjeCsOyCOchgMylI2mg69EJ7MQCc+erpwI4d9HGXMskcpH+3IvDnYMV/o/LERkZnl8HPLuime73Xx/OhjD9zox7R9xfy5z7VL7grLvySwPYt1D/oRA/uNT756Qq7cG+RMynO0ZAXfhQIhSOxzAZBgHxYc8KyOanPNEnOpd+Yv4ABvDmfh9L810fOlXzl2C1JiEFPmaS7B+HET7sH4Kc7VPJb/IiIVpO3CATwH7dRHm35Ch9nTc9zsSNYzP+4gTuqchRcRy/I+s/MD6oxQe/28Pp+M72Y9exf8D1nsSZUZZdg86irSf3zNJTPsvl8VyvVh+un054zqO4FyAogXHuZ5hrhOfP4Wfbx3yGyEj8IMuvRtlSR8N9g/G/RNwgC3z0z6HgzA6wMCRKh/8HNY/DvH/5gV526dcn6bWPf8O505FvwOpddYaYKbdxTh60A9gvR04sF+53Z+gkC6W81qWcv6HhVfF/ZF/YTmIw/V2XXj8NIfl+tmfZl/m4TeYh2VYNNgO8fejz6yh42bIGi3RMuS3Uuf8b2MEB+4gUsN/x7OygbN8iEi1oM33q2Hxirh/9I+I5vGgu8JHsXQN5H4I9RrKbZ8wYtWI8D8sPS/uH3oZaaxPTU+9C9+9n7bTR8weLMeTzbT7Ahn7fBbD9He7T1dPhqgtRn4jZD8i0EJGPpxxt/k07kT/ROkj+MF3+CizF/M+5DAOiu7kxWYcGAOYzrLmW0ilijGOqEFxeUYP6++AHFd6UUJ3XUqYSpiIJNivt+5ExodoFt6fOxYio2d4W9zvuQcpIra/+jGfJhYg6//QiWgYrWsTTnaUD2nlYhQDFvD7w7QBL2mvj5rl7MsyRFPKewTl/l2IkLzU0Yd1thj5TlnPgpTkEH7kIfSX4CzcxQMaB9HrvsZv433xwdiJM3xUlsPBFQ76d7EMy6LbcJClmd0d948+jGWwnueQ1i25EuvBZ49i+Dmf7oXu1VpEKqx7Jcp+THOP4SB/FyngX/z6B0LZ0dPlTy4HWKOM+RtuOj5lrfh/wPyTKRtOVqP4LjtWxpVmUUTz0xzmL8FypJx9mYXvvZcC4gQ6hl4Hfqsl0ZyWIj9ChnJYMjVchB81kguRJDqTz8dZ/yEcPOdOLscWLgtxkF+Ds3+0Diy/8n4clL5cyQOF1/tO8gdXYB4O3NNw0EXrwbx5tBkH3jV+/bzskqRttu/HvYq/+S6s+9pwzdHvI5mFbXd/07kvXBqP92GY12Gj/UA3G8O9FAbD4buq9H8gvZAwsMBHwjMQ5cJ10K6rsT4/XM6+kJC2kkWtl64StWW1Smg6xzLx6hqku80Ar7M+eS8GEClX4qTQF0+eYADfxxZ8L2o6J2aM6DIO02Y/nme2+rI6a8GnyIhUeQNSXcqYcySkVVrul0GZfZjXLpHGLvFpdzG6K3v3YjOglFUIQyhCCmEICSmEISSkEIaQkEIYQkIKYQbn/g8mg0CMQPqdNQAAAABJRU5ErkJggg==;" parent="1" vertex="1">
          <mxGeometry x="1904.7199999999996" y="150" width="148.14" height="128" as="geometry" />
        </mxCell>
        <mxCell id="xJBp1CFN6KRlQ41Q0iZb-57" value="" style="endArrow=classic;startArrow=classic;html=1;rounded=0;" parent="1" edge="1">
          <mxGeometry width="50" height="50" relative="1" as="geometry">
            <mxPoint x="1978" y="630" as="sourcePoint" />
            <mxPoint x="1978.37" y="506" as="targetPoint" />
          </mxGeometry>
        </mxCell>
        <mxCell id="xJBp1CFN6KRlQ41Q0iZb-60" value="" style="shape=image;verticalLabelPosition=bottom;labelBackgroundColor=default;verticalAlign=top;aspect=fixed;imageAspect=0;image=data:image/png,iVBORw0KGgoAAAANSUhEUgAAAGAAAABnCAYAAAD/nUeAAAAAAXNSR0IArs4c6QAAAARnQU1BAACxjwv8YQUAAAAJcEhZcwAADsMAAA7DAcdvqGQAAA5JSURBVHhe7Z1/bJPVGsefIerQKZ0/4lsUlQnmbqIwArJWNNJlf7Ar17AFf3RCMsfFyCaaAIlIo5HbQTI6jMDEgFwM1xbDXJGLmwayDl1cSdDVCNlIIAzxaqtbbFV0VabnPs95T3+/28pW9rb4fpJD3/ec8/7o+Z73eZ7znrOSxRDQUI1x4lNDJTQBVEYTQGU0AVRGE0BlNAFUJmPC0GAwCOfOnYNvvvkG+vr64IcffoAff/wRfv/9d7jiiivguuuug9zcXLjppptAr9fDHXfcARMnThRHpy9pL0B3dzfs3r0bDh06xBv+559/hv7+frhw4YKoEYGEmDBhAlx77bVw/fXXw9y5c+Gpp56C4uJiGD9+vKiVZpAA6Qb2ctbY2MgefvhhNm7cOOogo0p33303q6+vZygmQ+HEVdKDtBLg119/Za+99hq77777GPZYxcYcaSIh0Syx6upq9v3334srqk9aCPDHH3+wL7/8ks2bN0+x8eJTVlYWy87OZjk5OQxNDUP7z9D0MDRBivXjE/oJduDAAfbLL7+IO1AP1X0AOddNmzbB1q1bobe3V+Qmcs0118D9998Ps2fPBjQpcPPNN3NbT7b9zz//BHx6IBAIQE9PD3g8Hvj000+HPN9VV10Fjz/+OGzZsgV0Op3IVQEug0qgM2VPPPFEQg8NpSuvvJKbDZvNxrBxxVHJs3//fjZnzhz+tCidn9KNN97ITp48KY4Ye1QT4OzZs6ykpESxUcj+L1iwgL377rsjavhoBgYG2Mcff8yWL1/OzZTS9aZNm8YwymL4JImjxg5VBCDbO3PmTMXGIDu+b98+hvG9qJ0aSAgSffr06YrXxTEE90NjzZj7ABpALV26FJqbm0WODDpWeOSRRwCjILjrrrtEbiJ+vx+++uor8Pl88NNPP/HxAEY4fCBGg7Dbb7+dD8TofErQ9Tdu3Ajbt28H7AgiV2bSpEnwySefDHn9lMNlGEPcbneCKaAQ8cUXX2TYoKJWInTckiVLWF5eHo9iKAK6+uqrublCh8rQSfNePHnyZIYDL7Z3717222+/iaNjobFAU1MTPyb6PihRGDyWjLkAR48eZRi9hL8wOcg1a9YoNhbZf2qohx56aEQDMuzJDKMcdu7cOXHGWA4ePMhFiz6G6o8lYy4ANeqjjz4a/sKvvPKK4ui0q6uLzZ8/X7GXXkwi4fLz89k777yT4GRp/IEmh2FIy+veeuutDM2bKB0bVHHC5BA/+OAD1t7eLnIiUKOQ+RgsYolPNChTyo9PZKrWrl3L0IeIK0U4ffo0czgcimWXmrR6GUdvNl999VU+KKOXbkrQoAlHzDBjxgzucGkwRseRU8Z4njtRjHZE7UQWLVoEb7/9Nn9ZlxZwGdIAMg91dXWKPZrMCDnX119/nQ/ehuOjjz7iYe5gAzCDwTCkwx9L0kaAzz//XNHskF3evHkz++6770TN5CC/8t5777G5c+cmiEqCYhgqaqpL2ghA0Ud0I1HCeJ6dOnVK1BgZ9IYVxxcJ537sscdEDXVJGwE6OztjwlMyE4NFJDSS9ng8DAdzfNT8/vvv83FCX1+fqBELhbg1NTXhUJZG22+++aYoVZe08gEUidBAiwZcOGIVJRGoIcl0FBQU8PidQlQajJHpmjhxIrvtttvYCy+8oBjNkO/YsGEDf++zcuVKdv78eVGiLmkjwHAcOXKEGY3GpMLOSZMmsT179qTF+/7hyAgB7HY7f/2g1NiDJXqV/fzzz4szpC9pL0BbW5tiAyebcFyhymvmZEn7VRFr1qwBm80m9mTQmcIDDzwAJSUlgHafL0+hGbADBw4krJag8hMnTqTvEhUuQxpjsVhievQNN9zAIx8l6H3/rFmzYvzEnXfeyXBULWqkH2kvAPZeHrlQY86YMYMP2IbC6/WyiooKHnLSSzaKrNKZtDdBIbBh+URLsnz77bf8vRFN5qczGSNAPHTbOPiC48ePwy233ML9Ab2YyzhIgEyERr+0JohGtfTS7ZlnnhElmUVGPgG03gedK18LFALjfr4e6J577hE5mUFGLk8/depUTOMTFH7GT/RnAhkpAMX0GGqKvQi0JD3TyEgBaGlieXm52JMh07Nw4UKxlzlkbBQ0MDAAy5YtgyNHjoAkSbBz50649957RWnmkLEChKDFWTk5Ofz1RCaS8QJkOtof6amMJoDKaAKojCaAymgCqIwmgMpoAqiMJoDKaAKojCaAymgCqIwmgMpoAqiMJoDKaAKojCZAkvj2LwN9Vhbon3aCT+SlglEL0L3VyCfIs7L0UPySCwIiX6YbGgxUZoSGEyIrUwn6ecP7zgfl/RQxagECAbfY8oFrYy3YT4pdTgACR+nTDYHzPCNJPFCrl0Wt/UxkXaakzASZFpSCBC6w7nHB6PsInoE/5/jPAM+4bEmZALonq2D1TGyyjfVgPy0yB6PPDQ0r/g4FvJdnQZ5hGdTu75aF+58DytFkWXhFAAs3YVlQ0egDz6Y8vq1HUxcWOegCCz9PXszT4ttbzutmLY3YbF9bA9T8o4Db8oTrcsSTp68F91knrDbRr64MZj57wPm0fD9Z6BdiTe9FQJPyo6FjvbwOv8zhZX5nFd8urOsMlTIr7lOe1S2yeptZ9dTIev9IkpjZcYaxr+2sLKEMmHmfl/UfWiXvS1Y8s8BtZZKoU7g5dF0/a35WzjPtwHMiZxzmcL34ZNjQyeQ//w7dr8QkKVJO9+51lMn7i+3MG30+yczsPfzgEZFSARjrZLaZtF/Fmnp5aYIAnXWFfN+wvpX5xW90+N02ZuJfxopnIBSEI/woHs8vZDaPnHVmh4nX42mRncnNjcfzBhT1eptYFa+DIu/oQnmQC37Wut4gjq1mzTwzcl0oWsea6Std6OfiRAtw5piVGWhbMuH9Df+X+0ORYgGwjcRTYOC9Mb4hz7C3SuR95VTG7F9TvUEEwKZrqpTz5Z7tZfbFuC8ZmIELLxrSY2OFdLx4UsJPDqzj+2HCgoauE7ludUtsw4YFKDEzcxHVKWTr2kfX+ETKxwG6RdVgK8K4p64JXAne2Ae+w2JTCUkPuhyxrYgOjCVooBDXYTf4gl3Q2Yg7i1aDpQwNAjSA61gQfN0daM3xdJUGQCEg0NeD/yKLC2CKvCWjy4XB/uRDn5sttuIJQpB/Lw+42qP9x8hIuQDYM6DqpWqQfLXg+NCPrSCyOdmQjY6aqP6vn/+RRUzyboPSYX5BUppTCmiuABo7oANFsONm2YNGMBVVUC7Yj7qgo93JtyvmG/GKeNUc0cyNXeg6owj4wcs38CaT/WVjXTlY61bxr+XG71n/2egkuAQC4D0uxIgIn4JdOzug/0GRycmHwgWyIg0bsLf2iZsPBsCzdzUUr2wR0UREqI7j1GShXodMnQWlvKwBGra68JkyQekcCbLnmADNCficFrBup/JqMM2Re7EuvxBK+dYu2LazW77GQABcW614FkSqAsN02kiO3BIL7HqWSwCW5+rBMxoNsOeNingfECLkC0IpbMt77MwcFWHEpDWtIhrpZ61rpZiy6PN3bpYdOU/hiEj4g1C+iFZk+vE+Qw43PqFjxghLZjDfkxgF8WhOfA/Z342MUQvQuYEaSmJVzlgByOE2VU6Rb1pC58ijIoG3ldkqTSxffAFpeimr3tLKvNG/XNbbyqwL8+VQb6qBrWuJ+v0HdLI8CqFj14ZEwyvuKROhZnSjhvCzLqeVVRWJe4IpzLB4FXvrWPTvSnSK6Eli1mMiS+DdZ5aPW9IUFpby5OuFor6LR1ucqzKXxAdoJI8mgMpoAqiMJoDKaAKojCaAymgCqIwmgMpoAqjMyAX4rFae2tPXQEvcfFzgwxpRVgse8IFzqTwFOHiaBfUOcb6h0gp6WReAlpXyf9AQSXooMMnTi0lNDYanMSkZof4LkR/NiQYwxlwD0zQjlK9oAFfUuhTPRvle9OEXiRfHyAUYoLf7iM+bsOIhGPCKMnqPmWqCEPBFtQDHB91tu8BSVgCl/3IPe81gewvUhk/hBvthmj2I43wAS+I47Qbn9hooLqwAh/h98OCAfCKfLzCi7zoGJkiCsj2Rd/5ehzyhAmCFDpHHWCesMq8Db3i/A0tlyhxekYfpjVKImS5Y3yHnX/BC81oDz3K/bBlmUUAAXPvr8bMQbDtsfMLGs7klsbHDlIH9a/n6/uNvgZneQvscUPFGKlZ/XC4+YLwEpctrsKkIF/j6+IYyfS7sxfg5swJMlWhSeINug+a24ZtTN70Kav4pds76RmRy4rl8nPBAf1INEkDzsws/C80mKBxvANMKrgDsOtyRRI8OQn8qun0UKRDACRWTY52V3ixPCY4ZwR5wrLdg30ekaij8G89VwActe3nzQ0UJGR/cmlfFpxd9u13QMUzjBtrqwbJJ3jY8WBg72zpCMvsJeFmsS52QBxX/IWcogXnzqsHnlU83g50m8cn8iCnPbIMJ+GyyrxZa2pUUiHSwXJNF9hVFVqivzOeloyUFAkScVChFHO0YIeWjPbeC/Vg32J+MWfcQQ0+7E1po44vVMCv0xE4oBnLJRP0wZmhKURlUb2mGM4fXgWHI1RvJk9lPQCgK8nZB67/XgXn2UEsqesDVyJt/cDY5wZXgSCId7Iy7CbY9VwpTUtT4xOXjhIfjtAscH9JGNTT7Y59Y5m/mKypopYWzLRWxTfL8ZQTwHMQRLG1UmsAY/6DojGjC5M1dB+P/xuHSMnIBxmfLq8wUVrNl6/RyhDA1my+MiiE7d/CyMFg2lT4lUFqgli3yDEn/P8A4UnbztXJgXmCMHcxxdGBcYJbvi6IhGtmPp9rIMKv1snEMQkiSbojvMzjaqgiV+ev4gDRFE0BlNAFURhNAZTQBVEYTQGU0AVRGE0BlNAFUBeD/zMYRcPOUjaQAAAAASUVORK5CYII=;" parent="1" vertex="1">
          <mxGeometry x="1795.43" y="33.75" width="102.99" height="110.5" as="geometry" />
        </mxCell>
        <mxCell id="xJBp1CFN6KRlQ41Q0iZb-62" value="" style="endArrow=classic;startArrow=classic;html=1;rounded=0;" parent="1" edge="1">
          <mxGeometry width="50" height="50" relative="1" as="geometry">
            <mxPoint x="1756.3599999999997" y="146.5" as="sourcePoint" />
            <mxPoint x="1756" y="46" as="targetPoint" />
          </mxGeometry>
        </mxCell>
        <mxCell id="xJBp1CFN6KRlQ41Q0iZb-64" value="" style="shape=image;verticalLabelPosition=bottom;labelBackgroundColor=default;verticalAlign=top;aspect=fixed;imageAspect=0;image=data:image/png,iVBORw0KGgoAAAANSUhEUgAAAOwAAADWCAYAAADSMm7fAAAAAXNSR0IArs4c6QAAAARnQU1BAACxjwv8YQUAAAAJcEhZcwAADsMAAA7DAcdvqGQAABOCSURBVHhe7d0PTJxlngfwb7fAFnCpiJZRofaPBT0IS7fS0u7GpsqdDbWBM+u/VBN7udbEauOZvW29LGQDm7hNvF7P001Kk9Nkj8TWDdseSnspatrL1lauOlLYSmuLFbQDdYpFgbZQuef3vs8LLwPFYYBhHub7SQjP+/+dl/m+z58ZZmb0KyAiI/xI/yYiAzCwRAYZd5O4t7cXPT091u/u7m49lyh6xcbGIiEhAfHx8VZ5IoUcWAlna2urVZaTSkpKGigTRTPJhlORSR7S0tImLBdjDqyciM/nQ19fnxXSlJQUvYSI3CQrnZ2d1s9EZWXMgW1ubkZMTAzS09P1HCIajQRXWqPSRPZ4PHpuaMY06NTS0sKwEo2R0yx2atvxCDqw0i6XNvl47xBE0UhCK9nx+/1WjRuqoAPb1tY2oZ1nomgj/VhpoUpoQxV0YOWuIEPVRBQ6GXiSlmqoghp0knb3pUuXprzv6u9qx9Hm9/QU0dikJM6xfhbNydZzwk8qPhm4zcjI0HPGJqjAyss4Yir6r+80vInT7Sdw+kKjnkM0fhLcJ5dunpLwSmBTU1NDarEGFVgZHZadh/M1V6lN//jhKyqsDXoO0cS6SYU2f959WJP9mJ4THvISj/RnnTcbjUXEvpeYYaXJdlFVCjWNb1rPNVNEZA0rF9DdV5XmyzJ1J8xQzZep7H+Q2SSg0nI7pSoCCaoj3M3jaVfDumtWuZhlD1ZYzRaGlcZDmsDyHJLn0vOrfqfnDna/TBBxgZWwygV0FGaFt39B0UGCmz//Pj1lh9YEERfYwAvnvqhEE0kGnNykqRzpIq+GvTB40dgEpskk3S03EwY5I76GJZos0qc1TcSNEu94/zcDdzqpYd2DA24yinz08/cA5/RnzLB/y7RTFqNNc9uo2HZN9uPXba1t2l2sS/Z4SThekx3PKLGxgZX1pEkz8IdwHoX8rdyPaLRp5+/MbW3TcFu5sS+6xR4ZHgkDO05jCawMGnBQikYjz5PpFNiIfB2WiEbGwBIZhIElMggDS2QQBpbIIAwskUEYWCKDMLBEBmFgiQzCwBIZhIElMggDS2QQBpbIIAwskUEYWCKDMLBEBmFgiQzCwBIZhIElMggDS2QQBpbIIAwskUEYWCKDMLBEBmFgiQzCwBIZhIElMggDS2QQBpbIIAwskUEYWCKDMLBEBmFgiQzCwBIZhIElMggDS2QQBpbIIAwskUEYWCKDMLBEBmFgiQzCwBIZhIElMggDS2QQBpbIIAwskUEYWCKDMLBEBmFgiQzCwBIZhIElMggDS2QQBpbIIAwskUEYWCKDMLBEBmFgiQzCwBIZhIElMggDS2QQBpbIIAwskUEYWCKDMLBEBmFgiQzCwBIZhIElMggDS2QQBpbIIAwskUEYWCKDMLBEBmFgiQzCwBIZhIElMggDS2QQBpbIIAwskUEYWCKDMLBEBmFgiQzCwBIZhIElMggDS2QQBpbIIAwskUEYWCKDMLBEBpnRr+jydbW0tCAhIQEpKSl6zuTZ8f5vcLq9wSovmpON51f9zioHkvVESsIc6zdm2L8gj8Ypi9GmnUfObW3TcNujn7+HwqzHsCb7MT1zqE27i3UJo643kVpbW5GUlGT9jJWxNeyTSzcjJVGFVf447j+YuyxGm+a2Q03DbfPn3xeWEIaLsTUs0URgDTuBLna16xLR5LNabBEu4gKbP+8+XQL8KrDyQzQZpH/rJi26SBdxgQ28aEebh15UookS+NxiDRsCuWju0B5Td0GGlibaHz98ZWCsRMjglAkibtBJSEDlgjpuUiG2gnxLNjIMaLZQ5DqlQiqVQGBXSwY3w9UkHs+gU0QGVrhHi4kmk7xEGM4adlqOEstFlGF2oskU7rCOV8TWsA5pukgTRpoyrHFpvKRrJV0s6V4tV0GVcrhNyybxSCS81muzM2YAzmlLWbin3Q9ptOkp3Lam4U11EzphT2vSorD66D+wrcU9fb11xRi3PdV2AjWNb+oZNunbrcl+3J4YZdvrTktZRMC2i27JsstTKGoCO13IgFrgyHekNM3kpijn5g6t1ErL5k2vt/hNpWn7TqfpKJLDKiScci7u8QMrxKpb8o5qFdDUYmDDKNLD6nBC665RpSvC0E49BjZMTAmrwwqtaga7a1oJrQwAMrRTh4ENAwmqSWF1yAjqSM1jZ9Sewo+BDYPAUVcTwuoYqXksoeVLbFODgQ0zefKbElaH0zyW3w7+6+PUYGApKFPxBgMajoElMggDS2QQBpbIIAwskUH4XuIwKH17o/VSyHQio8ZPLtusp2gs+F5ioijBwIaBCZ/GN1amvZY8XbBJHAbWO4MuNGDEr50QMu3+K4w2HQHbyg3I/SYKGhv+PyyRQdiHJYoSDCyRQRhYIoOMuw/b29sLn8+np4jIkZ6erktDTemgkwS2s7NTTxGRiI2NvW4gOUpMZBCOEhNFCQaWyCAMLJFBGFgigzCwRAZhYIkMwsASGYSBJTIIA0tkEAaWyCAMLJFBGFgigzCwRAZhYENxsgKbdhcP/tTW6wXBasOBfRXw6qlB9di1rwaT9t/F6rzLj7XpCTc5n+LrLKNIwsCGwNd5Bp55O/Hao3vVz06s7SrFrpN6YVDa0II0ePTUAF8r4FkyfP4Esc47KVVPDfId2466xELgWwY20vH/YUPgrS1G3e17seFue9p3bAt24QWULEu1yuWfN6m5mfDMWoi1RRuR66tB+aEKq+aUoJfccRzlDa3w+GusWjY3x96XbFv97UJ41Xzhnm/vU0kpw2sFOaogteLTqL6sirPUsRLXoaQgVc3bh5ZEtV9/ITY8uhGekc5H9jNAavVWNT8N1dbvQvuGIa2Ievs87GPKvvXx1L7WrtyG1R2B6+RY12aXX2bYx8917cd5PNFuPP8PCwnsD/niiy/6v/76az0V7Xz9+/fu7P9YT4nzR3/dX3bU19//1539z+x9p/+8NfeT/gpd/vjgr/v32zNtst6beh+qbG2rfHywqP+Zg59YZWsdKQfuU28n6zrbDe5Dlhf1V/zVnj1s24HyINmPvb7rcZ1/p7/MOT9tyPHEkHX0eck85/wtw68V9ferCrD/0qVLemps2CQes8DmbBu8qurMuyMV3i9rkJvh1FBH4U2018vNXom6Q4N9Xe+XZ1QNZdd0g83UNvi6VK1k1Z42z08C9jmgHnWqBl2ranQh61j7UE1qn6rpnFpsyLayTJ/PAFXzV6va0FsvfXGpPc9APp7Ld+4QMK/IVRMPPZ6QdXyowS6rH18K5KjH41HroFRNb8EBqyOeitUZsNZh/3hiMLBj5Qqi8NaqJ7pqjq4ekgTVXD2lQqQCZ1FP5BKrr1upnsgSzIXw6PV93wLpyVJy3whk+zPWTcDNd6wS3pT8oU1aK3SZ9j46VB/YOeYQan/HKoYt8zZUwKOaqXZffC9K5qnuT4deGARp4jrbOjeJ3AI1nbMQ1Q16IO7ujWp5GTyf7xthkI3Gin3YMRrSn1SsPqmueYb2X1Wtu2wbcs8F9j9VjTPQV1T9x91HkSd9PRW8XccOwXvZXndgv+6+5KyNKLG2C+i/YiU2qPmQPnDStsF+4sC2mciVP93tAcu+zNf9YU3NK+8ssvvYus/tHNM30DfVfdHkwX653addh5ZDpTqUdh/X0zC4jfs6RTt+CBuRQfghbERRgoElMggDS2QQBpbIIEEFVgaciGhiyNfbhCqowMbHx6O7u1tPEdF4SGAlU6EIKrDyxT59fX16iohC5XxxnGQqFEH3YeWuwFqWaHwkRyG96V8Luob1eDxoa+P7QYlCJRWe3++f/MAKaXNLcPnlzUShkbDKuwXHM4gbdGAlrKmpqVYbXA5MRMGRZrC8vVeM9+29Qb2X2E0OLu+FFGlpaSF3nomigTSDJS/SQk1PT9dzQzfmwAoJrdS0zoiXnIxU8zExMdY0UTTr6emxfjv5kFp1PP1Wt5AC65DgysnJXcQpE0UzaXFKxSUVmJQnKqiOcQWWiMIr6EEnIpp6DCyRQRhYIoMwsEQGYWCJDMLAEhmEgSUyCANLZBAGlsggDCyRQRhYIoMwsEQGYWCJDMLAEhmEgSUyCANLZBD+A7vWeaYWu0++hcauNlhfpDAzFek3FmHt4kJkTduvxW1C5Z4tOCLPgMRnUfZgAQIfaqd3G15s+kCV4rDiZ3uwbpE9n6YGa1ils347yv7vVXidsIprbWjxV+APRw/D/mSe6egKup3b9bWrg4/dpfvKRV26im5++cOUY2CvNaH61GFYn0YVU4in/nYvXnt0L3Y8+CqeunUJkmJiEdq3oBBNPAb2whmcvabLs/ORd5NdjE1MQ969JXjpgeXgB7lSpGAf1leD8kMVsL7PQGrYgo3Im20tGVlvG+o+qEB1+wn4VTNSdf6QlLgcBVnrcf/8RHsdpfH9R/CHdrX85jK8PPcEXv5kH3zqxpC+4F+Q0fJbvCvtz1nrsbWoCIOfVnsVdQefwBsX1XYzivDMI+uRJbODOmYH3n37aVR1XUX6/J14KqYS//6Zas73j9b3rMeu3aXwSnHWRpQUFcJjzR/kO7YF5Z83WeXcnL3YcLdVBL47i3ePvoHabz5Fp5zTzDTMn7Me63++BCkz9TqKv6ESr39Wg+YrXWoqDrExdyFr7lN4Im/BYMvl9Ot4/qN9qkleiGfWrFTXrgyHutX61+lXRzPWsJ4cZP1Yl/tq8MaBp/Hy4cNouaTnuX2nnuD//TTeOH9cB0d0obOrFlUfPotdJ+VJaet1ln/zbyj56C0VVplW/cTvb8WCpDh72eWDqLM/EN7WfRx1ElaRdBcy5HfQx1T71su/btmK8tMSVnv+hPc9r7WiqvYFVPnr7bDqec3ny/H6J875dMFbux6ljW/psAp1jn318J59ASW19XY3RPT16v7zB3j9f7bYYRVq3yP1q6MZA4s0PLR0I9Jn6Em0qSfedvz+wCMof1+FxPWMaazbBq/15M/E/fdUWn3d11Zvx/0JEsAOeJtq4c6fpa8DPTH3Yt0qte5De/Crn6Yi9/YCvbAV3hb7WxQs506g0SrEIeu2JVZTPJRj9qhjImEdNq9W6xZV4ok79YKJ0nwQR65IIRF5P90z2Oe/eQH6+nSAT+/Bf/nVeajHkp62HS/9Up3LLyuxOS3TWtzjr8D+YRdLXau+ZGRl7sQOtc+XVxUMq/GjHQMrbivE1gdexbo5ma7+6lX42stReqDGasriWj2OtOs7f8o6PLRQN0VnL8Daufl2+coRNLbbxUHJyMt+FivmqGJsHOJnqd8ZK7FCNxv97ccHAuf9slaXVF/6ThXIkI+ZibV5DyNTmvazEhE/0Z3wuBv0depCQ3Mtmi7qPv/927F1abK1xHtuv65BC7A6fwGS5PHOTETm4mK7ma9uVqfOS6CHir/5n7AhN9Xaf7zTEqEBDKxjdhpWrNqGHQ/txIb05Rj4vPbuN1DVqGqNC612P1f4S7Fpd/HAz/OfHtYLvkH3ZV0csBy5mQFPvJmZyE3R4ZPAyY6vNaHxG1073ai2kS84C/WYs1YidzKrprkFeOhGO5g9nRV45aA6n6py7GlwXhZrg0/1pW012PWnwfPeVL1NtyKAS71OU3lQ5m05HOQbBQMbKFY1WVdsQeld9+oZV+HvGV4TjCwVs6UGDUJWWoEedGlC3bk24OwRfGyNVschd+5YRqaDP+boxtJbVK2Ggp0oyXoY839s33h6e4/jUONz+NdjwX6HcBxmxzkDZhQsBvY64hOTh77+mpQ8MFoZ79lm9yWH/ZThfmn6BmPRCizWzWKfTz3Zv6odaELmWaNNykQfc5iFyLhBFy8fR6PzHokBXTjbYY8QA0uQcasuiplx8GSvw6+KK7Fj1QvIsr4H7SpaWmrULSgZSc5A3swibB7xvPdga55dS1Pwoj6wnR+V4/l9r+LAp63o0ZVM78UmVJ10+mBpyLotFUi4C5m6Qujx/SeqPutAr379ttd/FkcOl+PFt2sQ/DfnZuKeW/QOL1ei+oLdPIyfo5qzzssiE37MQIlYfOsSXa5H1eEK1J3XTdnLHWj6SxkqndHy2QVYeqMuN1Wo41airtUexY1NXoB054sLf3SDqjvjkJ2SY09f248//6UJfqfZrvbb7K3Ey1WlODCs700/JOpfh/V/qJq/zU4tEigO6fP+A1uXqcCKr2rw+/+tGD4S7LjhBby05l6r/+utLcYuK0mF2PDoRuRKMdAXb+HFDypdb31MxIqfVQ59zTToY7bhwL6nUS3BuM5rqiOTl1+eVec6SrM/Vj2Gv1OPwamNVWA3eWv0hJu6XvPV9Vqqrtc1dT41z6G62+nLBlqCRx4owUq5CZxU+6u39zfktV4aZuZvFV2OSgmeezCvG/j6cju6+i7je5k5IxmepLUoWrIVj/+Nq9n2k0X4RfpSzOo4jy+vduBKv1R38maALOTM3YRnfrEUyc7o77kq1HXJ8kXIz16CEVuts2ej50wtPuvT1WZsMf5+eQ5udrd7gj5mL859th8npQqOW4KCzEUI7ov5VdN2QTHyY5LQ8V0r/L1d9jVQ8+Nn5WLx3H/Gc6sKcIe7n5x8F+683Imvvm1D5/dSx9rr/jyzBP+wOBXW6aia9s47CwPWU+SfKm5ah0fz/xH5Tnv/m3ocPN+kjqsCf+vDyL1Zz6dh+E4nImMA/w8TJT1tHT4vMQAAAABJRU5ErkJggg==;" parent="1" vertex="1">
          <mxGeometry x="1676.36" y="-95" width="152.19" height="138" as="geometry" />
        </mxCell>
        <mxCell id="xJBp1CFN6KRlQ41Q0iZb-67" value="" style="shape=image;verticalLabelPosition=bottom;labelBackgroundColor=default;verticalAlign=top;aspect=fixed;imageAspect=0;image=data:image/png,iVBORw0KGgoAAAANSUhEUgAAANMAAADACAYAAACeRVbsAAAAAXNSR0IArs4c6QAAAARnQU1BAACxjwv8YQUAAAAJcEhZcwAADsMAAA7DAcdvqGQAABoFSURBVHhe7Z17bBXXncd/Nn5gTDCx49ikBJN2nTQhBlqt1BAtZNWEUCoiKnY3IoGQVVarNEWbVSiBJBvtH91tHqgh2qjZqIqENhQIaruVWFxR4hBtQhS2lboFDG0J2oCBBBvHDjYY4wf2nu+ZOffOHc+9vo+5M3Pt70cae86878z5zu9xzswUjSqEEJIzxfZ/QkiOpGWZhoaGpL+/X/8nZDJRWloqJSUlMm3aNHtKclKKqaurSw8AG62oqNDjhEwWjCFB/Z8xY4bU1NTYc8biKSZsoL29XYaHh/XK2AghkxXjkZ07d07/r6ur87RUY8SEFU+dOqVFlEqFhEw2oI3e3l49eAlqTAICFgnuHIVESCJw9Yyn1tHRYU+NkyAmKA7+4c0332xPIYS4gZggLJNPMCSI6cqVK1JfX2+XCCFeGAsF4+MkQUywSszYETI+SJebxIQhQUyYCdURQlIDnWCAN2eIiQkTKSRC0gfWCc1HhgTLRAjJHoqJEJ+gmAjxCYqJEJ+gmAjxCYqJEJ+IdXRFahz9jW655RY9I1909FyTd4/226XoUDdzitRVTZGmOWX2FEJSc/bsWamqqoo9VRGImFrPDMrOg336fyEAUb245nr9n5BkuMWUdzfv3dZ+eWbnFwUjJADriWOOogUl0SWvYoKAXm1O7AxYKFxQgtr5YZ8WFiHpkFc3D0KCZTLc11Qh982fGsm4BKIpUv9blDXapURkwLG+pFw+QtwE6ua5hfTUihmRDfARH92ohjWLpyccIywUIemQNzE5hQRgkQqFNYsr7THLYhVSvEfCI7B2Jtz1CwX3sTJuIukQmJgImehQTIT4RN6yeYiZnGnxbd+7wbMR9EhbuC7UgoaxxwS37rF//9wuiU6cIIFCiJPAekCkI6b9R4dlS/OAXQqHrWumjhEUxUTSIXJiwrB1bTiZvjWvX5F1i8tk2fwSe4oFxUTSIfDuRIRMFmiZQrBM7T2j0nFxxC6RoPCKj3OBbp6DMMS0YcdVOXKG7VZhsGDOFF/rGt28EEHmkkIKD5z7fGaPKSZCfIJuXoBuHu6KG3ZetUui9l0qC5Xrobur66ugwDhIVTbjgOumLLdfHE1ofvFqCskWxkwOwhaTnxeWeJPPc04xOaCYggeZzP1H8/9t5GXzS6W+qihQMTFmIoGy/eCgvKNuoB1oHsjTcKRtRO8naGiZaJkCBfFLnbIYj6rzni/eUkKCqDatKKdlmozgok/EAW7dZIGWKQKWCXfS7QfzH0eEAeKWV9ZUSP1MK9U2kS0TxRQRMZmLP5GAVcI53vm9aZNCTHTzCPEJiokQn6CbFxE3D+lijFtXQ10YuzXfq2zGgbMctXV1mvrMtTFuHnolmHKydXPZ71G1T5xLunmTkG/NL5X7laARS6CSYcB4srIZd5e9lnWXzbi77LWsu2zG3WWvZTEsaChWN6tSPW7AzQvTx1vXWTbj7rLXshhwLpc1Jd4gg4CWKQKWieQPWiZCChCKiRCfoJgI8QmKiRCfoJgI8QmKiYQOMrpoa7v3hT55+PUretDtUT12w1GBQDGRUMHbmsyzR0hbv7q2ItZv7/s7+rXICgWKiYQGhAR2rp+mBYT2HzS+ot0PvRcwoGdIoQiKYipw4AqhsmF4SlVOuEpojEZFfXnvgJ6OhsuogePq6BlJ2WAPcW1VlgqCiuJvcEMxFSjm8Qa4QqhsYGFDsa6cuKPj7o4+a+gfhx4A+uWXEaqQeH4LxzkesFQQ1VsF8LwXxVRgQEQIziEk9EGDi2TcJO0qzZmiK5/TVcJ89IeDqLBe2IE9Eg7mONMBXb4K4eWdFFMBgUoIMYADz1Wm/YAdnnbFsruUqCBAWLMwBQVhoENquuD4QdRdPYqpQEBFgkVCxisd98gLuEwQlRFUmIE9LFMmYPmwLep4UEwFAIQEF82vHs8QFFwnxC1h3e3bezL7CgiSFVGHYoo4uBtDSLBGfgjJYGIqWLuggYXEu+0yAefBz9+fDyimiLNl74B+wM79zJUfLFSVs66qOHBBYb+ZWBrEisDETlGFYoowqEQI1tNNNGQKLMSmB8r1fg4H6O4h/slExOghkW2cGCQUU4RBJYdVyie422Mffr+3D24Z4jEkOdB4jN/iTCBAxGZ+KiA4CM9pmbEdrIdB33BCivvcUEwRBRUEVmlZU37FBPCSe+zLL+uEY0cKH0JAbITGY1R6TDPigYiRVYSIvQSlY0W7oflR+4ZipmE75n3l2G5U2s8opoiyv3VY340zaY/JFlRsxDF+NIxCGBARMo9oLDY9MvAfZYgAvcJR8U3bF6ZBDBhgxTAf48BqcFbHZgsU5wNtbJju3C6EuSHkdD/FFFFQeYJ8w879al+4y+cC1oelQX86r8wbRPuKmgfhIrECELdBDJiOdD3Eslm5gBCMs9+eaRrwip2wXQgTA44hLAtFMUUUVIi6mcFdHivDllslNBYJAkmGqfiwgrhhGDAdlhjz3A262G463Y+w/ix1zsL4nAygmCKIcbdQwYLGWcEzARYhnQoPIDYkPdLtvIptI2GRDrBcWD7b35ELFFMEwRtP3XfnfIMKnot4cQPIJL7Dt3zTaWuCMEC6x4bfEfS5M1BMEQRdbYJIPLipVy5StvEGLEEmlRguLPaFG8d4ZNNgfdiHZEqmUEzENzKxbOkuixtLOoJzghtRrvFfNlBMEaS+St21M6xAftB+MfvOpLBqmVgDYwHHs8CZdj0CmVpJvwj1XeP40Uh5holXT+yw3zWO+AOpY6SMgwSPvGOf2cROaN9BA60znZ0KxELIuo33G/WTwjv6MzoXzt+R7jnPhkh9ORDgDoVL57wPO8vmsqYqZ7tuskoTtphQgdBwibaWoMh1n6bSI5uWTmVFTwY8/YtU+HhksiwECqEa8QUpptDdPFRok0kyg7OM8fHKZtxd9lrWWY4qOEaAihAU6Epk9psNWBeVNJ10Nyo7XDcvcXglQNCdKJ2XqmBd7N+rYTcIGDNFFPj8XhUrX8C1zDXOQA8GiASWJBmmu5GzwmMa1jFvVoKFRNl0DYJI0V3I6uvnLSicK1hG/Aa/LE+mhO7mAZyI/UetOxr8bhyQ2yVLVXbeT8dbFxYJQW2qdGsUvs+UbkzhF6jIfrhAuJbvqGv5a3X8OM+mcuP6mrcoGVcQyyI2hAAhFnS4Ndfq12p5dE1C466xYBAXzovZLq6lSXq4lzUE6eZFImZynlBksvIJ9oMLAtAfzMvdi4KYcF7wnoanVcVD5cknOB8Y0k0epAO2B2uHrCTOOR6jcMc9sEL4/cncMnMOnMsgNoOosF3dUKyunxGi17WcVGIyLoGfF3I8cJFw18cF8dpvVL4ciAqJioOe1fkEldrrC4r5BL8rneyfSYxkK4IgxRR6zIS7S5BCAriDmXexQVhRBRcdlSmfT8EaKx2kkKyb2ZBOLIwHEhtw3xAvRZ1QxYQLmWvQmy0QFIaOHBoq8w2OD+4NKlI+RI+7tjsZEATYbyaJArhwUb7pGaKbzTvcr4NineFpdnepH5Xfv23Nu/eFK7LnvDW1/Z0rsXXiQ3y+F1G/SLAY31KD3y+OxLbg/phkQJDoWCeDvocmFoIIo0xBpMbb/3RN/mCPa64Oyr42e9zBebuy3aEC3ZWNZiiSOcEkxPIGXFIE2RCUH0BIVpyUn7cepUOmHgmWj/qNL/Jimo7kz+CIfHA8fiIHj16Tg8o7K0s4+mtyWT/pXCQP/lWFPPk38eFrVXqBggauDjJiCMZzuUNjXZ0hU5UznR4F+QBxEF9CGQKX1Yn/hvq/70+mZf2a/OaPozJYXCzLb7YnaUak+zL+j8q2n1gu3vJ/Uy7eyWi7Bumi46cHyrXLB/cs0zhKu3U7rPVg5YJO+rjhSyjDYLoSzZeUqE4pVw/n/+qQHPxUTVYu3LyEVxaMStcArFWRNDZOkSeVeze9b1Re+88BORjPjBY0EBRcPjTk4u4OC2Neo+W2Vqh8mIYUNAarTadYrxuWRTKYnuDp3gxMxtHETlGlAGImZZluL5Iy5eq9e3RULv92RA6oqcu/WiyXtSUylMljGypl3zPT5LlvT5WVyr17Dk1mI6Pymz9E29fOFFQqCAKNzuY1WrBWsMZwA/Ef4oEVMhYgCiIywMWEy5ruuxrwO9A+FHWiLyZVF8r+fIosV0e6r3VA9ikXD8HSknn2/KQUyawa607W9nmCCZswaNdvhfW6K/T2RuMu3uyDimdeh4V5EFHU7urmTbKwmqmAa5pJGj1Moi+mi6PSXlwm9zWKDH56TbZ1qUr01Slyhz07xqdX5XGkwn9yVbr1hGtyssOySI03hpOxChrdc7tAKh7EDdGjv57VG2KsmwrrCsKO79KlANw8UCR3KLduurJSuI99p8nDXfnSFPn29ep/1zX5hzf75bW3BuSFs6o8tVjumx9tX3uyAtHjHXv6WSjlpkI85ru8iAejkCjJhAIRk2KecvWgoaopsrjBmpRIqaxcVyobbymSy10jsufTUZleUywvPDJV7iicXznpgDWFqwqXFP+RrYSAohTjpUt0q9nCCu33H1g/Ver1hDL57kZnWYlnvSo/N01WztITRCrLZPlD02TPM5heKT9/vEK+UUurVAjA7YOlQiMyXNVChPdsQnwi1EcwkM3BEJZfbHWpGfvoQVCPYJg7MC6AsZ8miZ+q7LS1XDd1+YKrPSufj2BQTCGKiQTPhH6eaTIR5Iv4iTf5bDagZQrQMgH8XvM4NwkOPPKB7CCyh34RKTcPbg8+6hX0w2mG7yuXC98lClJMZOIQKTcPJjcsIYFXlP/sFhIh2UInnhCfoJgI8QmKiRCfoJgI8Ym8icmdueu4WDiPj7eeSXzGpmlOYXW4JOEQmJgOtBZOy39rW+KXHNy/hRAv8iamG1UFdN7Rj6q7/c6DCc+ZRw60L+EY0UZmYPsSSZe8NdoCd8MtwF0eQosibvcOvLTmerp5xJPAekAYcKff9WGfXSosYJXQ+4EQLwLvAXHf/ApZszi4z0n6Aaznw39RSSGRjMi7ZTJcUPEIdvTu0X7lTo3/qcYwaJpTKvMbyujWkbQI3M0jZKISqY6uhEwkKCZCfIJiIsQnKCZCfCJlAqK9vV36+/35wBYhhUpFRYXU11tva3SSUTYPQrJnSxE+t6BIVTbjwFnmuly3ENZNtmxpaake3DA1TohPMDVOSJ6gmAjxCYqJEJ+gmAjxCYqJEJ+gmAjxCYqJEJ8IT0zHT8viZ0/I68ftsiFheqe8rsZR1sOuTr1InF5p3mrmn5Rm92xF93snZdN7iY/OGzBvzP4JyZLQxNTdMSSrm8pl9xGnApR49ousri2Xe+ahOCBtTdVy8MXbrOHhWmsxm+73OuSDhbPs+Y2yQs9W29h6zv7iukj1NxtlyzetRjU3n7WLNNxoFwjJkdDEpCvyghJZ1D4Qq/jHdqmxZXjEvURuUn+7W/vlUGu3ZXkcAklK5znZ9Gy37O7sk5Uxi3ZajlkzHVYO03rldHupzIUAYQ3T2T4hKQhJTHZFnlcuDZ3D8hkmqQr9hFTL+huVNaovV2OWVbGszizZLP3ykcuNw/x17eeVOGwXr3a2PLO0WBYtNdaqWlk5CBPuoJLKWtvCvThX7hS1HyVaUa7e4iOVcnDDbL1PQrIlHDF19soH2vrUyj1NQ3JalZuVe/eGcuNgjUSJKZEZMndsp13NnQ8rcawtlZdbLKXB4i1pst06uIkQpt5fpTwE19FwvE/NG5bthytkj8t9JCQbwhHThWE5ZFufm5RIPvgpYp9qZS0ghhFpqHPFOLBa7RVy97h13uG6KbyFaYGYrWHBXFlX3ycvJUlQEJIJoYhJJx8WWDW+uq5UDkmFPKOTBBCDlXxAps2Kb9SwQ1ktlxt2bJeJf9Swv8RhXQbkCTUNWbqYlaqdIUvExFGWS2iSD3c+XC0NLd12XFVY4Bz4m41EXGliTDeJiZ0x2FlYPdhZV+9saap9KNR2vLKvx3Z5Z2sjBR7BAH19faOffPKJXSLRp2d07yunRlvtUrZ0Hfh49MfH7EIqLpwdfXrnBbvg5sLoj58ZeyytOz8e3ZtslSR4H48/v9Vvzpw5M9rT02OXRkdDy+aRXLESKMh6Wnd72yrYljehfQ1ZTm0tHO1yysp8pCzbypYR2b3DrHsito7TM9DTlGtuuczWNsa3iJbL3dZib9u0ETosz5h9KOLNFc5jVWFAfaUOA6IMxVSoHO+T3TruTMxU7lmqYtDWXst9bh/Qix5r6VPxoXKDj3fH2+WU23y3cnFXS7m8oTOcWLfYildVhV+JxIw9He10OsasG1Ci7RB55DZZ70zmSK2s31Ai252igdg71f4XYBtqP3YTiLUd1z42VIoc7lXz4zHvsV3n48e6rDRp7BslKKYCBZVyESqYV6YS3Gja8Drl/XZ7/rxqWXIYTQl2zKIbxeN3fGMVjh0ZkNXLnDFqr3x0WFXoIxCtaRx3UTtbtqAJo/2iFdsgW7p0liU6k1XV24nvQ0x74NZ+WfKI2h9+i7ZA6phby2Wd3dgeE2DEoZgKFM+sp6qEb7eYpIvVhve2bgg3wpghKzbAAg3J9gTXDaACxzOhiVgu5UNLK6VtR4rkgYMEAcT2g+2YrGyxbFbHoi2P6b2ScDw2ykV9Sf2mQuipQjEVGMjgIY54wlibhEyl03IoMdUOyG4lI8s6oHeIte7KltLYXf9Qi7JUyNI5rNSdC8rjcRTcNmNZdKO4LUSDY7uLnz0vbcus/cdjH8sKaWHFLBT2USovx/pVWgKNCxDtj1ZWdvFPh9XvSCbyaBHNF6ogzbrD8veltlL2ONPiuHhb++SQXVytYgVUFgSzb9c1unz5yQySEn1yj+7tQfJB5F+oojM8aDfS5v82eaM+sRuRbog13YVU4Npmd5R13gkJkhIXpWEDhRQkEROT5fNvRjBqT7nz4cSA1xkrxHs4xLNAEGMsJRxLwyamhJFVmtggNkqSKCB5I1piQrq3NlW3IYhGYv78yvaZ9uMVVoCMNhdYKNM3L56GTUwJx7NUhPhH9BIQdoDqDUSjYijbBYw934Q07MIZar24hQIx18+dEiYkD8TE5PX618BB20hrX6zCd793OrE/liMb5CSeBYpbKLh4T8RSva6UMCE+MDw8bI9ZJFimoaEhndULDTv1qlOi2o2rTPD7k/UCjycfyqXBpImPiKxGqjdJSpiQXIFe8FJ/Qyw1Ds6dO6fTfCbVRwjxpre3V38l5tZbb7WnuCwTRNTV1WWXCCHJ6OnpGWN0EsQEk1VSUkJBEZICWCV8bsn9zaYEMSEJgQWwMAVFyFiQU4B7N3v2bHtKnAQxAQjKuHsUFCFxoAfkFWpqamTatGn21DgJCQgnyFRAgUj/wfWDyLw2QMhExmS44dZBA3V1dUl1kFRMBmwMG8IGMU7IZAICMobEmQb3YlwxEULSY0zMRAjJDoqJEJ+gmAjxCYqJEJ+gmAjxCYqJEJ+gmAjxCYqJEJ+gmAjxCYqJEJ+gmAjxCYqJEJ+gmAjxCYqJEJ+gmAjxCT7PFDBtez6Wtf+jTnlJubzxL3yx/kSCYvKTrk5p3t8rvzwxLCcHrUnV15XI/XfNkIeW1Ep1ifV9pSdaMQefv7TFdPKsPLH9ihwbFlmxcrZsvqsSU0mBQTfPF0bk/EefyNofdcvLrXEhge5Lw7K7pVu++1/JX07TffaqFhJo/iSAN+p2fSrP/5P1ltvnP7hkTyS5QjH5wODxM/L03iFpQ6GyVDY/Ntv6sMCLX5EDT1bLU39WJGV6SW+qby6XRlwJNaz4cgAvrRkZlcERa3RwmI6JX1BMOXNRmn+FDwaAYnlq3VxZ0WjctBIpm1Urq/7uVtmxqsae5kHjHNn2QyU+NdDFK1wYM+XKyTPy4LZ+OY/xuTNk3+OzZLqe4Y1nzHTitCz/jwG5rEb//m9vk3W3YaLNpS5p2XtR3vrjsLTBFSwpkq/PniqPPjhbvn69fS+E27b1srw/UiL/vGGWzD3RIW/996C83ydSVlYsK+6pkfXfrNbW8djP1P5/b62WQLE6nh8yIZILtEw50n12wBKSYpGySKmElBQlEggJqBArTsc52fTS5/IDFYdpIQHllv3v6X75xx+dkuYO21eLuW3X5O03z8pjv7KEBAbVjF+2dMrz/JRO3qGYcuSzz+0KrWioyUpKSeiTll/0ySFsvrJMtmz8ihWHbaySVfAER4bl1f2d4sh1KEbl5CWRe5bcIPvgNm6cLkvtK3zotz3aFb3zQTV9Q6UssibLIvN9YFqlnKGYcsVpSUp8PJ2dX0jLOWt00d01sqimxCrU1MuqrxXp0cET/fKxHovTeHet/OvyGpmOQ6mZJStut6ZLzzVh3i6/UEw5UlMbP4VtHT66UheG5ZA9eqgFnxC1UtkY1n5oh7kjI3Ip0TTJDZW26DTFokImEhA81TlSUz3FHlOV/swVl9uVZ5QlvC5Vzp0ECsWUI2VNlbLKnMUTl+QdkxTIleumSKM9uvSBm+12K9fA7kiRgmLKlbJaWXW3OY0j8vKbp6X55CU7uzYig190y6FfnJSVP3N+6ToNZlfIX061Rlve65BD569aBRWkDZ7vlOZdWWzTUGzFXOB32pqq4+wP1KZOSCimnCmWhuX1suV2u4L2DcnL2z6Te3V3nZNy75ZO2fS7kVjqO22Kb5DVf40PXiv6BmXTa212zPR/cu9r6LY0IuXZJjxqKuWu663RwRM9ci+O8wefxb5yT7KDYvKD4utk0bovy561lbJ6dpE0OHIADVUlsnpptfx8lf3ZeBPjOM+8Wt4k1Z0Jg7J5c2XHxpmyfq4SrHObtaWyflWdbPuO3atCWZrYeg6ro/Han8yUVY9Wyeq6+OyGuaVykz1OsoM9IAjxCVomQnyCYiLEJygmQnyCYiLEF0T+H+8XO4YoPV57AAAAAElFTkSuQmCC;" parent="1" vertex="1">
          <mxGeometry x="1446.1799999999998" y="412.5" width="148.36" height="135" as="geometry" />
        </mxCell>
        <mxCell id="xJBp1CFN6KRlQ41Q0iZb-68" value="" style="endArrow=classic;startArrow=classic;html=1;rounded=0;" parent="1" edge="1">
          <mxGeometry width="50" height="50" relative="1" as="geometry">
            <mxPoint x="1525.76" y="410" as="sourcePoint" />
            <mxPoint x="1526.1299999999999" y="286" as="targetPoint" />
          </mxGeometry>
        </mxCell>
      </root>
    </mxGraphModel>
  </diagram>
</mxfile>
